<?xml version="1.0" encoding="UTF-8"?>
<svg width="114px" height="114px" viewBox="0 0 114 114" version="1.1" xmlns="http://www.w3.org/2000/svg" xmlns:xlink="http://www.w3.org/1999/xlink">
    <!-- Generator: Sketch 46.2 (44496) - http://www.bohemiancoding.com/sketch -->
    <title>donate</title>
    <desc>Created with Sketch.</desc>
    <defs>
        <polygon id="path-1" points="0 114 114 114 114 0 0 0"></polygon>
    </defs>
    <g id="Mockups" stroke="none" stroke-width="1" fill="none" fill-rule="evenodd">
        <g id="Club-Page" transform="translate(-327.000000, -1563.000000)">
            <g id="donate" transform="translate(327.000000, 1563.000000)">
                <mask id="mask-2" fill="white">
                    <use xlink:href="#path-1"></use>
                </mask>
                <g id="Clip-2"></g>
                <path d="M103.636518,108.818318 L31.0909312,108.818318 C28.23178,108.818318 25.9091903,106.493083 25.9091903,103.636636 L108.818259,103.636636 C108.818259,106.493083 106.495669,108.818318 103.636518,108.818318 Z M5.21210313,32.2354233 C5.90533374,15.1975437 18.7840233,7.60196975 22.9740121,5.57768164 C25.9750156,7.79167085 33.7880695,13.2517107 40.6751965,15.4251364 C42.5374947,16.0146429 45.1639497,16.7484292 48.1698112,17.5910324 C57.2935421,20.1438603 72.5657476,24.4149285 75.895392,27.7418632 C78.3323866,30.1810162 81.0370547,42.402771 82.4980856,51.818844 L71.7063748,51.818844 L67.1765719,40.4938581 C66.8778074,39.7348108 66.2353425,39.1657075 65.4459243,38.9531742 C63.9530738,38.550697 59.7378237,37.3362213 58.1589873,36.5468121 C57.020282,35.9777087 55.7652285,36.1472496 55.026576,37.2099158 C54.8140404,37.3818856 54.034581,37.7233961 53.4679002,37.9713921 C51.4994556,38.8368274 48.7972165,40.0182694 47.0716698,42.6092319 C46.5909749,43.3277157 46.5047461,44.2412443 46.8338728,45.0381833 C49.7435467,52.0466797 61.47843,57.4183057 66.3920116,59.4017874 C70.4809549,61.0539602 78.0309503,67.6045992 78.8558316,71.6628912 C79.0431059,72.5914793 78.7900062,73.0014863 78.4863839,73.3051053 C74.7719892,77.0116851 66.8474452,74.4056631 61.0635604,70.4131957 C54.550739,65.9196356 46.9502208,62.6935024 41.7026546,62.1950815 C40.8877322,62.1166264 40.1187174,62.0787348 39.3596615,62.0432721 C35.9741505,61.8863618 33.2971728,61.7624853 27.432403,57.4965179 C24.446702,55.3257641 22.5997064,52.2769443 20.4590472,48.747435 C17.4077638,43.7122187 13.6428463,37.5057621 5.21210313,32.2354233 Z M62.3263866,51.818844 C58.1616592,49.643718 54.2422587,47.0104918 52.3950202,44.4183149 C53.3058873,43.6995882 54.4800557,43.1861078 55.5478349,42.7153771 C56.2107033,42.4270605 56.8279068,42.1562324 57.379528,41.8426548 C59.1609412,42.5256759 61.4330081,43.2062681 62.8447307,43.6085025 L66.1272529,51.818844 L62.3263866,51.818844 Z M25.9091903,98.454711 L108.818259,98.454711 L108.818259,93.273029 L25.9091903,93.273029 L25.9091903,98.454711 Z M108.818259,62.182451 L108.818259,88.0913469 L25.9091903,88.0913469 L25.9091903,62.7233785 C32.0549929,66.8411798 35.659112,67.0588138 39.1167636,67.2200962 C39.7946916,67.252887 40.4828214,67.2832489 41.2066571,67.3515025 C45.5737184,67.7690392 52.3697588,70.7117138 58.1184234,74.6789202 C62.5765714,77.7530011 68.3453966,80.2934413 73.5728023,80.2934413 C76.7758969,80.2934413 79.7769004,79.3395921 82.1500129,76.9686927 C83.819936,75.2987886 84.4373824,73.1076315 83.9314261,70.6305869 C82.927772,65.6883994 77.315616,60.2351606 72.5698768,57.000769 L103.636518,57.000769 C106.495669,57.000769 108.818259,59.3260041 108.818259,62.182451 Z M103.636518,51.818844 L87.7461376,51.818844 C86.7279096,44.99009 83.8575851,28.3767911 79.5592639,24.0782758 C75.5917696,20.1110695 63.629048,16.533467 49.5664741,12.6014804 C46.6213371,11.7766085 44.0556066,11.0605537 42.2338723,10.4863495 C34.5825885,8.06735684 25.008282,0.626264205 24.9123373,0.550480921 C24.1987033,-0.00890658741 23.2322125,-0.155615252 22.3920287,0.173264768 C22.1695342,0.259492543 0,9.0289787 0,33.6828355 C0,34.6063228 0.490896655,35.4615566 1.29027364,35.9245147 C9.51358204,40.6913318 12.8279239,46.1513717 16.0261605,51.434341 C17.6528478,54.1125028 19.2467438,56.6692171 21.3412524,58.9261987 C20.9761768,59.9854644 20.7272065,61.0663478 20.7272065,62.182451 L20.7272065,103.636636 C20.7272065,109.352201 25.3777297,114 31.0909312,114 L103.636518,114 C109.34972,114 114,109.352201 114,103.636636 L114,62.182451 C114,56.4668854 109.34972,51.818844 103.636518,51.818844 L103.636518,51.818844 Z" id="Fill-1" fill="#0081C6" mask="url(#mask-2)"></path>
            </g>
        </g>
    </g>
</svg>