<?xml version="1.0" encoding="UTF-8"?>
<svg width="94px" height="119px" viewBox="0 0 94 119" version="1.1" xmlns="http://www.w3.org/2000/svg" xmlns:xlink="http://www.w3.org/1999/xlink">
    <!-- Generator: Sketch 46.2 (44496) - http://www.bohemiancoding.com/sketch -->
    <title>partner with us</title>
    <desc>Created with Sketch.</desc>
    <defs>
        <polygon id="path-1" points="0 0 0 119 95 119 95 0"></polygon>
    </defs>
    <g id="Mockups" stroke="none" stroke-width="1" fill="none" fill-rule="evenodd">
        <g id="Club-Page" transform="translate(-994.000000, -1558.000000)">
            <g id="partner-with-us" transform="translate(994.000000, 1558.000000)">
                <mask id="mask-2" fill="white">
                    <use xlink:href="#path-1"></use>
                </mask>
                <g id="Clip-2"></g>
                <path d="M78.9938289,39.5161742 C78.6605401,35.1446306 76.8873395,13.1349676 74.8427632,9.03012681 C72.2380765,3.79833595 60.6970839,0 47.3999603,0 C34.2136436,0 22.7663886,3.73703498 20.0349827,8.90316698 C20.0236995,8.92234169 20.011259,8.9403543 19.9999758,8.96098164 C19.9875353,8.98480476 19.9704659,9.00630368 19.9580254,9.03012681 C17.9137384,13.1349676 16.1405378,35.1446306 15.8049345,39.5161742 C15.7687704,40.0039673 15.9111125,40.4874024 16.2073692,40.8767071 L28.0576375,56.3460506 C28.7233472,57.2153041 29.9642115,57.3800323 30.8289686,56.709208 C31.6945937,56.043032 31.8540052,54.7969663 31.1906101,53.9288749 L19.8020856,39.0620822 C20.4067502,31.383482 21.524367,20.1744108 22.5936686,14.3275765 L41.2656527,38.8874761 C41.6544896,39.3990923 42.2409275,39.6669572 42.8374913,39.6669572 C43.2546809,39.6669572 43.6773675,39.5330247 44.0320654,39.2596398 C44.9011623,38.5957881 45.067228,37.3497224 44.4061474,36.4790162 L39.9637433,30.6368304 C41.3469497,30.212372 43.6773675,29.7504358 47.3999603,29.7504358 C50.9961233,29.7504358 53.3829571,30.1830289 54.8656872,30.5993525 L0.405661234,101.926953 C-0.0135535812,102.480696 -0.116259764,103.213983 0.136889279,103.860694 C0.391195575,104.508857 0.966350201,104.975151 1.64999727,105.091071 L12.3285472,106.874901 L15.9021438,117.644697 C16.1304119,118.339344 16.7249505,118.851251 17.4459189,118.973853 C17.5567259,118.991865 17.6672435,119 17.7737108,119 C18.3827151,119 18.963656,118.719642 19.3400524,118.225748 L78.5913942,40.8767071 C78.8899654,40.4874024 79.0323075,40.0039673 78.9938289,39.5161742 Z M18.4732701,112.851019 L15.6987566,104.489392 C15.4670167,103.793873 14.8701636,103.281966 14.1480379,103.160527 L5.54212765,101.719227 L59.59509,30.9218363 L59.59509,30.9195121 L69.7890403,17.5701364 C70.4524355,16.6994302 70.2883949,15.4556887 69.4227698,14.7895127 C68.553673,14.1210126 67.3174377,14.2900987 66.6528853,15.1561565 L57.4096181,27.2641149 C55.664481,26.5889327 52.5170427,25.7830138 47.3999603,25.7830138 C42.1538442,25.7830138 39.096961,26.6136274 37.4389071,27.3184433 L24.1880736,9.89037407 C26.8509122,7.16436931 35.3934628,3.96625993 47.3999603,3.96625993 C60.7806955,3.96625993 69.8816206,7.93716828 71.3099598,10.802916 C72.5872775,13.3731989 74.2190039,29.170546 74.998703,39.0620822 L18.4732701,112.851019 Z" id="Fill-1" fill="#0081C6" mask="url(#mask-2)"></path>
                <path d="M93.59668,101.863298 L66.3847425,65.7788769 C65.7269629,64.9071979 64.4988973,64.7421359 63.6371573,65.4108411 C62.7800071,66.0795464 62.6173551,67.3280101 63.2751347,68.2017305 L88.5048406,101.654783 L79.9706308,103.101554 C79.2554783,103.223455 78.6616695,103.737305 78.4353336,104.435465 L75.6797162,112.834672 L53.5094169,83.6286122 C52.8473343,82.7604327 51.6212768,82.5974121 50.7595367,83.2684504 C49.9058289,83.9418217 49.7477667,85.1914519 50.4078412,86.0616728 L74.8237134,118.226308 C75.1992186,118.719745 75.7752419,119 76.3745012,119 C76.4843702,119 76.5942392,118.991834 76.7018133,118.972587 C77.4166788,118.848353 78.0038899,118.336836 78.2336681,117.640717 L81.7755803,106.830031 L92.3628771,105.038262 C93.0418846,104.923069 93.6121707,104.455004 93.8643243,103.80438 C94.1153305,103.155214 94.0134937,102.419142 93.59668,101.863298 Z" id="Fill-3" fill="#0081C6" mask="url(#mask-2)"></path>
            </g>
        </g>
    </g>
</svg>