<?xml version="1.0" encoding="UTF-8"?>
<svg width="92px" height="102px" viewBox="0 0 92 102" version="1.1" xmlns="http://www.w3.org/2000/svg" xmlns:xlink="http://www.w3.org/1999/xlink">
    <!-- Generator: Sketch 46.2 (44496) - http://www.bohemiancoding.com/sketch -->
    <title>School year</title>
    <desc>Created with Sketch.</desc>
    <defs></defs>
    <g id="Mockups" stroke="none" stroke-width="1" fill="none" fill-rule="evenodd">
        <g id="Club-Page" transform="translate(-373.000000, -663.000000)">
            <g id="School-year" transform="translate(373.000000, 663.000000)">
                <polygon id="Fill-1" fill="#FF8200" points="31.5 63 25 58.5563688 25 46 38 46 38 58.5563688"></polygon>
                <polygon id="Fill-2" fill="#FF8200" points="60.5 63 54 58.5563688 54 46 67 46 67 58.5563688"></polygon>
                <polygon id="Fill-3" fill="#424242" points="25 56 38 56 38 53 25 53"></polygon>
                <polygon id="Fill-4" fill="#424242" points="54 56 67 56 67 53 54 53"></polygon>
                <path d="M92,69.0955855 C92,66.3738774 89.7889333,64.1601865 87.0714286,64.1601865 L82.1428571,64.1601865 L82.1428571,45.9917765 L80.6366857,11.3014056 C80.5205905,8.65383821 78.3572762,6.58053195 75.711619,6.58053195 L59.1428571,6.58053195 L59.1428571,4.93539896 C59.1428571,2.21369095 56.9317905,0 54.2142857,0 L37.7857143,0 C35.0682095,0 32.8571429,2.21369095 32.8571429,4.93539896 L32.8571429,6.58053195 L16.288381,6.58053195 C13.6427238,6.58053195 11.4811619,8.65559302 11.3646286,11.3014056 L9.85714286,46.0637236 L9.85714286,64.1601865 L4.92857143,64.1601865 C2.21106667,64.1601865 0,66.3738774 0,69.0955855 L0,97.064601 L10.5537143,97.064601 C11.8250667,99.9639834 14.7121143,102 18.0714286,102 L73.9285714,102 C77.2878857,102 80.1749333,99.9639834 81.4462857,97.064601 L92,97.064601 L92,69.0955855 Z M87.0714286,67.4504525 C87.9765333,67.4504525 88.7142857,68.1887881 88.7142857,69.0955855 L88.7142857,75.6761174 L82.1428571,75.6761174 L82.1428571,67.4504525 L87.0714286,67.4504525 Z M59.1428571,21.3867288 L54.2142857,21.3867288 L54.2142857,24.6769948 L59.1428571,24.6769948 L59.1428571,31.2575268 L32.8571429,31.2575268 L32.8571429,24.6769948 L50.9285714,24.6769948 L50.9285714,21.3867288 L32.8571429,21.3867288 L32.8571429,9.87079792 L59.1428571,9.87079792 L59.1428571,21.3867288 Z M36.1428571,4.93539896 C36.1428571,4.02860166 36.8806095,3.29026597 37.7857143,3.29026597 L54.2142857,3.29026597 C55.1193905,3.29026597 55.8571429,4.02860166 55.8571429,4.93539896 L55.8571429,6.58053195 L36.1428571,6.58053195 L36.1428571,4.93539896 Z M16.288381,9.87079792 L29.5714286,9.87079792 L29.5714286,31.2575268 C29.5714286,33.0719988 31.0447429,34.5477927 32.8571429,34.5477927 L59.1428571,34.5477927 C60.9552571,34.5477927 62.4285714,33.0719988 62.4285714,31.2575268 L62.4285714,9.87079792 L75.711619,9.87079792 C76.5689714,9.87079792 77.2602857,10.5270963 77.3356381,11.3733527 L73.8838857,36.1398428 C73.0935619,41.7982228 68.1974095,46.0637236 62.4920952,46.0637236 L29.5079048,46.0637236 C23.8043429,46.0637236 18.9064381,41.7982228 18.1174286,36.1398428 L14.6661143,11.3733527 C14.7397143,10.5270963 15.4310286,9.87079792 16.288381,9.87079792 Z M4.92857143,67.4504525 L9.85714286,67.4504525 L9.85714286,75.6761174 L3.28571429,75.6761174 L3.28571429,69.0955855 C3.28571429,68.1887881 4.02346667,67.4504525 4.92857143,67.4504525 Z M3.28571429,93.7725803 L9.85714286,93.7725803 L9.85714286,78.9663834 L3.28571429,78.9663834 L3.28571429,93.7725803 Z M41.0714286,98.7079792 L19.7142857,98.7079792 L19.7142857,86.2769157 C20.6846667,86.8424027 21.7969905,87.1920483 23,87.1920483 L37.7857143,87.1920483 C38.9887238,87.1920483 40.1010476,86.8424027 41.0714286,86.2769157 L41.0714286,98.7079792 Z M41.0714286,78.9663834 L41.0714286,80.6115164 C41.0714286,82.4259884 39.5981143,83.9017823 37.7857143,83.9017823 L23,83.9017823 C21.1876,83.9017823 19.7142857,82.4259884 19.7142857,80.6115164 L19.7142857,67.4504525 L41.0714286,67.4504525 L41.0714286,78.9663834 Z M72.2857143,78.9663834 L72.2857143,80.6115164 C72.2857143,82.4259884 70.8124,83.9017823 69,83.9017823 L54.2142857,83.9017823 C52.4018857,83.9017823 50.9285714,82.4259884 50.9285714,80.6115164 L50.9285714,67.4504525 L72.2857143,67.4504525 L72.2857143,78.9663834 Z M50.9285714,86.2769157 C51.8989524,86.8424027 53.0112762,87.1920483 54.2142857,87.1920483 L69,87.1920483 C70.2030095,87.1920483 71.3153333,86.8424027 72.2857143,86.2769157 L72.2857143,98.7079792 L50.9285714,98.7079792 L50.9285714,86.2769157 Z M75.5714286,98.4043973 L75.5714286,67.4504525 C75.5714286,65.6355418 74.0981143,64.1601865 72.2857143,64.1601865 L50.9285714,64.1601865 C49.1161714,64.1601865 47.6428571,65.6355418 47.6428571,67.4504525 L47.6428571,98.7079792 L44.3571429,98.7079792 L44.3571429,67.4504525 C44.3571429,65.6355418 42.8838286,64.1601865 41.0714286,64.1601865 L19.7142857,64.1601865 C17.9018857,64.1601865 16.4285714,65.6355418 16.4285714,67.4504525 L16.4285714,98.4043973 C14.5206667,97.7239703 13.1428571,95.9143241 13.1428571,93.7725803 L13.1428571,46.133916 L13.8665905,29.4391064 L14.8645714,36.5938995 C15.8774476,43.8684582 22.1733143,49.3539896 29.5065905,49.3539896 L62.4920952,49.3539896 C69.8266857,49.3539896 76.1225524,43.8684582 77.137181,36.5938995 L78.1334095,29.433842 L78.8571429,46.0637236 L78.8571429,93.7725803 C78.8571429,95.9143241 77.4793333,97.7239703 75.5714286,98.4043973 Z M82.1428571,93.7725803 L88.7142857,93.7725803 L88.7142857,78.9663834 L82.1428571,78.9663834 L82.1428571,93.7725803 Z" id="Fill-5" fill="#252B33"></path>
            </g>
        </g>
    </g>
</svg>