<?xml version="1.0" encoding="UTF-8"?>
<svg width="139px" height="80px" viewBox="0 0 139 80" version="1.1" xmlns="http://www.w3.org/2000/svg" xmlns:xlink="http://www.w3.org/1999/xlink">
    <!-- Generator: Sketch 46.2 (44496) - http://www.bohemiancoding.com/sketch -->
    <title>Sports</title>
    <desc>Created with Sketch.</desc>
    <defs>
        <polygon id="path-1" points="0.00923976608 79 0.00923976608 0.0183613281 78.8461579 0.0183613281 78.8461579 79"></polygon>
    </defs>
    <g id="Mockups" stroke="none" stroke-width="1" fill="none" fill-rule="evenodd">
        <g id="Club-Page" transform="translate(-981.000000, -685.000000)">
            <g id="Sports" transform="translate(981.000000, 665.000000)">
                <polygon id="Polygon" fill="#FF8200" transform="translate(40.000000, 60.000000) rotate(265.000000) translate(-40.000000, -60.000000) " points="40 44 54 52 54 68 40 76 26 68 26 52"></polygon>
                <g>
                    <g id="speed-streaks" transform="translate(107.500000, 25.500000) rotate(-30.000000) translate(-107.500000, -25.500000) translate(80.000000, 12.000000)" stroke-linecap="square" stroke-width="3" stroke="#252B33">
                        <g id="Group-5">
                            <path d="M0.5,25.5 L54.5370243,25.5" id="Line-4"></path>
                            <path d="M0.5,13.5 L22.5,13.5" id="Line-5"></path>
                            <path d="M28.5,13.5 L32.6231056,13.5" id="Line-6"></path>
                            <path d="M0.5,1.5 L12.5,1.5" id="Line-7"></path>
                        </g>
                    </g>
                    <g id="football" transform="translate(0.000000, 21.000000)">
                        <path d="M9.88465394,25.8185824 C10.1262423,25.9416757 10.3842318,26 10.6387771,26 C11.2315133,26 11.8037481,25.6834054 12.0956879,25.1309357 C13.3218351,22.8105306 14.8346737,20.638192 16.5918889,18.6744997 C17.1897095,18.006187 17.1229569,16.9884117 16.4428028,16.4009797 C15.7626487,15.8137087 14.7264264,15.8791222 14.1284418,16.5472738 C12.1963907,18.7065619 10.5329899,21.0949583 9.18465446,23.6464049 C8.76757417,24.4361997 9.08083542,25.4087011 9.88465394,25.8185824" id="Fill-1" fill="#0A090B"></path>
                        <path d="M10.9063202,29.0066618 C10.9072174,29.0042715 10.9128996,28.9884354 10.9137967,28.9860451 C11.1893802,28.210079 10.7822105,27.3640459 10.006001,27.0867658 C9.23024021,26.8097844 8.3734342,27.2183842 8.09366386,27.9931551 C8.09276668,27.9955454 8.08708454,28.0113815 8.08618736,28.0137718 C7.81060386,28.7897379 8.21792316,29.6356216 8.99398305,29.9130512 C9.15891447,29.9720628 9.32758414,30 9.49356226,30 C10.1081299,30 10.6862123,29.6166483 10.9063202,29.0066618" id="Fill-2" fill="#0A090B"></path>
                        <path d="M40.4936142,70.3523875 C38.2099725,70.4952359 35.9092634,70.3834415 33.6549606,70.0197215 C32.8880575,69.8961524 32.1565587,70.366103 32.0215714,71.0697349 C31.886584,71.7734963 32.3991692,72.4443921 33.1662133,72.5680906 C34.948413,72.8555989 36.7568485,73 38.5659893,73 C39.2729449,73 39.9801827,72.9780034 40.6855868,72.9337515 C41.4627867,72.8851002 42.0497066,72.2677725 41.9966708,71.5549537 C41.943494,70.8420056 41.270532,70.3023129 40.4936142,70.3523875" id="Fill-3" fill="#0A090B"></path>
                        <g id="Group-7">
                            <mask id="mask-2" fill="white">
                                <use xlink:href="#path-1"></use>
                            </mask>
                            <g id="Clip-5"></g>
                            <path d="M45.5786881,69.8819805 L45.5270994,69.8924727 C44.6950585,70.0683711 44.1630019,70.8867617 44.3382495,71.720582 C44.4911676,72.4468574 45.1308674,72.9452363 45.8432534,72.9452363 C45.9485867,72.9452363 46.05546,72.9342813 46.1626413,72.9117539 L46.1689552,72.9105195 C47.00346,72.7471191 47.5479903,71.9369063 47.3849084,71.1006172 C47.2222885,70.2643281 46.413809,69.7184258 45.5786881,69.8819805" id="Fill-4" fill="#0A090B" mask="url(#mask-2)"></path>
                            <path d="M53.5696998,73.0702168 L56.1657661,68.5649023 L61.3603626,68.5649023 C58.9644912,70.3856055 56.3490214,71.8995664 53.5696998,73.0702168 Z M17.5430819,68.5649023 L22.6803918,68.5649023 L25.2495088,73.0236191 C24.6007232,72.7468105 23.9571735,72.4505605 23.3190136,72.134252 C21.249922,71.1089492 19.3226608,69.909291 17.5430819,68.5649023 Z M25.2761501,5.94814453 L22.6802378,10.4533047 L17.4856413,10.4533047 C19.8815127,8.63260156 22.4969825,7.11879492 25.2761501,5.94814453 Z M61.3135478,10.4533047 L56.1654581,10.4531504 L53.5963411,5.99458789 C54.2449727,6.27139648 54.8886764,6.56780078 55.5266823,6.88395508 C57.5845322,7.90370313 59.5174912,9.10089258 61.3135478,10.4533047 Z M32.3850721,27.2954258 L46.4609318,27.2954258 L53.4987076,39.5092578 L46.4607778,51.7230898 L32.3850721,51.7230898 L25.3472963,39.5091035 L32.3850721,27.2954258 Z M75.4893509,43.9886504 L72.9083762,39.5092578 L75.483807,35.0392773 C75.8583255,38.0222988 75.8586335,41.0242988 75.4893509,43.9886504 Z M56.1657661,13.5387793 L64.8879513,13.5389336 C67.8149552,16.4187305 70.2143684,19.7561719 72.009501,23.416248 C72.0196647,23.4369238 72.0299825,23.457291 72.0401462,23.4779668 C72.1097524,23.6206914 72.1778187,23.7641875 72.245731,23.9078379 C72.2951637,24.0127598 72.3439805,24.1179902 72.3924893,24.223375 C72.4451559,24.337709 72.4981306,24.4518887 72.5497193,24.5668398 C72.6459669,24.7819297 72.7402125,24.9984082 72.8326101,25.2159668 C72.8672593,25.2975898 72.9009844,25.3796758 72.9350175,25.4614531 C73.0100136,25.6424434 73.0840858,25.8238965 73.1566179,26.0064297 C73.1832593,26.0737031 73.2105166,26.1408223 73.2368499,26.2080957 C73.3303255,26.4475645 73.4214912,26.6881133 73.510193,26.9302051 C73.5352943,26.99825 73.5593177,27.0670664 73.5839571,27.1354199 C73.6490975,27.3161016 73.7126979,27.497709 73.7750663,27.6797793 C73.8069435,27.7731289 73.8392827,27.8663242 73.8703899,27.9598281 C73.9329123,28.1468359 73.9931248,28.3341523 74.0525673,28.5217773 C74.1117018,28.7094023 74.1692963,28.8976445 74.2255049,29.0865039 C74.2442924,29.1488398 74.2629259,29.2113301 74.2812515,29.2738203 C74.3915127,29.6507676 74.496384,30.0300293 74.5947875,30.4117598 L70.2414717,37.9669062 L56.1656121,37.9665977 L49.1278363,25.7529199 L56.1657661,13.5387793 Z M25.3472963,11.9959648 L29.6998421,4.44251562 C32.8820175,3.55546289 36.1599786,3.10630469 39.4531852,3.10630469 C39.6019454,3.10630469 39.7505517,3.10831055 39.8991579,3.11000781 C39.9833938,3.11093359 40.0677836,3.11185938 40.1521735,3.11340234 C43.1934425,3.17234375 46.2113041,3.61533008 49.1412339,4.4337207 L53.4988616,11.9959648 L46.4609318,24.2097969 L32.3852261,24.2096426 L25.3472963,11.9959648 Z M4.52055556,29.4065156 C4.53580117,29.3540547 4.55227875,29.3020566 4.56767836,29.2495957 C4.63651462,29.015373 4.70658285,28.7811504 4.78034698,28.5476992 C4.82654581,28.4017344 4.87582456,28.2566953 4.92387135,28.1113477 C4.97068616,27.9693945 5.01611501,27.8271328 5.06477778,27.685334 C5.14947563,27.4392305 5.2378694,27.194207 5.32764912,26.9499551 C5.34381871,26.906752 5.35814035,26.8630859 5.37430994,26.8198828 C5.8105809,25.647998 6.30706433,24.4969434 6.86145029,23.3739707 C6.96832359,23.1576465 7.07750682,22.9427109 7.18823002,22.7288555 C7.21795127,22.6716113 7.2484425,22.6149844 7.27831774,22.5578945 C7.36147563,22.3994316 7.44524951,22.2414316 7.53056335,22.0843574 C7.56398051,22.022793 7.59785965,21.9616914 7.63173879,21.9002812 C7.71920858,21.7413555 7.80760234,21.5830469 7.89722807,21.4256641 C7.92525536,21.3765977 7.95312865,21.3275312 7.98115595,21.2786191 C8.09126316,21.0874453 8.20260234,20.8971973 8.31609747,20.7083379 C8.3225653,20.6975371 8.32903314,20.6864277 8.33565497,20.675627 C9.90764717,18.062918 11.7902495,15.6723965 13.9578986,13.5389336 L22.6805458,13.5389336 L29.7181676,25.7527656 L22.6803918,37.9664434 L8.60453216,37.9662891 L4.24844444,30.4069766 C4.33452827,30.0727695 4.42430799,29.7391797 4.52055556,29.4065156 Z M3.37005068,35.053627 L5.93747368,39.5092578 L3.38098441,43.9457559 C3.01724561,41.0172012 3.00631189,38.0314023 3.37005068,35.053627 Z M22.6802378,65.479582 L13.9709883,65.4794277 C9.21466472,60.7929688 5.89589474,54.9207383 4.26245809,48.587623 L8.60484016,41.051918 L22.6806998,41.0520723 L29.7184756,53.2659043 L22.6802378,65.479582 Z M53.4987076,67.0223965 L49.1461618,74.5758457 C45.9638324,75.4628984 42.6858713,75.9120566 39.3923567,75.9120566 C39.2394386,75.9120566 39.0866745,75.9100508 38.9337563,75.9081992 C38.8558343,75.9072734 38.7777583,75.9063477 38.6998363,75.904959 C35.6564113,75.8466348 32.6365478,75.4038027 29.704616,74.5846406 L25.3471423,67.0222422 L32.3849181,54.8085645 L46.4607778,54.8085645 L53.4987076,67.0223965 Z M71.6597758,56.2853398 C71.6271287,56.3486016 71.5934035,56.4110918 71.5604483,56.4740449 C71.4805244,56.6261816 71.3999844,56.7780098 71.3182125,56.9287578 C71.2824854,56.9946426 71.2462963,57.0600645 71.2101072,57.1254863 C71.1251014,57.2797832 71.0393255,57.4334629 70.9523177,57.5862168 C70.9222885,57.6391406 70.8921053,57.6919102 70.861768,57.7445254 C70.7550487,57.9299902 70.6467895,58.1145293 70.5369903,58.297834 C70.5272885,58.3140352 70.5174327,58.3306992 70.507577,58.3470547 C68.9363548,60.9577578 67.0546764,63.3468906 64.8884133,65.4791191 L56.1657661,65.4791191 L49.1279903,53.2652871 L56.1659201,41.0516094 L70.2416257,41.0517637 L74.5998694,48.6152422 C74.0582651,50.7062734 73.3269376,52.7551816 72.4208246,54.7266328 C72.4094288,54.751166 72.3989571,54.7760078 72.3875614,54.800541 C72.2568187,55.0833672 72.1225341,55.3644961 71.9845536,55.644082 C71.8781423,55.8594805 71.769729,56.0730273 71.6597758,56.2853398 Z M72.3045575,61.2723691 C72.3136433,61.2586367 72.3224211,61.24475 72.3315068,61.2310176 C72.6692203,60.7159746 72.99523,60.192291 73.3095361,59.6601211 C73.352193,59.5880645 73.3956199,59.5161621 73.4378148,59.4436426 C73.509115,59.3211309 73.5791832,59.1978477 73.6494055,59.0744102 C73.7140838,58.9605391 73.7786082,58.8463594 73.8423626,58.7317168 C73.9019591,58.6243262 73.9610936,58.516627 74.0199201,58.4086191 C74.0969181,58.2671289 74.1728382,58.1247129 74.2479883,57.9819883 C74.2946491,57.8937305 74.3416179,57.805627 74.3876628,57.7170605 C74.5036218,57.4931758 74.6181949,57.2682109 74.7301501,57.0418574 C74.735078,57.0319824 74.7401598,57.0222617 74.7450877,57.0123867 C74.7509396,57.0006602 74.7561754,56.988625 74.7620273,56.9768984 C74.9124815,56.6715449 75.0583158,56.3646484 75.2004542,56.0566719 C75.2344873,55.9827637 75.2668265,55.9082383 75.3003977,55.8341758 C75.4165107,55.5783516 75.5307758,55.3217559 75.641345,55.0640801 C75.6679864,55.0017441 75.6937037,54.9389453 75.720191,54.8763008 C75.839076,54.5956348 75.9545731,54.3141973 76.0666823,54.031834 C76.0805419,53.9968086 76.0942476,53.9614746 76.1081072,53.9262949 C79.3278577,45.7417715 79.7228577,36.815543 77.2142612,28.3304492 C77.1913158,28.2522207 77.1680624,28.1741465 77.144501,28.0960723 C77.0958382,27.9352949 77.0468674,27.7743633 76.9962027,27.6138945 C76.9389162,27.4319785 76.8797817,27.250834 76.8198772,27.069998 C76.7967778,27.0002559 76.7755263,26.9303594 76.7519649,26.8606172 C76.7402612,26.8257461 76.7273255,26.7914922 76.7154678,26.7567754 C76.6332339,26.5146836 76.5485361,26.2736719 76.4616823,26.0334316 C76.431191,25.9491855 76.4000838,25.865248 76.3689766,25.7811563 C76.2925945,25.5743984 76.2145185,25.3684121 76.1347485,25.163043 C76.1056433,25.0879004 76.077,25.0124492 76.0474327,24.9376152 C75.9442554,24.6765449 75.838768,24.416709 75.7302008,24.1581074 C75.6932417,24.0698496 75.6547427,23.9825176 75.6171676,23.8945684 C75.5455595,23.7276191 75.4733353,23.5611328 75.3997251,23.395418 C75.3413606,23.2638027 75.2822261,23.1328047 75.2224756,23.0021152 C75.1742749,22.8968848 75.1253041,22.7921172 75.0761793,22.6873496 C71.3060468,14.6254922 64.9741891,8.12311328 56.8920117,4.11818359 C51.8296979,1.6097793 46.4461481,0.24440625 40.8699493,0.0462890625 C40.8693333,0.0462890625 40.8687173,0.0462890625 40.8679474,0.0462890625 C40.6631326,0.0390371094 40.4578558,0.0336367188 40.2527329,0.029625 C40.1457057,0.0274648437 40.0385244,0.0263847656 39.9313431,0.0251503906 C39.7714951,0.0231445312 39.6119552,0.0183613281 39.4516452,0.0183613281 C32.2112105,0.0183613281 25.1084483,2.0146543 18.9113372,5.7915332 C16.5219337,7.24778711 14.3080858,8.9469043 12.2993606,10.8566367 C12.2915068,10.8638887 12.282883,10.8702148 12.2751832,10.8776211 C12.1193392,11.0259004 11.9661131,11.1766484 11.8128869,11.3273965 C11.809345,11.330791 11.8058031,11.3341855 11.8024152,11.3375801 C11.651037,11.4866309 11.5013528,11.6372246 11.3525926,11.7885898 C11.3316491,11.8100371 11.3105517,11.8311758 11.2896082,11.852623 C9.67803899,13.4981992 8.21877193,15.2783223 6.92089279,17.1800313 C6.9205848,17.1804941 6.92012281,17.1811113 6.91981481,17.1817285 C6.79292203,17.367502 6.6675692,17.5546641 6.54391033,17.742752 C6.53251462,17.7600332 6.5214269,17.7774688 6.51003119,17.79475 C6.17632164,18.3036211 5.85416179,18.8211328 5.54339766,19.3468223 C5.49796881,19.4236621 5.45192398,19.5000391 5.40680312,19.5773418 C5.33673489,19.6975391 5.26820663,19.8186621 5.19937037,19.9397852 C5.13315205,20.0559707 5.06739571,20.1724648 5.00240936,20.2894219 C4.94358285,20.3954238 4.88521832,20.5015801 4.82731579,20.6080449 C4.74939376,20.7512324 4.6727037,20.8953457 4.59647563,21.0397676 C4.5505848,21.126791 4.50423197,21.2133516 4.45895712,21.3006836 C4.34269006,21.5250313 4.22796296,21.750459 4.11569981,21.9772754 C4.11077193,21.9869961 4.10569006,21.9967168 4.10091618,22.0064375 C4.09506433,22.0184727 4.08967446,22.0305078 4.08382261,22.042543 C3.93383041,22.3474336 3.7881501,22.6538672 3.64616569,22.9612266 C3.61136257,23.0366777 3.57840741,23.1129004 3.54406628,23.1886602 C3.4285692,23.4426328 3.31522807,23.6972227 3.20542885,23.9530469 C3.17801754,24.0170801 3.15168421,24.0812676 3.12473489,24.1454551 C3.00661988,24.4245781 2.8915848,24.7043184 2.78039961,24.9851387 C2.76607797,25.0213984 2.75191033,25.0576582 2.73774269,25.093918 C-0.481237817,33.276127 -0.876545809,42.2001953 1.63066472,50.6834375 C1.65453411,50.7645977 1.6785575,50.8454492 1.70288889,50.9263008 C1.75078168,51.084918 1.79913645,51.2433809 1.84918519,51.4016895 C1.90831969,51.5897773 1.96945614,51.7769395 2.03136257,51.9639473 C2.05276803,52.0284434 2.07247953,52.093248 2.09419298,52.1577441 C2.10435673,52.1879863 2.11559844,52.2177656 2.12591618,52.2478535 C2.21015205,52.4961172 2.29715984,52.7431465 2.38616959,52.98925 C2.41542885,53.069793 2.4449961,53.1500273 2.47471735,53.230416 C2.55294737,53.4422656 2.63287135,53.653498 2.71464327,53.8638047 C2.74220858,53.9347813 2.76915789,54.0059121 2.79718519,54.0765801 C2.90113255,54.3402734 3.00769786,54.6027324 3.11734308,54.8638027 C3.15183821,54.9461973 3.18787329,55.0278203 3.2231384,55.1099063 C3.29721053,55.2830273 3.37220663,55.4558398 3.44874269,55.6278809 C3.50556725,55.755793 3.56316179,55.8830879 3.62121832,56.0102285 C3.67188304,56.1210137 3.72362573,56.2313359 3.77521442,56.3415039 C7.54565497,64.3982695 13.8755107,70.8966367 21.9538382,74.8998691 C27.2060292,77.5025488 32.8042495,78.8744023 38.6043587,78.9887363 C38.6979883,78.9905879 38.7917719,78.9915137 38.8855556,78.992748 C39.0551053,78.9949082 39.224039,79 39.3940507,79 C46.6346394,79 53.7374016,77.003707 59.9345127,73.2266738 C62.3242242,71.7702656 64.5380721,70.0709941 66.5474133,68.1607988 C66.5549591,68.1538555 66.5632749,68.1476836 66.5708207,68.1404316 C66.7218908,67.9964727 66.8704971,67.8501992 67.0192573,67.7039258 C67.0281891,67.6952852 67.0371209,67.6867988 67.0458986,67.6780039 C67.1951209,67.5311133 67.3426491,67.3826797 67.4894074,67.2334746 C67.5126608,67.2098672 67.5359142,67.1862598 67.5590136,67.1626523 C69.3285828,65.3558359 70.9144347,63.3865449 72.3045575,61.2723691 L72.3045575,61.2723691 Z" id="Fill-6" fill="#252B33" mask="url(#mask-2)"></path>
                        </g>
                    </g>
                </g>
            </g>
        </g>
    </g>
</svg>