<?xml version="1.0" encoding="UTF-8"?>
<svg width="108px" height="109px" viewBox="0 0 108 109" version="1.1" xmlns="http://www.w3.org/2000/svg" xmlns:xlink="http://www.w3.org/1999/xlink">
    <!-- Generator: Sketch 46.2 (44496) - http://www.bohemiancoding.com/sketch -->
    <title>Summer</title>
    <desc>Created with Sketch.</desc>
    <defs>
        <polygon id="path-1" points="0.0235897436 0.196434783 0.0235897436 89.7073043 45.7051282 89.7073043 45.7051282 0.196434783"></polygon>
        <polygon id="path-3" points="0.0159493671 0.196177215 0.0159493671 62.9997342 62.8006329 62.9997342 62.8006329 0.196177215"></polygon>
    </defs>
    <g id="Mockups" stroke="none" stroke-width="1" fill="none" fill-rule="evenodd">
        <g id="Club-Page" transform="translate(-657.000000, -653.000000)">
            <g id="Summer" transform="translate(657.000000, 653.000000)">
                <g id="tent" transform="translate(18.000000, 16.000000)">
                    <g id="Group-4" transform="translate(0.000000, 2.000000)">
                        <mask id="mask-2" fill="white">
                            <use xlink:href="#path-1"></use>
                        </mask>
                        <g id="Clip-2"></g>
                        <polygon id="Fill-1" fill="#FF8200" mask="url(#mask-2)" points="45.7051282 89.7073043 35.3846154 89.7073043 45.7051282 39.816"></polygon>
                    </g>
                    <path d="M82.6574608,38.5852524 L89.9984339,38.5852524 L81.9233635,22.4063263 L87.0620447,22.4063263 L75.8779254,0 L64.6938061,22.407895 L69.8324872,22.407895 L61.7574169,38.5852524 L69.0983899,38.5852524 L61.7574169,53.2919409 L71.3601927,53.2919409 L70.24828,68.333942 L45.0458385,36.2043376 L11.6978532,78.7176484 L6.04080151,83.2520147 L5.34781365,80.8299211 L2.52339873,81.6374163 L4.92575664,90.0586623 L1,90.0586623 L1,93 L89.0916769,93 L89.0916769,90.0586623 L85.1659203,90.0586623 L87.5682782,81.6374163 L84.7438633,80.8299211 L84.0508754,83.2520147 L83.1957989,82.5657025 L83.2110681,82.5641338 L80.4293287,53.2919409 L90,53.2919409 L82.6574608,38.5852524 Z M43.5776439,53.0880082 L43.5776439,90.0570936 L35.1415933,90.0570936 L43.5776439,53.0880082 Z M32.624129,87.8907003 C31.411596,84.6936623 28.6615696,82.2441163 25.2725849,81.4825059 L41.5069022,48.9595466 L32.624129,87.8907003 Z M7.98155904,90.0586623 L6.91545399,86.3188494 L11.2773623,82.8229715 L11.2773623,90.0586623 L7.98155904,90.0586623 Z M14.2137515,80.2722435 L37.264407,50.8851423 L20.6464015,84.1759869 L23.0229192,84.1759869 C26.5665538,84.1759869 29.5319154,86.7067138 30.2155068,90.0586623 L14.2137515,90.0586623 L14.2137515,80.2722435 Z M46.5140331,90.0586623 L46.5140331,42.8360737 L75.8779254,80.2722435 L75.8779254,90.0586623 L46.5140331,90.0586623 Z M82.1101179,90.0586623 L78.8143146,90.0586623 L78.8143146,82.8229715 L83.177789,86.3188494 L82.1101179,90.0586623 Z M80.0209748,80.022818 L78.3938237,78.718825 L72.938404,71.7655026 L74.5228796,50.3506032 L66.5073201,50.3506032 L73.8498592,35.6439147 L66.5073201,35.6439147 L74.5823905,19.4665573 L69.4437093,19.4665573 L75.8779254,6.57643894 L82.3121415,19.4665573 L77.1734603,19.4665573 L85.2485307,35.6439147 L77.9075576,35.6439147 L85.2485307,50.3506032 L77.1993005,50.3506032 L80.0209748,80.022818 Z" id="Fill-5" fill="#252B33"></path>
                </g>
                <g id="sun">
                    <g id="Group-4">
                        <mask id="mask-4" fill="white">
                            <use xlink:href="#path-3"></use>
                        </mask>
                        <g id="Clip-2"></g>
                        <path d="M52.3256203,31.5964937 C52.3256203,43.1523418 42.9574937,52.5215316 31.4003165,52.5215316 C19.8442025,52.5215316 10.4750127,43.1523418 10.4750127,31.5964937 C10.4750127,20.0393165 19.8442025,10.6711899 31.4003165,10.6711899 C42.9574937,10.6711899 52.3256203,20.0393165 52.3256203,31.5964937 Z" id="Fill-1" fill="#FF8200" mask="url(#mask-4)"></path>
                        <path d="M58.3045063,31.5964937 C58.3045063,30.261 60.5318354,26.4397975 62.1132152,24.1523924 L62.8006329,23.1576835 L61.6926835,22.672557 C58.9741139,21.4848608 54.8477468,19.2918228 54.1853165,18.1442658 C53.5332532,17.0134557 53.8634051,12.6015949 54.3057342,9.83225316 L54.4936709,8.65572152 L53.3035823,8.67751899 C50.7035696,8.72324051 46.0963291,8.53211392 44.8522785,7.81465823 C43.6209873,7.10331646 41.4040253,3.40970886 40.2971392,1.24803797 L39.7779873,0.235518987 L38.8433544,0.882531646 C36.5578101,2.46497468 32.7366076,4.6923038 31.4013797,4.6923038 C30.0650886,4.6923038 26.2446835,2.46497468 23.9572785,0.883594937 L22.9615063,0.196177215 L22.4777089,1.30412658 C21.2876203,4.02349367 19.0956456,8.14986076 17.9491519,8.81255696 C16.8175443,9.46674684 12.4261519,9.15732911 9.67036709,8.72935443 L8.32344304,8.52068354 L8.53237975,9.86734177 C8.9611519,12.6223291 9.26950633,17.0134557 8.61531646,18.1463924 C7.95394937,19.2926203 3.82651899,21.4848608 1.10794937,22.6746835 L0,23.1606076 L0.687417722,24.154519 C2.26879747,26.4408608 4.49612658,30.261 4.49612658,31.5983544 C4.49612658,32.9338481 2.26879747,36.7550506 0.687417722,39.0405949 L0,40.0353038 L1.10688608,40.5201646 C3.82651899,41.7110506 7.95394937,43.9030253 8.61531646,45.049519 C9.26844304,46.1824557 8.9611519,50.572519 8.53237975,53.3285696 L8.32344304,54.6773544 L9.67143038,54.4676203 C12.4250886,54.037519 16.8154177,53.7273038 17.9491519,54.3833544 C19.0956456,55.0457848 21.2886835,59.1724177 22.4777089,61.8917848 L22.9615063,62.9997342 L23.9572785,62.3123165 C26.2446835,60.7309367 30.0650886,58.5036076 31.4013797,58.5036076 C32.7366076,58.5036076 36.5578101,60.7309367 38.8433544,62.3123165 L39.8391266,62.9997342 L40.3229241,61.8917848 C41.5130127,59.1724177 43.7060506,55.0457848 44.8522785,54.3833544 C45.9841519,53.7291646 50.3962785,54.0603797 53.1656203,54.5037722 L54.5237089,54.7220127 L54.3057342,53.3625949 C53.8634051,50.5924557 53.5332532,46.1813924 54.1853165,45.049519 C54.8466835,43.9030253 58.9741139,41.7110506 61.6937468,40.5201646 L62.8006329,40.0353038 L62.1132152,39.0405949 C60.5318354,36.7529241 58.3045063,32.9317215 58.3045063,31.5964937 Z M57.1447215,28.718962 C56.8674684,26.2218228 56.2372025,23.8294177 55.2983165,21.5959747 C56.842481,22.5688861 58.6304051,23.4556709 59.8101266,24.0069873 C59.0541266,25.1646456 57.9161392,27.0099873 57.1447215,28.718962 Z M31.4003165,55.5109747 C18.2149747,55.5109747 7.48556962,44.7815696 7.48556962,31.5964937 C7.48556962,18.4100886 18.2149747,7.68174684 31.4003165,7.68174684 C44.5864557,7.68174684 55.3150633,18.4100886 55.3150633,31.5964937 C55.3150633,44.7815696 44.5864557,55.5109747 31.4003165,55.5109747 Z M51.8282658,15.6885949 C50.1812278,13.5806203 48.2207848,11.7291646 46.0102025,10.2142405 C48.0288608,10.5869241 50.6506709,10.6658734 52.1709114,10.6751772 C52.0037089,11.9474051 51.797962,13.9046582 51.8282658,15.6885949 Z M39.0498987,3.14601266 C39.7487468,4.41903797 41.0114051,6.58203797 42.2833671,8.09297468 C39.8016456,6.9393038 37.1093924,6.16575949 34.2786456,5.85102532 C36.0179241,5.06711392 37.8972911,3.90201266 39.0498987,3.14601266 Z M23.8129367,3.18668354 C24.9697975,3.94241772 26.8148734,5.08067089 28.5251772,5.85208861 C26.0267089,6.12934177 23.6353671,6.75960759 21.4019241,7.69822785 C22.3748354,6.15432911 23.2616203,4.36507595 23.8129367,3.18668354 Z M15.4820506,11.1778481 C13.8041772,12.4883544 12.2932405,14.0000886 10.9827342,15.6782278 C11.015962,13.9857342 10.840519,12.1393291 10.6858101,10.8798608 C11.944481,11.0356329 13.7906203,11.2110759 15.4820506,11.1778481 Z M2.99050633,24.0080506 C4.17022785,23.4567342 5.9581519,22.5699494 7.50231646,21.5967722 C6.56449367,23.8294177 5.93422785,26.2218228 5.65591139,28.7200253 C4.88555696,27.0099873 3.74756962,25.1646456 2.99050633,24.0080506 Z M5.65697468,34.4726962 C5.93422785,36.9708987 6.56449367,39.3622405 7.50337975,41.5959494 C5.96027848,40.6219747 4.17022785,39.7351899 2.99156962,39.1838734 C3.74756962,38.0270127 4.88555696,36.1819367 5.65697468,34.4726962 Z M10.6858101,52.3128608 C10.840519,51.0533924 11.0151646,49.2072532 10.9827342,47.515557 C12.2932405,49.1926329 13.8041772,50.7035696 15.4820506,52.0148734 C13.789557,51.9816456 11.944481,52.1570886 10.6858101,52.3128608 Z M23.8129367,60.0063038 C23.2616203,58.825519 22.3748354,57.0375949 21.4019241,55.4934304 C23.6343038,56.4309873 26.0267089,57.0623165 28.5251772,57.3406329 C26.8138101,58.1112532 24.9697975,59.2492405 23.8129367,60.0063038 Z M38.9887595,60.0063038 C37.8318987,59.2492405 35.9868228,58.1112532 34.276519,57.3406329 C36.7749873,57.0633797 39.1673924,56.4320506 41.3997722,55.4934304 C40.4268608,57.0375949 39.5400759,58.8265823 38.9887595,60.0063038 Z M47.3071519,52.0231139 C48.9935316,50.7064937 50.512443,49.1883797 51.8282658,47.5012025 C51.8000886,49.2061899 51.9848354,51.0709367 52.1480506,52.3421013 C50.8760886,52.1810127 49.0121392,51.9952025 47.3071519,52.0231139 Z M55.2983165,41.5959494 C56.2361392,39.3622405 56.8685316,36.9708987 57.1447215,34.4726962 C57.9161392,36.183 59.0541266,38.0270127 59.8111899,39.1838734 C58.6314684,39.7351899 56.842481,40.6219747 55.2983165,41.5959494 Z" id="Fill-3" fill="#252B33" mask="url(#mask-4)"></path>
                    </g>
                    <polygon id="Fill-5" fill="#252B33" points="12 42 15 42 15 39 12 39"></polygon>
                    <polygon id="Fill-6" fill="#252B33" points="14 44 17 44 17 41 14 41"></polygon>
                    <polygon id="Fill-7" fill="#252B33" points="18 48 21 48 21 45 18 45"></polygon>
                    <polygon id="Fill-8" fill="#252B33" points="22 52 25 52 25 49 22 49"></polygon>
                </g>
            </g>
        </g>
    </g>
</svg>