<?xml version="1.0" encoding="UTF-8"?>
<svg width="123px" height="123px" viewBox="0 0 123 123" version="1.1" xmlns="http://www.w3.org/2000/svg" xmlns:xlink="http://www.w3.org/1999/xlink">
    <!-- Generator: Sketch 46.2 (44496) - http://www.bohemiancoding.com/sketch -->
    <title>volunteer</title>
    <desc>Created with Sketch.</desc>
    <defs>
        <polygon id="path-1" points="0.0182926829 0.0842477876 0.0182926829 67.8679115 24.9746951 67.8679115 24.9746951 0.0842477876 0.0182926829 0.0842477876"></polygon>
    </defs>
    <g id="Mockups" stroke="none" stroke-width="1" fill="none" fill-rule="evenodd">
        <g id="Club-Page" transform="translate(-659.000000, -1554.000000)">
            <g id="volunteer" transform="translate(659.000000, 1554.000000)">
                <g id="Group-3" transform="translate(0.000000, 36.000000)">
                    <mask id="mask-2" fill="white">
                        <use xlink:href="#path-1"></use>
                    </mask>
                    <g id="Clip-2"></g>
                    <path d="M22.8945122,67.8679115 C23.4268293,67.8679115 23.9579268,67.6669204 24.3664634,67.2661416 C25.177439,66.4633805 25.177439,65.162354 24.3664634,64.362 L7.59939024,47.8226549 C7.45762195,47.7016991 4.16219512,44.8008673 4.16219512,39.1111327 L4.16219512,8.30081416 C4.16219512,6.03484956 6.02957317,4.19313274 8.32469512,4.19313274 C10.6207317,4.19313274 12.4881098,6.03484956 12.4881098,8.30081416 L12.4881098,24.5603363 C12.4881098,25.6970796 13.4182927,26.6147788 14.5685976,26.6147788 C15.7179878,26.6147788 16.6503049,25.6970796 16.6503049,24.5603363 L16.6503049,8.30081416 C16.6503049,3.7700885 12.9143293,0.0842477876 8.32469512,0.0842477876 C3.73353659,0.0842477876 0,3.7700885 0,8.30081416 L0,39.1111327 C0,46.781292 4.69939024,50.7845664 4.77195122,50.8339115 L21.422561,67.2661416 C21.8286585,67.6669204 22.3609756,67.8679115 22.8945122,67.8679115 Z" id="Fill-1" fill="#0081C6" mask="url(#mask-2)"></path>
                </g>
                <path d="M46.9995931,110 L15.0004069,110 C13.8938549,110 13,110.970945 13,112.166296 L13,120.834021 C13,122.029372 13.8938549,123 15.0004069,123 C16.1037362,123 16.9996419,122.029372 16.9996419,120.834021 L16.9996419,114.333545 L45.0003581,114.333545 L45.0003581,120.834021 C45.0003581,122.029372 45.89392,123 46.9995931,123 C48.1038013,123 49,122.029372 49,120.834021 L49,112.166296 C49,110.970945 48.1038013,110 46.9995931,110 Z" id="Fill-4" fill="#0081C6"></path>
                <path d="M13.0065601,74.0637244 C13.0917627,76.1318224 13.9980643,78.1234246 15.5577884,79.6693031 L25.9073338,89.9489579 C26.7138785,90.75367 28.0249685,90.75367 28.8339389,89.9489579 C29.6404836,89.1454505 29.6404836,87.844419 28.8339389,87.0421162 L18.482271,76.760052 C17.6602625,75.9460038 17.1863416,74.9283683 17.1426791,73.896578 C17.101139,72.8813518 17.4777287,71.9471389 18.2333337,71.1966364 C18.9868163,70.446134 19.9331419,70.0744967 20.951632,70.113347 C21.9904373,70.1567147 23.0149917,70.6295433 23.8370002,71.4460008 L38.421815,85.9278068 C38.5628087,86.0512843 41.8602425,89.0406452 41.8602425,94.6639925 L41.8602425,104.943647 C41.8602425,106.078737 42.7853432,107 43.9293632,107 C45.0724736,107 46,106.078737 46,104.943647 L46,94.6639925 C46,87.0972293 41.3450848,83.0019917 41.2538179,82.9303145 L26.7636053,68.5391591 C25.2072166,66.9908713 23.2008608,66.0897865 21.1211276,66.0063639 C18.9358766,65.9193273 16.8773683,66.7273522 15.3067286,68.2897947 C13.7336632,69.8510325 12.9177189,71.9025665 13.0065601,74.0637244 Z" id="Fill-5" fill="#0081C6"></path>
                <path d="M81.8516926,82.8289369 C81.655199,83.0018068 77,87.097076 77,94.6638975 L77,104.943632 C77,106.07873 77.9251571,107 79.0692469,107 C80.2124269,107 81.1397067,106.07873 81.1397067,104.943632 L81.1397067,94.6638975 C81.1397067,89.0405068 84.4352189,86.0511229 84.673255,85.8372943 L99.1619252,71.4457268 C99.9839839,70.629263 101.008601,70.1564308 102.049592,70.1130627 C103.090887,70.0787297 104.012405,70.4482616 104.76563,71.1963605 C105.481255,71.9083194 105.860293,72.7904376 105.860293,73.7505581 C105.860293,74.8338559 105.381795,75.9020953 104.514555,76.7622283 L94.1646819,87.0419624 C93.3577848,87.8442714 93.3577848,89.1453129 94.1646819,89.9488265 C94.9746113,90.7535448 96.2848715,90.7535448 97.0914654,89.9488265 L107.441642,79.6715018 C109.090308,78.0373695 109.998787,75.934019 110,73.7505581 C110,71.7071398 109.182793,69.7682265 107.692717,68.2894964 C106.120769,66.7270419 104.032418,65.9214201 101.879176,66.006048 C99.7968905,66.0894713 97.7937479,66.990563 96.2351417,68.5388627 L81.8516926,82.8289369 Z" id="Fill-6" fill="#0081C6"></path>
                <path d="M99,22.6474225 C99,10.1583766 88.8583113,0 76.390177,0 C67.6318291,0 59.583821,5.13633916 55.8833693,13.0895069 C55.4048911,14.1215398 55.8481384,15.3468904 56.8785677,15.8261132 C57.906588,16.3080502 59.1288301,15.8592878 59.6097172,14.8296676 C62.6386734,8.32200944 69.2244476,4.11727451 76.390177,4.11727451 C86.5905839,4.11727451 94.8891231,12.4287284 94.8891231,22.6474225 C94.8891231,34.7344521 82.6100916,53.9416643 62.0012045,65.5859632 C41.388704,53.9416643 29.1108769,34.7344521 29.1108769,22.6474225 C29.1108769,12.4287284 37.4094161,4.11727451 47.6110275,4.11727451 C50.1867996,4.11727451 52.6782584,4.63691002 55.0176521,5.66170483 C56.0586205,6.116499 57.271528,5.6430064 57.7256155,4.60162426 C58.1818108,3.55994054 57.706645,2.34665345 56.666881,1.88944659 C53.8050458,0.63604834 50.7562157,0 47.6110275,0 C35.1416887,0 25,10.1583766 25,22.6474225 C25,35.9408027 37.6211027,56.9680963 61.0165453,69.7490791 C61.3224822,69.9164602 61.6624456,70 62.0012045,70 C62.3399634,70 62.6775178,69.9164602 62.9855626,69.7490791 C86.3788973,56.9680963 99,35.9429138 99,22.6474225 Z" id="Fill-7" fill="#0081C6"></path>
                <path d="M114.665649,36 C110.07228,36 106.33252,39.6432278 106.33252,44.1215726 L106.33252,60.1931144 C106.33252,61.3155259 107.266086,62.2238049 108.41542,62.2238049 C109.56567,62.2238049 110.499237,61.3155259 110.499237,60.1931144 L110.499237,44.1215726 C110.499237,41.8818054 112.368507,40.0601915 114.665649,40.0601915 C116.964012,40.0601915 118.833282,41.8818054 118.833282,44.1215726 L118.833282,74.5756855 C118.833282,80.1996396 115.534822,83.0669342 115.277244,83.2920708 L98.608848,99.5346212 C97.7970507,100.325722 97.7970507,101.611707 98.608848,102.405187 C99.015357,102.801333 99.5494342,103 100.082291,103 C100.615147,103 101.149224,102.801333 101.555733,102.405187 L118.093204,86.2789228 C118.293407,86.1141596 123,82.1571682 123,74.5756855 L123,44.1215726 C123,39.6432278 119.262681,36 114.665649,36 Z" id="Fill-8" fill="#0081C6"></path>
                <path d="M107.999463,110 L75.9993652,110 C74.8936201,110 74,110.970945 74,112.166296 L74,120.834021 C74,122.029372 74.8936201,123 75.9993652,123 C77.1036453,123 77.9999023,122.029372 77.9999023,120.834021 L77.9999023,114.333545 L105.999805,114.333545 L105.999805,120.834021 C105.999805,122.029372 106.896062,123 107.999463,123 C109.103743,123 110,122.029372 110,120.834021 L110,112.166296 C110,110.970945 109.103743,110 107.999463,110 Z" id="Fill-9" fill="#0081C6"></path>
                <path d="M78.4139286,14.122532 C81.3975114,15.1813582 83.8133113,17.5968249 84.8742099,20.5864701 C85.1843905,21.455976 86.001998,22 86.8746726,22 C87.110497,22 87.3509881,21.9598977 87.5868125,21.8759625 C88.6915781,21.4839543 89.2686945,20.2693818 88.8776243,19.1667228 C87.3718327,14.9214701 84.0758915,11.625928 79.8344749,10.1213129 C78.7297092,9.73272435 77.5157426,10.3081463 77.1218723,11.4120488 C76.7320465,12.5171948 77.3079185,13.7289695 78.4139286,14.122532 Z" id="Fill-10" fill="#0081C6"></path>
            </g>
        </g>
    </g>
</svg>