<?xml version="1.0" encoding="UTF-8"?>
<svg width="171px" height="91px" viewBox="0 0 171 91" version="1.1" xmlns="http://www.w3.org/2000/svg" xmlns:xlink="http://www.w3.org/1999/xlink">
    <!-- Generator: Sketch 46.2 (44496) - http://www.bohemiancoding.com/sketch -->
    <title>logo</title>
    <desc>Created with Sketch.</desc>
    <defs>
        <polygon id="path-1" points="9.14666667 0.0108772278 9.14666667 11.2155463 0.619967506 11.2155463 0.619967506 0.0108772278 9.14666667 0.0108772278"></polygon>
        <polygon id="path-3" points="0 91 170 91 170 0 0 0"></polygon>
    </defs>
    <g id="Footer" stroke="none" stroke-width="1" fill="none" fill-rule="evenodd">
        <g id="Footer---Mockups" transform="translate(-625.000000, -282.000000)">
            <g id="logo" transform="translate(625.000000, 282.000000)">
                <path d="M8.14842957,75.7824005 L8.14842957,75.3060226 C8.13793299,75.0204299 7.85102652,74.3614599 6.69873548,74.2935731 L5.47180211,74.2935731 C5.28519627,74.2935731 5.13474532,74.1414131 5.13474532,73.9529687 L5.13474532,72.7684614 C5.13474532,72.5811875 5.28519627,72.4301979 5.47180211,72.4301979 L6.56927768,72.4184933 C7.18157808,72.4571185 7.64226124,71.6740796 7.63176466,71.3779528 L7.63176466,70.7494148 C7.63176466,70.2297297 7.10810203,69.807193 6.59027084,69.807193 L4.18188927,69.807193 C4.18188927,69.807193 4.08625378,69.807193 4.04426746,69.8387955 C4.00228115,69.870398 4.00228115,69.9874441 4.00228115,69.9874441 L4.00228115,77.0745903 C4.00228115,77.0745903 4.00228115,77.1260907 4.05476404,77.1799319 L4.15039953,77.2010002 L6.59027084,77.2010002 C7.49414286,77.2010002 8.15892615,76.8826346 8.14842957,75.7824005 Z M8.48781893,73.2167482 C10.3457133,73.2167482 11,74.1531177 11,75.3107044 L11,76.3980634 C11,77.5556501 9.96667018,79 8.48781893,79 L1.27083823,79 C1.23701592,79 1.2043599,78.9976591 1.17287016,78.9964886 L0.105718038,78.9964886 C0.0497362867,78.9964886 0.0042511142,78.9508406 0.0042511142,78.8946584 C0.0042511142,78.8946584 -0.000414031699,77.6130028 0.0042511142,77.6130028 C0.0042511142,77.6130028 -0.0167420423,77.5181954 0.0345745625,77.4655246 C0.082392308,77.4175356 0.15120321,77.3917855 0.15120321,77.3917855 C0.609553795,77.3168759 1.16353987,77.0523516 1.17520274,76.7667589 L1.17520274,70.1934454 C1.17520274,69.9336029 0.562902336,69.6164077 0.172196367,69.5719302 C0.172196367,69.5719302 0.0753945892,69.5660779 0.0462374273,69.5426687 C-0.00624546407,69.500532 0.0042511142,69.4256225 0.0042511142,69.4256225 C-0.000414031699,69.4256225 0.0042511142,68.1018302 0.0042511142,68.1018302 C0.0042511142,68.045648 0.0497362867,68 0.105718038,68 L8.48781893,68.0070228 C9.63894368,68.0070228 10.5743054,68.9445627 10.5743054,70.1009789 L10.5743054,70.8652905 C10.5743054,71.9421153 9.76373634,72.8281549 8.72224251,72.9440306 L8.41201031,72.9440306 C8.34203312,72.9440306 8.28605137,73.0013833 8.28605137,73.0727814 C8.28605137,73.1418387 8.34203312,73.1980209 8.41201031,73.1980209 L8.42600575,73.1980209 L8.42600575,73.2167482 L8.48781893,73.2167482 Z" id="Fill-1" fill="#231F20"></path>
                <path d="M158.148403,75.7824005 C158.160066,76.8826346 157.49411,77.2010002 156.590229,77.2010002 L154.150335,77.2010002 L154.055864,77.1799319 C154.002215,77.1260907 154.002215,77.0745903 154.002215,77.0745903 L154.002215,69.9874441 C154.002215,69.9874441 154.002215,69.870398 154.044201,69.8387955 C154.087355,69.807193 154.181825,69.807193 154.181825,69.807193 L156.590229,69.807193 C157.109231,69.807193 157.631733,70.2297297 157.631733,70.7494148 L157.631733,71.3779528 C157.642229,71.6740796 157.181542,72.4571185 156.569236,72.4184933 L155.472916,72.4301979 C155.286308,72.4301979 155.13469,72.5811875 155.13469,72.7684614 L155.13469,73.9529687 C155.13469,74.1414131 155.286308,74.2935731 155.472916,74.2935731 L156.699861,74.2935731 C157.850997,74.3614599 158.139072,75.0204299 158.148403,75.3060226 L158.148403,75.7824005 Z M158.487795,73.2167482 L158.427148,73.2167482 L158.427148,73.1980209 L158.411986,73.1980209 C158.343174,73.1980209 158.286026,73.1418387 158.286026,73.0727814 C158.286026,73.0013833 158.343174,72.9440306 158.411986,72.9440306 L158.723387,72.9440306 C159.764891,72.8281549 160.574301,71.9421153 160.574301,70.8652905 L160.574301,70.1009789 C160.574301,68.9445627 159.640097,68.0070228 158.487795,68.0070228 L150.105615,68 C150.049632,68 150.004147,68.045648 150.004147,68.1018302 C150.004147,68.1018302 150.000648,69.4256225 150.004147,69.4256225 C150.004147,69.4256225 149.992484,69.500532 150.046134,69.5426687 C150.076457,69.5660779 150.17326,69.5719302 150.17326,69.5719302 C150.562803,69.6164077 151.17511,69.9336029 151.17511,70.1934454 L151.17511,76.7667589 C151.164613,77.0523516 150.609455,77.3168759 150.152267,77.3917855 C150.152267,77.3917855 150.083455,77.4175356 150.035637,77.4655246 C149.983153,77.5181954 150.004147,77.6130028 150.004147,77.6130028 C150.000648,77.6130028 150.004147,78.8946584 150.004147,78.8946584 C150.004147,78.9508406 150.049632,78.9964886 150.105615,78.9964886 L151.172777,78.9964886 C151.205433,78.9976591 151.236923,79 151.26958,79 L158.487795,79 C159.96666,79 161,77.5556501 161,76.3980634 L161,75.3107044 C161,74.1531177 160.345707,73.2167482 158.487795,73.2167482 L158.487795,73.2167482 Z" id="Fill-3" fill="#231F20"></path>
                <path d="M33.6581564,68.000331 L30.2730817,68.000331 C29.9750914,67.996823 29.9397566,68.015532 29.9326897,68.3394299 L29.9326897,69.1322199 C29.9397566,69.3017694 30.2412803,69.231611 30.2412803,69.231611 C30.2412803,69.231611 30.4226657,69.2421348 30.5180697,69.3999912 C30.5404484,69.4362397 30.5722497,69.5286149 30.5722497,69.5286149 C30.5722497,69.5286149 30.5781388,69.7706615 30.4367996,70.0232317 C30.2766151,70.3085426 29.5722746,71.4661563 29.2719287,71.9280325 C29.2342382,72.0730265 29.0434303,72.1817721 28.8856015,72.1817721 L28.8561558,72.1817721 C28.7030383,72.1817721 28.6017452,72.06718 28.5322534,71.9444028 L27.2578446,70.1132683 C27.2578446,70.1132683 27.050547,69.7098575 27.2366437,69.380113 C27.3108468,69.2479813 27.5676131,69.1930239 27.6382827,69.1930239 C27.7807997,69.1930239 27.8585363,69.1789922 27.8585363,68.9240833 L27.8585363,68.263425 C27.8585363,68.1523408 27.8184902,68.000331 27.6300379,68.000331 L23.3415698,68.000331 C23.1531175,68.000331 23,68.0225478 23,68.2096369 L23,69.0725853 C23.0141339,69.3894674 22.9599539,69.4502714 23.1919858,69.4596258 C23.5818465,69.4783348 23.9728851,69.8478357 23.9728851,69.8478357 L26.9916557,74.1274986 L26.9916557,77.018025 C27.0034339,77.1641883 26.6512637,77.2600715 26.4062756,77.3021665 L26.124775,77.3594626 C26.0741284,77.3594626 26.0340823,77.3957111 26.0258375,77.444822 L26.0223041,77.444822 L26.0223041,77.4600229 L26.0223041,78.8982703 L26.0223041,78.9146406 L26.0258375,78.9146406 C26.0329045,78.9625822 26.0741284,79 26.124775,79 L30.8537504,79 C30.9043969,79 30.9456209,78.9625822 30.9526878,78.9146406 L30.9562213,78.9146406 L30.9562213,78.8982703 L30.9562213,77.4600229 L30.9562213,77.444822 L30.9526878,77.444822 C30.944443,77.3957111 30.9043969,77.3594626 30.8537504,77.3594626 L30.7324342,77.3594626 C30.3602408,77.3021665 29.8679092,77.0799982 29.8478861,76.8975864 L29.8478861,74.3929312 L32.3189671,70.5961921 C32.3189671,70.5961921 32.7524075,70.0162159 32.8866797,69.8630367 C33.0433307,69.6853021 33.2058708,69.5964347 33.3483879,69.5520011 L33.7217591,69.494705 C34.0056154,69.513414 33.9997262,69.3999912 33.9997262,69.2129021 L33.9997262,68.3394299 C34.0056154,68.0319022 33.9172784,67.996823 33.6581564,68.000331" id="Fill-5" fill="#231F20"></path>
                <path d="M136.964776,77.287291 L136.964776,74.9875697 C136.964776,74.80015 136.812137,74.6469138 136.624274,74.6469138 L135.747188,74.6469138 C135.559325,74.6469138 135.406686,74.80015 135.406686,74.9875697 L135.406686,75.4260609 C135.392597,75.6288041 135.345631,75.8492285 135.264615,76.0107158 C135.039179,76.4668881 134.472068,76.8653022 134.246632,76.9489927 C133.691262,77.1588084 132.971511,77.0916202 132.971511,77.0916202 L132.972686,77.0951565 L131.807935,77.0951565 C131.674082,77.0055722 131.587196,76.9053793 131.587196,76.8075439 L131.587196,70.1924561 C131.587196,69.934312 132.188357,69.6667381 132.648622,69.5924775 C132.648622,69.5924775 132.723767,69.5960137 132.755469,69.5500429 C132.787171,69.5028933 132.773081,69.4439563 132.776604,69.4439563 L132.766036,68.1037291 C132.766036,68.0459709 132.720245,68 132.663886,68 L128.112903,68 C128.056544,68 128.011927,68.0459709 128.011927,68.1037291 L128.000185,69.4439563 C128.003708,69.4439563 127.989618,69.5028933 128.02132,69.5500429 C128.054196,69.5960137 128.128167,69.5924775 128.128167,69.5924775 C128.588431,69.6667381 129.189593,69.934312 129.189593,70.1924561 L129.189593,76.8075439 C129.189593,77.065688 128.588431,77.3332619 128.128167,77.4087012 C128.128167,77.4087012 128.054196,77.4063438 128.02132,77.4511359 C127.989618,77.4971067 128.003708,77.5572225 128.000185,77.5572225 L128.011927,78.8974496 C128.011927,78.9540291 128.056544,79 128.112903,79 L131.753924,79 L131.759795,79 L136.659498,79 C136.847361,79 137,78.8479426 137,78.6593442 L137,77.4358123 C137,77.382769 136.987084,77.3332619 136.964776,77.287291" id="Fill-7" fill="#231F20"></path>
                <path d="M102.964775,77.2837968 L102.964775,74.9793837 C102.964775,74.7915817 102.812135,74.6380329 102.624269,74.6380329 L101.745999,74.6380329 C101.559308,74.6380329 101.406668,74.7915817 101.406668,74.9793837 L101.406668,75.4187695 C101.392578,75.6219263 101.345611,75.8428004 101.264595,76.0046172 C101.037982,76.4617202 100.472038,76.8609471 100.245426,76.9448083 C99.691223,77.1550521 98.9714642,77.0877268 98.9714642,77.0877268 L98.9726383,77.0912703 L97.8066995,77.0912703 C97.6740196,77.0015033 97.5859578,76.901106 97.5859578,76.803071 L97.5859578,70.196929 C97.5859578,69.9358961 98.1883008,69.6701385 98.6485707,69.5945453 C98.6485707,69.5945453 98.7225427,69.5980887 98.7554191,69.5508429 C98.7859472,69.5059594 98.7730315,69.445721 98.7765539,69.4445399 L98.7648124,68.1027596 C98.7648124,68.0460646 98.7201944,68 98.6638348,68 L94.1127987,68 C94.0564391,68 94.0106469,68.0460646 94.0106469,68.1027596 L94.0000795,69.4445399 C94.0047761,69.445721 93.9883379,69.5059594 94.0212143,69.5508429 C94.0540908,69.5980887 94.1268886,69.5945453 94.1268886,69.5945453 C94.5883326,69.6701385 95.1895015,69.9358961 95.1895015,70.196929 L95.1895015,76.803071 C95.1895015,77.0617417 94.5883326,77.3298615 94.1268886,77.4054547 C94.1268886,77.4054547 94.0540908,77.4030925 94.0212143,77.4479759 C93.9883379,77.4940406 94.0047761,77.554279 94.0000795,77.554279 L94.0106469,78.8972404 C94.0106469,78.9539354 94.0564391,79 94.1127987,79 L97.7526882,79 L97.7597332,79 L102.659494,79 C102.847359,79 103,78.8476323 103,78.6586492 L103,77.4326211 C103,77.3794696 102.987084,77.3298615 102.964775,77.2837968" id="Fill-9" fill="#231F20"></path>
                <path d="M143.000324,77.0816111 C142.704058,77.0769717 142.093224,77.0630536 141.904483,77.0305778 C141.591058,76.9737453 141.204425,76.8055673 141.011109,76.4703712 C140.857828,76.2047659 140.936756,75.3082033 140.918454,75.0054829 L140.918454,70.1573176 C140.918454,69.9033108 141.502979,69.6400253 141.952526,69.5669549 C141.952526,69.5669549 142.025735,69.5692746 142.05662,69.5240405 C142.087504,69.4788064 142.073778,69.420814 142.076066,69.420814 L142.066914,68.1020666 C142.066914,68.0452341 142.023447,68 141.967397,68 L137.109318,68 C137.054411,68 137.0098,68.0452341 137.0098,68.1020666 L137.000649,69.420814 C137.004081,69.420814 136.98921,69.4788064 137.020095,69.5240405 C137.052124,69.5692746 137.124188,69.5669549 137.124188,69.5669549 C137.573735,69.6400253 138.159404,69.9033108 138.159404,70.1573176 L138.159404,74.7595951 L138.151397,74.7642345 L138.151397,75.7141501 C138.151397,75.7141501 138.136526,77.1001687 138.377886,77.4852383 C138.986433,78.4537115 139.906116,79 142.66631,79 L143.200504,79 C145.959554,79 147.013072,78.4537115 147.621619,77.4852383 C147.862979,77.1001687 147.846964,75.7141501 147.846964,75.7141501 L147.846964,74.7642345 L147.840101,74.7595951 L147.840101,70.1573176 C147.840101,69.9033108 148.42577,69.6400253 148.875317,69.5669549 C148.875317,69.5669549 148.948525,69.5692746 148.97941,69.5240405 C149.009151,69.4788064 148.995424,69.420814 149,69.420814 L148.989705,68.1020666 C148.989705,68.0452341 148.945094,68 148.890187,68 L144.032109,68 C143.977202,68 143.932591,68.0452341 143.932591,68.1020666 L143.923439,69.420814 C143.925727,69.420814 143.912001,69.4788064 143.942885,69.5240405 C143.974914,69.5692746 144.046979,69.5669549 144.046979,69.5669549 C144.496526,69.6400253 145.081051,69.9033108 145.081051,70.1573176 L145.081051,75.0054829 C145.062749,75.3082033 145.141677,76.2047659 144.987252,76.4703712 C144.79508,76.8055673 144.40959,76.9737453 144.095022,77.0305778 C143.906281,77.0630536 143.295447,77.0769717 143.000324,77.0816111" id="Fill-11" fill="#231F20"></path>
                <path d="M127.973493,75.8009147 C127.973493,75.6208256 127.823672,75.4745033 127.639276,75.4745033 L126.777227,75.4745033 C126.592832,75.4745033 126.444163,75.6208256 126.444163,75.8009147 L126.444163,75.9123447 C126.423418,76.3805762 125.83681,76.9287221 125.525643,77.0491567 C124.971303,77.266389 124.776536,77.266389 123.997465,77.2934024 C123.98594,77.2934024 123.975568,77.2934024 123.964043,77.2945279 L123.959433,77.2934024 C123.181514,77.266389 122.986747,77.266389 122.430103,77.0491567 C122.120088,76.9287221 121.502363,76.3096661 121.31451,75.8211747 C121.178518,75.4441133 121.00219,74.9657518 121.00219,73.3978518 C121.00219,71.8299518 121.115132,71.1017169 121.31451,70.7910633 C121.669471,70.2417918 122.23303,69.6711348 123.546848,69.6711348 C124.859514,69.6711348 125.338942,70.1393662 125.568284,70.444392 C125.568284,70.444392 125.923245,70.7291577 125.94399,71.1276047 L125.94399,71.2379092 C125.94399,71.4191238 126.093811,71.5643205 126.277054,71.5643205 L127.139103,71.5643205 C127.323499,71.5643205 127.472168,71.4191238 127.472168,71.2379092 L127.50098,68.7144119 C127.50098,68.7144119 127.549383,68.5309462 127.320041,68.3474805 C127.320041,68.3474805 126.069609,67.9805491 123.983635,68.0008091 C122.253774,68.0176925 120.835081,68.3677405 120.105566,68.8157119 C119.376052,69.2636834 118,70.5682032 118,73.2346462 C118,75.9022147 118.605048,76.8791976 119.334563,77.5522803 C119.935001,78.1049285 120.833929,78.6857156 122.655987,78.9074502 C122.713611,78.9524724 123.198801,78.9828625 123.58488,78.9828625 C123.709347,78.9884903 123.832661,78.9952436 123.96289,78.9974947 C124.344359,79.0064992 124.675118,78.9907414 124.964389,78.9581002 C127.155238,78.8781857 127.666936,78.6508233 127.666936,78.6508233 C127.851331,78.6508233 128,78.504501 128,78.324412 L127.973493,75.8009147 Z" id="Fill-13" fill="#231F20"></path>
                <path d="M75.9673662,75.7713464 L76,75.7184403 L75.9697835,73.1935798 C75.9697835,73.0145996 75.8138666,72.8682635 75.6204813,72.8682635 L71.5388419,72.8682635 C71.3454565,72.8682635 71.1895396,73.0145996 71.1895396,73.1935798 L71.1895396,73.3061461 L71.1895396,74.1819113 L71.1895396,74.2933519 C71.1895396,74.4734578 71.3454565,74.6197939 71.5388419,74.6197939 L73.1137238,74.6197939 L73.1137238,76.9319042 C73.0339523,76.9848103 72.9590155,77.0253342 72.8949566,77.0500988 C72.3111746,77.2662259 72.10812,77.2662259 71.2910669,77.2943675 C71.2789803,77.2943675 71.2668937,77.2943675 71.2548072,77.2954931 L71.2511812,77.2943675 C70.4353368,77.2662259 70.2298649,77.2662259 69.6472915,77.0500988 C69.3221624,76.9285272 68.6743215,76.3105386 68.4773102,75.8208756 C68.3358972,75.4437787 68.1497638,74.9653722 68.1497638,73.3984504 C68.1497638,71.8292772 68.2670036,71.1020994 68.4773102,70.7902909 C68.849577,70.2409677 69.4406109,69.670257 70.8172728,69.670257 C72.1951434,69.670257 72.6979453,70.1385325 72.9384683,70.4447126 C72.9384683,70.4447126 73.3107351,70.7295052 73.3324909,71.1268639 L73.3324909,71.2383045 C73.3324909,71.4195361 73.4884079,71.5647466 73.6817932,71.5647466 L74.5858697,71.5647466 C74.779255,71.5647466 74.935172,71.4195361 74.935172,71.2383045 L74.9641798,68.7134441 C74.9641798,68.7134441 75.0161521,68.5299611 74.7756291,68.3464782 C74.7756291,68.3464782 73.463026,67.9795123 71.276563,68.0008998 C69.4611581,68.0166591 67.9745083,68.3667401 67.2094275,68.8147537 C66.4443468,69.2638929 65,70.5674098 65,73.2341037 C65,75.9019232 65.6345457,76.8789981 66.3996264,77.5521441 C67.0305461,78.1048443 67.9732996,78.685686 69.8841886,78.9074415 C69.9446215,78.952468 70.4534667,78.9839865 70.8583672,78.9839865 C70.9876937,78.9884892 71.1182288,78.9952431 71.2548072,78.9974945 C71.6548731,79.0064998 72.0005494,78.9907405 72.3051313,78.9580963 C74.6027909,78.8792999 75.6494891,78.6519162 75.6494891,78.6519162 C75.8428744,78.6519162 76,78.5055801 76,78.3254741 L75.9697835,75.8006136 C75.9697835,75.7916083 75.9685749,75.7814774 75.9673662,75.7713464" id="Fill-15" fill="#231F20"></path>
                <path d="M19.6411679,75.8264031 C19.4508029,76.3164687 18.8259854,76.9349652 18.5106569,77.0566366 C17.9570803,77.2695617 17.7562044,77.2729414 17.0005839,77.2999795 C16.2449635,77.2729414 16.0429197,77.2695617 15.4893431,77.0566366 C15.1740146,76.9349652 14.5491971,76.3164687 14.3588321,75.8264031 C14.2221898,75.4489963 14.0423358,74.9701966 14.0423358,73.4019869 C14.0423358,71.831524 14.1556204,71.1037485 14.3588321,70.7916837 C14.7185401,70.2419091 15.2884672,69.6707292 16.619854,69.6707292 C16.7016058,69.6707292 17.299562,69.6718558 17.380146,69.6707292 C18.9217518,69.6639697 19.2814599,70.2419091 19.6411679,70.7916837 C19.8443796,71.1037485 19.9576642,71.831524 19.9576642,73.4019869 C19.9576642,74.9701966 19.7789781,75.4489963 19.6411679,75.8264031 M20.8662774,68.8145227 C20.1573723,68.3852929 18.8049635,68.0461901 17.1477372,68.0056329 L17.1477372,68 L16.8522628,68 L16.8522628,68.0056329 C15.1950365,68.0461901 13.8426277,68.3852929 13.1337226,68.8145227 C12.3932847,69.2640311 11,70.5686194 11,73.2375051 C11,75.9075174 11.6119708,76.8853953 12.3524088,77.5590946 C12.9608759,78.1122491 13.8718248,78.6935682 15.7182482,78.9155059 C15.7754745,78.9605694 16.2683212,78.9921139 16.659562,78.9921139 C16.7226277,78.9943671 17.1477372,79 17.1477372,79 C17.2119708,78.9966202 18.2245255,78.9605694 18.2817518,78.9155059 C20.1281752,78.6935682 21.0391241,78.1122491 21.6475912,77.5590946 C22.3880292,76.8853953 23,75.9075174 23,73.2375051 C23,70.5686194 21.6067153,69.2640311 20.8662774,68.8145227" id="Fill-17" fill="#231F20"></path>
                <path d="M80.9771615,77.4476569 C80.9439762,77.4015477 80.8665437,77.4050946 80.8665437,77.4050946 C80.3835124,77.3282459 79.7542196,77.0622313 79.7542196,76.8009458 L79.7542196,74.4198194 L79.7542196,72.6664875 L79.7542196,70.1990542 C79.7542196,69.9365864 80.3835124,69.6717541 80.8665437,69.5949054 C80.8665437,69.5949054 80.9439762,69.5984523 80.9771615,69.5523431 C81.0103469,69.5074162 80.9968269,69.4459372 80.9992851,69.4459372 L80.9882233,68.102859 C80.9882233,68.0449269 80.941518,68 80.8812927,68 L76.1173502,68 C76.0595831,68 76.0104196,68.0449269 76.0104196,68.102859 L76.0005869,69.4459372 C76.0042741,69.4459372 75.988296,69.5074162 76.0227104,69.5523431 C76.0558958,69.5984523 76.1345574,69.5949054 76.1345574,69.5949054 C76.6163596,69.6717541 77.2456523,69.9365864 77.2456523,70.1990542 L77.2456523,72.6664875 L77.2456523,74.4198194 L77.2456523,76.8009458 C77.2456523,77.0622313 76.6163596,77.3282459 76.1345574,77.4050946 C76.1345574,77.4050946 76.0558958,77.4015477 76.0227104,77.4476569 C75.988296,77.4925838 76.0042741,77.5540628 76.0005869,77.5552451 L76.0104196,78.8983233 C76.0104196,78.9550731 76.0595831,79 76.1173502,79 L80.8812927,79 C80.941518,79 80.9882233,78.9550731 80.9882233,78.8983233 L80.9992851,77.5552451 C80.9968269,77.5540628 81.0103469,77.4925838 80.9771615,77.4476569" id="Fill-19" fill="#231F20"></path>
                <path d="M93.977524,77.4496565 C93.9455844,77.4036067 93.8710588,77.407149 93.8710588,77.407149 C93.4061607,77.3303993 92.7993089,77.0647274 92.7993089,76.8037784 L92.796943,75.2994848 C92.796943,74.1328897 92.4763644,73.1870975 90.590747,73.1870975 L90.5280508,73.1870975 L90.5280508,73.169386 L90.5138555,73.169386 C90.4440616,73.169386 90.3849143,73.1115286 90.3849143,73.0406827 C90.3849143,72.9710176 90.4440616,72.9119794 90.5138555,72.9119794 L90.8285194,72.9119794 C91.8860739,72.7950837 92.707039,71.8150494 92.707039,70.7287462 L92.707039,70.1112065 C92.707039,68.9457922 91.7594986,68 90.590747,68 L85.9985472,68.0023615 L85.9985472,68.0141692 L82.1137496,68.0141692 C82.0557852,68.0141692 82.0108332,68.0590382 82.0108332,68.1168957 L82.0001866,69.4582439 C82.0037355,69.4582439 81.9895401,69.5196436 82.0214797,69.5645127 C82.0534193,69.6105625 82.1279449,69.6070202 82.1279449,69.6070202 C82.592843,69.6837699 83.1985119,69.9482611 83.1985119,70.2103907 L83.1985119,72.6746458 L83.1985119,74.4257192 L83.1985119,76.8037784 C83.1985119,77.0647274 82.592843,77.3303993 82.1279449,77.407149 C82.1279449,77.407149 82.0534193,77.4036067 82.0214797,77.4496565 C81.9895401,77.4945255 82.0037355,77.5559253 82.0001866,77.5571061 L82.0108332,78.8984543 C82.0108332,78.955131 82.0557852,79 82.1137496,79 L86.6988517,79 C86.7544502,79 86.8017681,78.955131 86.8017681,78.8984543 L86.8112317,77.5571061 C86.8076828,77.5559253 86.8230612,77.4945255 86.7899386,77.4496565 C86.7579991,77.4036067 86.6822905,77.407149 86.6822905,77.407149 C86.2185753,77.3303993 85.6129065,77.0647274 85.6129065,76.8037784 L85.6129065,74.4257192 L85.6129065,72.6746458 L85.6129065,70.2103907 C85.6129065,70.0698798 85.7903485,69.9281881 86.024572,69.8148347 L88.6660924,69.8148347 C89.1925038,69.8148347 89.722464,70.2422714 89.722464,70.7653499 L89.722464,71.245921 C89.7331105,71.5458351 89.2670295,72.4207815 88.6447994,72.3818162 L88.6045792,72.3924431 L87.0182474,72.3924431 C86.8301588,72.3924431 86.6763757,72.5459425 86.6763757,72.7348647 L86.6763757,73.9321597 C86.6763757,74.1199012 86.8301588,74.2734006 87.0182474,74.2734006 L88.7772894,74.2734006 C89.944858,74.3418849 89.8939913,75.0066552 89.9046378,75.2947617 L89.878613,78.3883641 C89.878613,78.3883641 89.8833448,78.6186131 89.9211991,78.7449549 C89.9933589,78.9728424 90.4062073,79 90.4062073,79 L93.8852542,79 C93.9420356,79 93.9881705,78.955131 93.9881705,78.8984543 L94,77.5571061 C93.9952682,77.5559253 94.0094636,77.4945255 93.977524,77.4496565" id="Fill-21" fill="#231F20"></path>
                <path d="M35.7425734,73.7095439 C36.632665,73.9775572 38.1607143,74.4230858 39.2208498,74.5913192 C40.2833308,74.7583924 40.7500719,75.2630927 40.580028,76.1866363 C40.4123296,77.0950969 39.3486759,77.2772531 38.7928084,77.2900156 C38.7928084,77.2900156 37.4359757,77.3549885 36.8836263,77.1507879 C36.6572921,77.0660911 36.0240253,76.3537095 35.9114445,76.1541498 L35.6886284,75.6192835 C35.6886284,75.531106 35.5713568,75.4394478 35.3837222,75.4394478 L34.4150586,75.4394478 C34.2285967,75.4394478 34.1676155,75.4336466 34.1676155,75.6192835 L34.1711336,77.7169805 L34.1723063,78.6451649 C34.1723063,78.9294214 34.6097295,78.9990353 35.827009,78.9990353 L39.0648786,78.9990353 C39.0648786,78.9990353 40.4439929,79.047765 41.4712924,78.4525667 C42.3074391,77.9687505 43.0415594,76.6472478 42.9981689,75.6830962 C42.9301514,74.1249065 42.8281251,73.2895405 41.9380334,72.7430718 C41.1452772,72.2592557 39.5187198,72.02953 38.4585843,71.8612966 C37.397276,71.6942234 36.5060117,71.5259899 36.5060117,70.6024464 C36.5060117,69.6789028 37.7373638,69.5118296 38.2920586,69.4990671 C38.2920586,69.4990671 39.0132791,69.4329339 39.5656284,69.6382947 C39.7919627,69.7229916 40.0065697,69.7949259 40.3243758,70.1836031 C40.4803471,70.3715605 40.7266175,70.9818418 40.7266175,70.9818418 C40.7266175,71.1686389 40.8778979,71.3171484 41.0655325,71.3171484 L41.9427243,71.3171484 C42.2136218,71.3519554 42.282812,71.2800211 42.2816393,70.9818418 L42.2769484,68.1845258 C42.2769484,67.9919275 41.1734224,68.0000491 40.6222458,68.0000491 L37.0431157,68.0000491 C37.0431157,68.0000491 35.8129364,68.0104912 35.0635707,68.713591 C34.5159122,69.2287333 33.9600447,70.2242112 34.0022625,71.1895231 C34.0444802,72.1559952 34.2145241,73.2477722 35.7425734,73.7095439" id="Fill-23" fill="#231F20"></path>
                <path d="M105.741519,73.7095439 C106.631608,73.9775572 108.160825,74.4230858 109.220957,74.5913192 C110.282262,74.7583924 110.749002,75.2630927 110.578958,76.1866363 C110.41126,77.0950969 109.348783,77.2772531 108.791744,77.2900156 C108.791744,77.2900156 107.436088,77.3549885 106.882568,77.1507879 C106.656235,77.0660911 106.024142,76.3537095 105.911562,76.1541498 L105.687574,75.6192835 C105.687574,75.531106 105.570303,75.4394478 105.382669,75.4394478 L104.415181,75.4394478 C104.226374,75.4394478 104.167738,75.4336466 104.167738,75.6192835 L104.171257,77.7169805 L104.172429,78.6451649 C104.172429,78.9294214 104.609851,78.9990353 105.825954,78.9990353 L109.064986,78.9990353 C109.064986,78.9990353 110.444096,79.047765 111.47022,78.4525667 C112.306364,77.9687505 113.040482,76.6472478 112.998264,75.6830962 C112.929074,74.1249065 112.827048,73.2895405 111.936959,72.7430718 C111.145378,72.2592557 109.518826,72.02953 108.457521,71.8612966 C107.396216,71.6942234 106.504955,71.5259899 106.504955,70.6024464 C106.504955,69.6789028 107.736303,69.5118296 108.292169,69.4990671 C108.292169,69.4990671 109.013387,69.4329339 109.564562,69.6382947 C109.792068,69.7229916 110.005502,69.7949259 110.32448,70.1836031 C110.479278,70.3715605 110.725547,70.9818418 110.725547,70.9818418 C110.725547,71.1686389 110.876827,71.3171484 111.064461,71.3171484 L111.94165,71.3171484 C112.212547,71.3519554 112.28291,71.2800211 112.281737,70.9818418 L112.275873,68.1845258 C112.275873,67.9919275 111.173524,68.0000491 110.621176,68.0000491 L107.042057,68.0000491 C107.042057,68.0000491 105.811882,68.0104912 105.062518,68.713591 C104.514861,69.2287333 103.958996,70.2242112 104.002386,71.1895231 C104.043431,72.1559952 104.214647,73.2477722 105.741519,73.7095439" id="Fill-25" fill="#231F20"></path>
                <g id="Group-29" transform="translate(161.000000, 68.000000)">
                    <mask id="mask-2" fill="white">
                        <use xlink:href="#path-1"></use>
                    </mask>
                    <g id="Clip-28"></g>
                    <path d="M2.271,5.82665455 C3.11322222,6.09965455 4.56322222,6.55347273 5.56766667,6.72483636 C6.57322222,6.89501818 7.01544444,7.40910909 6.85433333,8.34983636 C6.69655556,9.2752 5.68877778,9.46074545 5.161,9.47374545 C5.161,9.47374545 3.87544444,9.53992727 3.35211111,9.33192727 C3.13766667,9.24565455 2.53766667,8.52001818 2.43211111,8.31674545 L2.21988889,7.77192727 C2.21988889,7.68210909 2.10877778,7.58874545 1.93211111,7.58874545 L1.01433333,7.58874545 C0.836555556,7.58874545 0.778777778,7.58283636 0.778777778,7.77192727 L0.783222222,9.90865455 L0.783222222,10.8541091 C0.783222222,11.1436545 1.19766667,11.2145636 2.351,11.2145636 L5.41877778,11.2145636 C5.41877778,11.2145636 6.72655556,11.2642 7.69877778,10.6579273 C8.491,10.1651091 9.18544444,8.81901818 9.14544444,7.83692727 C9.081,6.24974545 8.98433333,5.39883636 8.141,4.8422 C7.391,4.34938182 5.84877778,4.11538182 4.84433333,3.94401818 C3.83877778,3.77383636 2.99433333,3.60247273 2.99433333,2.66174545 C2.99433333,1.72101818 4.161,1.55083636 4.68766667,1.53783636 C4.68766667,1.53783636 5.36988889,1.47047273 5.89322222,1.67965455 C6.10877778,1.76592727 6.311,1.8392 6.61322222,2.23510909 C6.75988889,2.42656364 6.99322222,3.0482 6.99322222,3.0482 C6.99322222,3.23847273 7.13655556,3.38974545 7.31433333,3.38974545 L8.14433333,3.38974545 C8.40211111,3.4252 8.46766667,3.35192727 8.46766667,3.0482 L8.46211111,0.198836364 C8.46211111,0.00265454545 7.41655556,0.0109272727 6.89433333,0.0109272727 L3.50322222,0.0109272727 C3.50322222,0.0109272727 2.33766667,0.0215636364 1.62766667,0.737745455 C1.10877778,1.26247273 0.582111111,2.27647273 0.622111111,3.25974545 C0.662111111,4.2442 0.823222222,5.35629091 2.271,5.82665455" id="Fill-27" fill="#231F20" mask="url(#mask-2)"></path>
                </g>
                <path d="M52.4481729,78.0396982 C50.1201736,77.9964603 49.7590685,77.1329042 49.7590685,75.7480915 C49.7590685,75.1355552 50.0389249,74.550643 50.5173892,74.0882381 L54.6317302,77.6133248 C54.200661,77.9003762 53.3159535,78.0565129 52.4481729,78.0396982 M51.9166714,69.6083152 C52.8961689,69.6527541 53.4287989,70.1307727 53.4287989,70.6532302 C53.4287989,71.2597613 52.1209214,71.8254567 51.7936699,71.8254567 C51.7428895,71.8254567 51.6706685,71.809843 51.5860345,71.7846209 C51.4540055,71.7029494 51.2745814,71.6296852 51.1357816,71.5936537 C50.7238961,71.3714591 50.2939554,71.019551 50.2939554,70.6532302 C50.2939554,70.1307727 50.9371738,69.5650773 51.9166714,69.6083152 M59.960287,78.615002 C59.8790384,78.4852884 59.7571654,78.5285263 59.512291,78.4852884 C59.2662882,78.4420505 59.1026625,78.3123369 59.1026625,78.3123369 L57.8252532,77.3454903 C58.0001635,77.0031906 58.1378348,76.6452772 58.2461663,76.3894532 C58.4086636,75.9979103 58.4910407,74.7380071 58.4910407,74.3032263 C58.4910407,73.8684456 58.5824455,73.1081799 58.4402603,72.9772652 C58.399636,72.9412337 58.2348818,72.9124085 58.2348818,72.9124085 L56.4902929,72.9124085 C56.4902929,72.9124085 56.3876036,72.9340274 56.3266672,72.9988842 C56.2758868,73.0529315 56.2860428,73.3027503 56.2860428,73.3027503 C56.2860428,73.3027503 56.2657307,73.9116835 56.2860428,74.2155496 C56.3244102,74.7860491 56.1889958,75.3049035 56.0073148,75.7396842 L53.426542,73.458887 C54.8461363,72.8883874 55.7759819,71.6056642 55.7556697,70.6532302 C55.7150454,68.7843937 54.1487521,68.0397417 51.9166714,68.001308 C49.4261748,67.9580701 47.7526784,68.9897736 47.7526784,70.6532302 C47.7526784,71.1312488 47.8734229,71.5648284 48.090086,71.9455618 C48.0844437,71.9623766 48.0788014,71.9815934 48.0788014,71.9996092 L48.1724631,72.0788786 C48.3338319,72.3286973 48.5403389,72.553294 48.7806994,72.7514675 C47.6736867,73.5705848 47,74.7295997 47,75.9546724 C47,78.2630938 47.9975528,79.8652968 52.2021701,79.9962114 C53.7176829,80.0430525 55.1474334,79.6527107 56.2307486,78.9825238 L56.6539186,79.1806973 C56.826572,79.3332309 56.9698856,79.5169918 57.3163208,79.5290023 L59.7154126,79.5169918 C59.8959652,79.5169918 59.9918837,79.4605424 59.9918837,79.2671731 L59.9952691,79.1278511 C59.9952691,79.1278511 60.0189666,78.7098851 59.960287,78.615002" id="Fill-30" fill="#231F20"></path>
                <path d="M46.2870188,87.4952973 C46.2870188,88.2618408 46.4481647,88.8426268 46.7715309,89.238831 C47.094897,89.6338596 47.5063563,89.8313739 48.0037601,89.8313739 C48.5022381,89.8313739 48.9104745,89.636211 49.2295434,89.2435338 C49.5486124,88.8508566 49.708684,88.2618408 49.708684,87.4764864 C49.708684,86.7017131 49.5529096,86.1232785 49.2424351,85.7411824 C48.9319606,85.360262 48.5183527,85.1686261 48.0037601,85.1686261 C47.4891674,85.1686261 47.0744852,85.3626134 46.7597135,85.7482365 C46.4438675,86.1350353 46.2870188,86.716997 46.2870188,87.4952973 M45,87.5423245 C45,86.8522002 45.0945389,86.2737655 45.2825425,85.8058448 C45.4232766,85.4613705 45.6155774,85.1521666 45.8583706,84.8770574 C46.1022381,84.6042996 46.3686661,84.400907 46.6587287,84.2680551 C47.0433303,84.0905274 47.4880931,84 47.9908684,84 C48.9029543,84 49.6313339,84.3092039 50.1792301,84.9276117 C50.7260519,85.5471952 51,86.4066174 51,87.5094054 C51,88.6016124 50.7282005,89.4575076 50.1846016,90.0747397 C49.6431513,90.6919718 48.9169203,91 48.0091316,91 C47.0884512,91 46.3568487,90.6931475 45.8143241,90.0794424 C45.2717995,89.4645616 45,88.6192476 45,87.5423245" id="Fill-32" fill="#231F20"></path>
                <polygon id="Fill-34" fill="#231F20" points="52 91 52 84 57 84 57 85.1853074 53.4732708 85.1853074 53.4732708 86.8410907 56.517355 86.8410907 56.517355 88.0263981 53.4732708 88.0263981 53.4732708 91"></polygon>
                <polygon id="Fill-36" fill="#231F20" points="61 91 61 84 62.3439908 84 62.3439908 87.1097603 65.057396 84 66.8636364 84 64.3593991 86.7268149 67 91 65.2619414 91 63.4325886 87.7163946 62.3439908 88.8858979 62.3439908 91"></polygon>
                <mask id="mask-4" fill="white">
                    <use xlink:href="#path-3"></use>
                </mask>
                <g id="Clip-39"></g>
                <polygon id="Fill-38" fill="#231F20" mask="url(#mask-4)" points="67 91 68 91 68 84 67 84"></polygon>
                <polygon id="Fill-40" fill="#231F20" mask="url(#mask-4)" points="70 91 70 84 71.2382308 84 73.8176046 88.6755818 73.8176046 84 75 84 75 91 73.7234508 91 71.1823954 86.4350469 71.1823954 91"></polygon>
                <path d="M80.2083952,88.3958683 L80.2083952,87.2542828 L83,87.2542828 L83,89.9512932 C82.7291976,90.2287538 82.3358098,90.4732953 81.820951,90.6825663 C81.3060921,90.8930131 80.7845468,91 80.256315,91 C79.5854383,91 79.0003715,90.8518643 78.5011144,90.5532415 C78.0029718,90.2569701 77.6274146,89.8325495 77.3766716,89.2788042 C77.1248143,88.7274101 77,88.1266376 77,87.4764864 C77,86.7710783 77.140416,86.1444407 77.4201337,85.5965737 C77.7009658,85.0487068 78.1099554,84.6289889 78.6504458,84.3374202 C79.0616642,84.1116896 79.5731798,84 80.186107,84 C80.9829123,84 81.6047548,84.176352 82.0527489,84.5290561 C82.5007429,84.8817602 82.7893759,85.3684918 82.9175334,85.9904266 L81.6303863,86.2431979 C81.5401189,85.911656 81.3696137,85.6494793 81.1210996,85.4566678 C80.871471,85.2650319 80.5594354,85.1686261 80.186107,85.1686261 C79.6199851,85.1686261 79.1697623,85.3579106 78.8365527,85.735304 C78.5022288,86.1150487 78.3350669,86.6758482 78.3350669,87.4212294 C78.3350669,88.224219 78.5044577,88.827343 78.8432392,89.2282499 C79.1809064,89.6303325 79.6244428,89.8313739 80.172734,89.8313739 C80.4446508,89.8313739 80.7165676,89.7749412 80.9895988,89.6632516 C81.2615156,89.5503863 81.4966568,89.4140074 81.691679,89.2541149 L81.691679,88.3958683 L80.2083952,88.3958683 Z" id="Fill-41" fill="#231F20" mask="url(#mask-4)"></path>
                <path d="M90.6516451,88.3958683 L92,88.8155862 C91.7930209,89.5539133 91.449651,90.102956 90.9686939,90.4627141 C90.4877368,90.8212966 89.8775673,91 89.1381854,91 C88.2241276,91 87.4715852,90.6919718 86.8829511,90.0794424 C86.294317,89.463386 86,88.6239503 86,87.5599597 C86,86.433658 86.2955135,85.5577763 86.8877368,84.9358415 C87.4799601,84.3103796 88.2588235,84 89.2231306,84 C90.0654038,84 90.7497507,84.2445415 91.2761715,84.7336245 C91.5896311,85.0228418 91.8241276,85.4378569 91.9808574,85.9798455 L90.6037886,86.3043332 C90.5236291,85.9528048 90.3525424,85.67652 90.0953141,85.4731273 C89.8356929,85.2697346 89.5222333,85.1686261 89.1525424,85.1686261 C88.641675,85.1686261 88.2277168,85.3473295 87.9094716,85.7082634 C87.5924227,86.0691972 87.4333001,86.6523346 87.4333001,87.4576755 C87.4333001,88.3135707 87.5900299,88.9237487 87.9034895,89.2870339 C88.2157527,89.6491434 88.6225324,89.8313739 89.1250249,89.8313739 C89.4935194,89.8313739 89.8117647,89.7149815 90.0785643,89.4857239 C90.3441675,89.2541149 90.5355932,88.8920054 90.6516451,88.3958683" id="Fill-42" fill="#231F20" mask="url(#mask-4)"></path>
                <path d="M94.2870188,87.4952973 C94.2870188,88.2618408 94.4481647,88.8426268 94.7726052,89.238831 C95.0959714,89.6338596 95.5063563,89.8313739 96.0048344,89.8313739 C96.5022381,89.8313739 96.9104745,89.636211 97.2295434,89.2435338 C97.5486124,88.8508566 97.708684,88.2618408 97.708684,87.4764864 C97.708684,86.7017131 97.5529096,86.1232785 97.2413608,85.7411824 C96.9308863,85.360262 96.5183527,85.1686261 96.0048344,85.1686261 C95.4891674,85.1686261 95.0744852,85.3626134 94.7586392,85.7482365 C94.4438675,86.1350353 94.2870188,86.716997 94.2870188,87.4952973 M93,87.5423245 C93,86.8522002 93.0945389,86.2737655 93.2825425,85.8058448 C93.4232766,85.4613705 93.6155774,85.1521666 93.8583706,84.8770574 C94.1022381,84.6042996 94.3686661,84.400907 94.6576544,84.2680551 C95.0433303,84.0905274 95.4880931,84 95.9908684,84 C96.9029543,84 97.6313339,84.3092039 98.1792301,84.9276117 C98.7260519,85.5471952 99,86.4066174 99,87.5094054 C99,88.6016124 98.7282005,89.4575076 98.1846016,90.0747397 C97.642077,90.6919718 96.9169203,91 96.0080573,91 C95.0884512,91 94.3568487,90.6931475 93.8143241,90.0794424 C93.2707252,89.4645616 93,88.6192476 93,87.5423245" id="Fill-43" fill="#231F20" mask="url(#mask-4)"></path>
                <path d="M101,84 L102.265519,84 L102.265519,87.7283128 C102.265519,88.3188183 102.281856,88.7037227 102.313439,88.8782445 C102.366805,89.159153 102.496406,89.3862705 102.700065,89.5560109 C102.903725,89.7269467 103.182531,89.8118169 103.536484,89.8118169 C103.895883,89.8118169 104.165977,89.7317281 104.348944,89.5703552 C104.53191,89.4089822 104.640819,89.2117486 104.677848,88.977459 C104.715966,88.741974 104.734481,88.3534836 104.734481,87.8084016 L104.734481,84 L106,84 L106,87.6159495 C106,88.4419399 105.966238,89.0252732 105.897626,89.3659495 C105.829013,89.7066257 105.702679,89.9959016 105.518623,90.2301913 C105.334568,90.4644809 105.088434,90.6521516 104.781311,90.7920082 C104.47201,90.9306694 104.071226,91 103.574602,91 C102.975604,91 102.521455,90.9246926 102.212154,90.7716872 C101.902853,90.619877 101.658898,90.4238388 101.478109,90.1811817 C101.299499,89.9385246 101.180788,89.6839139 101.123067,89.4173497 C101.041385,89.0240779 101,88.4419399 101,87.6721311 L101,84 Z" id="Fill-44" fill="#231F20" mask="url(#mask-4)"></path>
                <polygon id="Fill-45" fill="#231F20" mask="url(#mask-4)" points="107 91 107 84 108.23796 84 110.817863 88.6755818 110.817863 84 112 84 112 91 110.722636 91 108.182137 86.4350469 108.182137 91"></polygon>
                <polygon id="Fill-46" fill="#231F20" mask="url(#mask-4)" points="115.867075 91 115.867075 85.1853074 114 85.1853074 114 84 119 84 119 85.1853074 117.138391 85.1853074 117.138391 91"></polygon>
                <polygon id="Fill-47" fill="#231F20" mask="url(#mask-4)" points="121.350297 91 121.350297 88.0543592 119 84 120.518945 84 122.028975 86.7705801 123.508915 84 125 84 122.641902 88.0640848 122.641902 91"></polygon>
                <path d="M89.7343431,55.4057872 C88.5803122,55.3220986 87.53172,54.8641358 86.6719902,54.127211 L86.6974808,54.1039641 L83.6177479,50.9900498 L83.180931,50.5471975 L62.6065076,29.7459244 L65.3873048,26.9249203 L92.9218319,54.8397266 C91.9126342,55.2814166 90.7968394,55.4813394 89.7343431,55.4057872 L89.7343431,55.4057872 Z M79.3411135,55.4057872 C78.1882413,55.3220986 77.1384904,54.8641358 76.2799193,54.127211 L76.3054099,54.1039641 L73.2245183,50.9900498 L72.7877014,50.5471975 L57.4180035,35.0066845 L59.938101,32.4506944 L82.2099693,54.9699089 C81.2876716,55.3209362 80.2946952,55.4743654 79.3411135,55.4057872 L79.3411135,55.4057872 Z M68.9490426,55.4057872 C67.7950118,55.3220986 66.7464195,54.8641358 65.8866897,54.127211 L65.9121803,54.1039641 L62.8324474,50.9900498 L62.3944719,50.5471975 L52.2294994,40.2697692 L54.7495969,37.7126167 L71.8167397,54.9699089 C70.8956007,55.3209362 69.9014657,55.4743654 68.9490426,55.4057872 L68.9490426,55.4057872 Z M78.0793268,4.15928924 C79.0873658,3.71759927 80.2031606,3.51767644 81.2656569,3.59439102 C82.4196878,3.67575496 83.4694387,4.13371772 84.3280098,4.86948023 L84.3025192,4.89505175 L87.3834108,8.00896606 L87.8202277,8.45181838 L108.393492,29.2530914 L105.612695,32.0740955 L78.0793268,4.15928924 Z M91.6588865,3.59439102 C92.8117587,3.67575496 93.8626683,4.13371772 94.7212394,4.86948023 L94.6957488,4.89505175 L97.7754817,8.00896606 L98.2134572,8.45181838 L113.583155,23.9923314 L111.063058,26.5483215 L88.7911894,4.02910694 C89.7123284,3.67924198 90.7064634,3.52581284 91.6588865,3.59439102 L91.6588865,3.59439102 Z M102.050957,3.59439102 C103.204988,3.67575496 104.254739,4.13371772 105.112152,4.86948023 L105.088978,4.89505175 L108.167553,8.00896606 L108.605528,8.45181838 L118.770501,18.7292466 L116.250403,21.2863991 L99.1832603,4.02910694 C100.105558,3.67924198 101.099693,3.52581284 102.050957,3.59439102 L102.050957,3.59439102 Z M131.3258,26.9551412 L104.718205,54.1039641 L104.741379,54.127211 C104.302244,54.5061345 103.812129,54.807181 103.282619,55.0257014 C102.585102,55.2732802 101.850508,55.4057872 101.126342,55.418573 C100.401018,55.4057872 99.6652651,55.2732802 98.9677485,55.0257014 C98.439397,54.807181 97.9481228,54.5061345 97.5089886,54.127211 L97.5333206,54.1039641 L68.0580288,24.2224751 L69.2618823,23.005503 L69.2375503,22.9810938 C69.6778432,22.6033326 71.1481897,21.0806646 72.8386827,21.1213466 C73.6601765,21.0876386 74.3484239,21.3363798 74.905742,21.666485 L74.8906793,21.6804331 L92.4873323,39.5421431 L92.5730736,39.4549675 C93.7247871,40.6149848 95.4245494,41.8075477 98.0373401,41.8075477 C100.51225,41.8075477 103.304633,40.0012682 104.434332,38.6727113 L123.853566,19.1779107 L107.782876,2.21701571 C106.655494,0.887296418 104.795836,0.102715545 102.216647,0.00856584049 C100.380162,-0.0588499975 97.9979455,0.263118746 96.3398951,1.27900568 C95.2252589,0.519996336 93.7201524,0.0759816785 91.823417,0.00856584049 C89.9869322,-0.0588499975 87.6058746,0.263118746 85.9466656,1.27900568 C84.833188,0.519996336 83.3269228,0.0759816785 81.4313461,0.00856584049 C79.5068027,-0.0611746816 76.9832292,0.294501981 75.3205442,1.42894781 C74.188528,0.580438121 72.6139016,0.0817933887 70.5955063,0.00856584049 C70.3637732,0.000429446252 70.1227708,-0.00189523782 69.8748163,0.00275413032 C69.6280206,-0.00189523782 69.3870182,0.000429446252 69.1552851,0.00856584049 C66.5760957,0.102715545 64.7164375,0.887296418 63.5878973,2.21701571 L37,29.3425918 L39.6742,32.0427123 L66.2829533,4.89505175 L66.2586213,4.86948023 C66.6989142,4.49288141 67.1890297,4.18951014 67.7173812,3.97215218 C68.4160565,3.72573567 69.1506504,3.59206633 69.8748163,3.58044291 C70.5989823,3.59206633 71.3347349,3.72573567 72.0334102,3.97215218 C72.5617616,4.18951014 73.0530358,4.49288141 73.4910114,4.86948023 L73.4666794,4.89505175 L102.940812,34.7765408 L101.738118,35.9935129 L101.76245,36.0167597 C101.323315,36.3956832 99.8518103,37.9183513 98.1601586,37.8776693 C96.1811579,37.9590333 94.9691938,36.3956832 94.5289009,36.0167597 L94.5532329,35.9935129 L79.141823,20.3263046 C78.0121242,18.9977477 76.180274,17.1914681 72.9626599,17.1914681 C70.4889091,17.1914681 67.6953665,18.9977477 66.5668263,20.3263046 L47.1464338,39.8222675 L63.2159657,56.7831625 C64.3456646,58.1117195 66.204164,58.8974627 68.7833534,58.9916124 C70.6198383,59.0578659 73.0020545,58.7358971 74.6612635,57.7188478 C75.7747411,58.4778572 77.2798476,58.9207095 79.176583,58.9916124 C81.0130678,59.0578659 83.3952841,58.7358971 85.0533344,57.7188478 C86.166812,58.4778572 87.6730772,58.9207095 89.5686539,58.9916124 C91.494356,59.0613529 94.0167708,58.7056762 95.6794558,57.5677434 C96.811472,58.4185777 98.3860984,58.9172225 100.404494,58.9916124 C100.637385,58.9997488 100.878388,59.0009111 101.126342,58.9962617 C101.371979,59.0009111 101.612982,58.9997488 101.845874,58.9916124 C104.423904,58.8974627 106.283562,58.1117195 107.412103,56.7831625 L134,29.6564241 L131.3258,26.9551412 Z" id="Fill-48" fill="#0492D0" mask="url(#mask-4)"></path>
            </g>
        </g>
    </g>
</svg>