<?xml version="1.0" encoding="UTF-8"?>
<svg width="228px" height="50px" viewBox="0 0 228 50" version="1.1" xmlns="http://www.w3.org/2000/svg" xmlns:xlink="http://www.w3.org/1999/xlink">
    <!-- Generator: Sketch 46.2 (44496) - http://www.bohemiancoding.com/sketch -->
    <title>Logo</title>
    <desc>Created with Sketch.</desc>
    <defs>
        <polygon id="path-1" points="7.50735802 0.0104852147 7.50735802 8.87488872 0.405591286 8.87488872 0.405591286 0.0104852147 7.50735802 0.0104852147"></polygon>
        <polygon id="path-3" points="0 50 227 50 227 2.84217094e-14 0 2.84217094e-14"></polygon>
    </defs>
    <g id="Header" stroke="none" stroke-width="1" fill="none" fill-rule="evenodd">
        <g id="Navigation---Mockups" transform="translate(0.000000, -5.000000)">
            <g id="Logo" transform="translate(114.000000, 30.000000) rotate(-360.000000) translate(-114.000000, -30.000000) translate(0.000000, 5.000000)">
                <g id="Group-3" transform="translate(0.000000, 0.000000)" fill="#0492D0">
                    <path d="M44.3773114,46.8406057 C43.4072682,46.7716435 42.5239681,46.3865162 41.8004026,45.7669174 L41.8215595,45.7456983 L39.2298408,43.126196 L38.8627688,42.7538002 L21.5490301,25.2522569 L23.8889819,22.8799576 L47.0600047,46.3642361 C46.2116136,46.7366319 45.2722478,46.9053241 44.3773114,46.8406057 L44.3773114,46.8406057 Z M35.6310543,46.8406057 C34.6599531,46.7716435 33.7777109,46.3865162 33.0552032,45.7669174 L33.0763601,45.7456983 L30.4846414,43.126196 L30.1165116,42.7538002 L17.1822486,29.6796296 L19.3032266,27.5290702 L38.0461129,46.4756366 C37.2696552,46.7695216 36.4329003,46.8978974 35.6310543,46.8406057 L35.6310543,46.8406057 Z M26.8858549,46.8406057 C25.9158117,46.7716435 25.0314538,46.3865162 24.3089461,45.7669174 L24.330103,45.7456983 L21.7394421,43.126196 L21.3691966,42.7538002 L12.8165249,34.1070023 L14.936445,31.9564429 L29.2998558,46.4756366 C28.5244558,46.7695216 27.687701,46.8978974 26.8858549,46.8406057 L26.8858549,46.8406057 Z M34.5689785,3.72544367 C35.4173697,3.3541088 36.3567355,3.18647762 37.2516718,3.25013503 C38.2217151,3.31909722 39.1050151,3.70422454 39.8275228,4.3238233 L39.8074238,4.34504244 L42.3980846,6.96454475 L42.7672723,7.33694059 L60.0799531,24.8384838 L57.7400014,27.2118441 L34.5689785,3.72544367 Z M45.9968712,3.25013503 C46.9679723,3.31909722 47.8512723,3.70422454 48.57378,4.3238233 L48.5526231,4.34504244 L51.1443418,6.96454475 L51.5124717,7.33694059 L64.4467347,20.4111111 L62.3257567,22.5627315 L43.5839282,3.61616512 C44.3582702,3.32121914 45.196083,3.19178241 45.9968712,3.25013503 L45.9968712,3.25013503 Z M54.7431283,3.25013503 C55.7142295,3.31909722 56.5975295,3.70422454 57.3189794,4.3238233 L57.2988803,4.34504244 L59.8895412,6.96454475 L60.2587288,7.33694059 L68.8135162,15.9837384 L66.6914804,18.1342978 L52.3291275,3.61616512 C53.1045274,3.32121914 53.9423402,3.19178241 54.7431283,3.25013503 L54.7431283,3.25013503 Z M79.3792657,22.9054205 L56.9857584,45.7456983 L57.0069153,45.7669174 C56.6366697,46.0841435 56.2241104,46.3387731 55.7798158,46.5223187 C55.1916543,46.7292052 54.5728154,46.8416667 53.963497,46.8522762 C53.3541787,46.8416667 52.7342819,46.7292052 52.1471783,46.5223187 C51.7028836,46.3387731 51.2903243,46.0841435 50.9200788,45.7669174 L50.9412357,45.7456983 L26.1369011,20.6052662 L27.1492582,19.5814429 L27.1291591,19.5612847 C27.4983468,19.2429977 28.7360247,17.9624228 30.1598832,17.9963735 C30.8506556,17.9687886 31.4303543,18.1777971 31.8989794,18.4557677 L31.8862852,18.4674383 L46.6939906,33.4948302 L46.7669819,33.4216242 C47.7349094,34.3977045 49.165115,35.4003086 51.3643734,35.4003086 C53.447269,35.4003086 55.7977992,33.8810185 56.7466856,32.7627701 L73.0903809,16.3603781 L59.5668986,2.09157022 C58.6158965,0.972260802 57.0513447,0.312345679 54.881706,0.233834877 C53.3361953,0.17654321 51.3326381,0.447087191 49.9362836,1.30221836 C48.9990335,0.664583333 47.7317359,0.291126543 46.1365066,0.233834877 C44.590996,0.17654321 42.5863809,0.447087191 41.1900264,1.30221836 C40.2527763,0.664583333 38.9865366,0.291126543 37.3902494,0.233834877 C35.7706897,0.174421296 33.6465382,0.473611111 32.248068,1.42953318 C31.2960081,0.714448302 29.9705291,0.294309414 28.2705732,0.233834877 C28.0759298,0.226408179 27.8728237,0.224286265 27.6654862,0.228530093 C27.4570909,0.224286265 27.2550426,0.226408179 27.0593414,0.233834877 C24.8897026,0.312345679 23.324093,0.972260802 22.3741487,2.09157022 L-0.000317353308,24.9138117 L2.2497176,27.1853202 L24.642167,4.34504244 L24.622068,4.3238233 C24.9923135,4.00553627 25.4048728,3.75196759 25.8491675,3.56842207 C26.4373289,3.36153549 27.05511,3.24907407 27.6654862,3.23846451 C28.2748046,3.24907407 28.8936435,3.36153549 29.481805,3.56842207 C29.9260996,3.75196759 30.3386589,4.00553627 30.7089045,4.3238233 L30.6888054,4.34504244 L55.4920821,29.4854745 L54.4786672,30.5082369 L54.4998241,30.529456 C54.1295786,30.8466821 52.8919007,32.1283179 51.4691,32.0943673 C49.8029952,32.1633295 48.7832332,30.8466821 48.4129877,30.529456 L48.4330867,30.5082369 L35.4639149,17.3290316 C34.5139706,16.2086613 32.9716335,14.6904321 30.263552,14.6904321 C28.1806564,14.6904321 25.8311841,16.2086613 24.8812399,17.3290316 L8.53860233,33.7303627 L22.0620846,48.0002315 C23.0120289,49.117419 24.5765807,49.7783951 26.7472773,49.8579668 C28.2917301,49.9131366 30.2963452,49.6436535 31.6926997,48.7885224 C32.6310077,49.4261574 33.8972474,49.7996142 35.4935345,49.8579668 C37.0379873,49.9131366 39.0426023,49.6436535 40.437899,48.7885224 C41.376207,49.4261574 42.6424467,49.7996142 44.2387338,49.8579668 C45.8572357,49.9163194 47.9813872,49.6171296 49.3809153,48.6612076 C50.3329752,49.3762924 51.6584542,49.7964313 53.3573522,49.8579668 C53.5530534,49.8643326 53.7561596,49.8664545 53.963497,49.8622106 C54.1708345,49.8664545 54.3739407,49.8643326 54.5696419,49.8579668 C56.7403385,49.7783951 58.3048903,49.117419 59.2548345,48.0002315 L81.6293006,25.176929 L79.3792657,22.9054205 Z" id="Fill-1"></path>
                </g>
                <path d="M93.6669962,21.3661112 C93.6754148,22.2669561 93.1324153,22.5267543 92.3926311,22.5267543 L90.3953189,22.5267543 L90.3174468,22.5098568 C90.2753539,22.4665571 90.2753539,22.4222014 90.2753539,22.4222014 L90.2753539,16.6253227 C90.2753539,16.6253227 90.2753539,16.5302746 90.3090282,16.5038723 C90.343755,16.4785262 90.421627,16.4785262 90.421627,16.4785262 L92.3926311,16.4785262 C92.8167179,16.4785262 93.2439617,16.8238676 93.2439617,17.249472 L93.2439617,17.7637878 C93.2523803,18.0056325 92.8767004,18.6466792 92.3747416,18.6149965 L91.4771086,18.6234452 C91.3245215,18.6234452 91.2013996,18.7480638 91.2013996,18.9011969 L91.2013996,19.8696315 C91.2013996,20.0238207 91.3245215,20.1473832 91.4771086,20.1473832 L92.4810263,20.1473832 C93.4228569,20.2044121 93.6585776,20.7430181 93.6669962,20.976414 L93.6669962,21.3661112 Z M93.9448099,19.2676602 L93.8942984,19.2676602 L93.8942984,19.2528749 L93.8827228,19.2528749 C93.8258973,19.2528749 93.7785426,19.2064069 93.7785426,19.148322 C93.7785426,19.0912931 93.8258973,19.0448252 93.8827228,19.0448252 L94.136333,19.0448252 C94.988716,18.948721 95.6516805,18.2242431 95.6516805,17.3424079 L95.6516805,16.7193147 C95.6516805,15.773058 94.8866405,15.0063365 93.9448099,15.0063365 L87.0868101,15 C87.0415602,15 87.0036765,15.0369632 87.0036765,15.082375 C87.0036765,15.082375 87.0005195,16.1659235 87.0036765,16.1669796 C87.0036765,16.1669796 86.9952579,16.2271767 87.0384032,16.2620277 C87.0626067,16.2810373 87.141531,16.2852617 87.141531,16.2852617 C87.4614377,16.3222248 87.9623443,16.582023 87.9623443,16.793241 L87.9623443,22.171908 C87.9528733,22.40636 87.4993214,22.6218024 87.1246938,22.6830556 C87.1246938,22.6830556 87.0678683,22.7052335 87.0289323,22.7443088 C86.985787,22.7865525 87.0036765,22.8647031 87.0036765,22.8647031 C87.0005195,22.8647031 87.0036765,23.9134006 87.0036765,23.9134006 C87.0036765,23.9588125 87.0415602,23.9957756 87.0868101,23.9957756 L87.9591873,23.9957756 C87.9865477,23.9978878 88.0128558,24 88.039164,24 L93.9448099,24 C95.1549833,24 96,22.8171791 96,21.8709223 L96,20.9806383 C96,20.0343816 95.4643667,19.2676602 93.9448099,19.2676602 L93.9448099,19.2676602 Z" id="Fill-4" fill="#231F20"></path>
                <path d="M216.666996,21.3661112 C216.675415,22.2669561 216.131363,22.5267543 215.392631,22.5267543 L213.395319,22.5267543 L213.318499,22.5098568 C213.275354,22.4665571 213.275354,22.4222014 213.275354,22.4222014 L213.275354,16.6253227 C213.275354,16.6253227 213.275354,16.5302746 213.310081,16.5038723 C213.343755,16.4785262 213.421627,16.4785262 213.421627,16.4785262 L215.392631,16.4785262 C215.816718,16.4785262 216.245014,16.8238676 216.245014,17.249472 L216.245014,17.7637878 C216.25238,18.0056325 215.875648,18.6466792 215.374742,18.6149965 L214.478161,18.6234452 C214.325574,18.6234452 214.2014,18.7480638 214.2014,18.9011969 L214.2014,19.8696315 C214.2014,20.0238207 214.325574,20.1473832 214.478161,20.1473832 L215.482079,20.1473832 C216.423909,20.2044121 216.658578,20.7430181 216.666996,20.976414 L216.666996,21.3661112 Z M216.943758,19.2676602 L216.894298,19.2676602 L216.894298,19.2528749 L216.882723,19.2528749 C216.825897,19.2528749 216.779595,19.2064069 216.779595,19.148322 C216.779595,19.0912931 216.825897,19.0448252 216.882723,19.0448252 L217.136333,19.0448252 C217.988716,18.948721 218.651681,18.2242431 218.651681,17.3424079 L218.651681,16.7193147 C218.651681,15.773058 217.887693,15.0063365 216.943758,15.0063365 L210.08681,15 C210.040508,15 210.003676,15.0369632 210.003676,15.082375 C210.003676,15.082375 210.00052,16.1659235 210.003676,16.1669796 C210.003676,16.1669796 209.994206,16.2271767 210.038403,16.2620277 C210.062607,16.2810373 210.141531,16.2852617 210.141531,16.2852617 C210.461438,16.3222248 210.961292,16.582023 210.961292,16.793241 L210.961292,22.171908 C210.952873,22.40636 210.499321,22.6218024 210.124694,22.6830556 C210.124694,22.6830556 210.068921,22.7052335 210.028932,22.7443088 C209.985787,22.7865525 210.003676,22.8647031 210.003676,22.8647031 C210.00052,22.8647031 210.003676,23.9134006 210.003676,23.9134006 C210.003676,23.9588125 210.040508,23.9957756 210.08681,23.9957756 L210.96024,23.9957756 C210.986548,23.9978878 211.012856,24 211.040216,24 L216.943758,24 C218.154983,24 219,22.8171791 219,21.8709223 L219,20.9806383 C219,20.0343816 218.464367,19.2676602 216.943758,19.2676602 L216.943758,19.2676602 Z" id="Fill-6" fill="#231F20"></path>
                <path d="M114.720182,15.0003267 L111.95128,15.0003267 C111.706808,14.9971611 111.67811,15.0119337 111.671732,15.2767851 L111.671732,15.9246688 C111.67811,16.0650084 111.924707,16.0069732 111.924707,16.0069732 C111.924707,16.0069732 112.073515,16.0154147 112.151108,16.1452024 C112.169178,16.1736924 112.195751,16.2496658 112.195751,16.2496658 C112.195751,16.2496658 112.200003,16.4480406 112.084144,16.655912 C111.953406,16.8891079 111.377304,17.8356089 111.13177,18.2144203 C111.099882,18.3326011 110.943633,18.4212366 110.81502,18.4212366 L110.791636,18.4212366 C110.666211,18.4212366 110.582241,18.32627 110.526969,18.2270826 L109.484246,16.7276646 C109.484246,16.7276646 109.314179,16.3984469 109.46724,16.1283195 C109.527826,16.0217458 109.737221,15.9753177 109.794618,15.9753177 C109.911539,15.9753177 109.975315,15.9637106 109.975315,15.7558392 L109.975315,15.2155844 C109.975315,15.1248385 109.942364,15.0003267 109.788241,15.0003267 L106.278485,15.0003267 C106.124361,15.0003267 106,15.0182648 106,15.1702115 L106,15.8771854 C106.011692,16.136761 105.96705,16.1863547 106.156249,16.1947961 C106.476187,16.2095687 106.795063,16.5113517 106.795063,16.5113517 L109.266348,20.0135109 L109.266348,22.3781806 C109.274851,22.4974165 108.9868,22.5765554 108.785909,22.6103213 L108.556319,22.6567494 C108.514865,22.6567494 108.481914,22.6873498 108.475537,22.7274468 L108.472348,22.7274468 L108.472348,22.740109 L108.472348,23.9166404 L108.472348,23.9303578 L108.475537,23.9293026 C108.480851,23.9693996 108.514865,24 108.556319,24 L112.425341,24 C112.466795,24 112.500808,23.9693996 112.506123,23.9293026 L112.509312,23.9303578 L112.509312,23.9166404 L112.509312,22.740109 L112.509312,22.7274468 L112.506123,22.7274468 C112.499746,22.6873498 112.466795,22.6567494 112.425341,22.6567494 L112.325427,22.6567494 C112.021432,22.6103213 111.619649,22.4298846 111.602642,22.2800484 L111.602642,20.230879 L113.625376,17.123359 C113.625376,17.123359 113.979328,16.6485257 114.089871,16.5240139 C114.216359,16.3794535 114.350286,16.3066458 114.467207,16.2697143 L114.772265,16.2232861 C115.005044,16.2380587 114.999729,16.1452024 114.999729,15.9922006 L114.999729,15.2767851 C115.005044,15.0256511 114.932766,14.9971611 114.720182,15.0003267" id="Fill-8" fill="#231F20"></path>
                <path d="M199.972805,22.5991018 L199.972805,20.7163456 C199.972805,20.5631722 199.853953,20.4376551 199.707906,20.4376551 L199.025011,20.4376551 C198.879972,20.4376551 198.76112,20.5631722 198.76112,20.7163456 L198.76112,21.0758776 C198.75004,21.2418154 198.71378,21.4226451 198.650325,21.5545444 C198.475069,21.9268408 198.033907,22.2523342 197.857643,22.3225387 C197.426553,22.4927314 196.866539,22.4384824 196.866539,22.4384824 L196.867546,22.4416736 L195.961049,22.4416736 C195.857305,22.3672143 195.789821,22.2863728 195.789821,22.2055313 L195.789821,16.7944687 C195.789821,16.5817279 196.257171,16.3636686 196.615741,16.3030375 C196.615741,16.3030375 196.673153,16.3051649 196.698333,16.2679352 C196.723514,16.2307056 196.712435,16.1807115 196.714449,16.1807115 L196.706391,15.0840326 C196.706391,15.0382933 196.671138,15 196.627828,15 L193.08745,15 C193.04414,15 193.00788,15.0382933 193.00788,15.0840326 L193.000829,16.1807115 C193.002844,16.1807115 192.991765,16.2307056 193.015938,16.2679352 C193.042125,16.3051649 193.099537,16.3030375 193.099537,16.3030375 C193.4571,16.3636686 193.925457,16.5817279 193.925457,16.7944687 L193.925457,22.2055313 C193.925457,22.4182721 193.4571,22.6363314 193.099537,22.6969625 C193.099537,22.6969625 193.042125,22.6948351 193.015938,22.7320648 C192.991765,22.7703581 193.002844,22.8192885 193.000829,22.8192885 L193.00788,23.9159674 C193.00788,23.9627704 193.04414,24 193.08745,24 L195.919753,24 C195.92076,24 195.922774,24 195.923781,24 L199.736108,24 C199.882155,24 200,23.8755466 200,23.7202458 L200,22.720364 C200,22.6767522 199.989928,22.6363314 199.972805,22.5991018" id="Fill-10" fill="#231F20"></path>
                <path d="M171.972803,22.5962814 L171.972803,20.7097347 C171.972803,20.556253 171.85495,20.4304832 171.708893,20.4304832 L171.025948,20.4304832 C170.879891,20.4304832 170.761031,20.556253 170.761031,20.7097347 L170.761031,21.0699905 C170.750958,21.2362624 170.713688,21.4174562 170.650228,21.549621 C170.47496,21.922667 170.034773,22.2488157 169.858497,22.3191615 C169.427376,22.4896968 168.867321,22.4353387 168.867321,22.4353387 L168.867321,22.4385362 L167.961766,22.4385362 C167.858014,22.363927 167.789519,22.2829228 167.789519,22.2019185 L167.789519,16.7970156 C167.789519,16.5838465 168.256902,16.366414 168.615498,16.304595 C168.615498,16.304595 168.673921,16.3067267 168.698096,16.2694221 C168.723278,16.2321175 168.712198,16.1820227 168.71522,16.1820227 L168.707162,15.083136 C168.707162,15.0362387 168.670899,15 168.627586,15 L165.087961,15 C165.04364,15 165.008385,15.0362387 165.008385,15.083136 L165.000326,16.1820227 C165.003348,16.1820227 164.991261,16.2321175 165.016443,16.2694221 C165.041625,16.3067267 165.099041,16.304595 165.099041,16.304595 C165.457637,16.366414 165.926028,16.5838465 165.926028,16.7970156 L165.926028,22.2019185 C165.926028,22.4150876 165.457637,22.633586 165.099041,22.6943392 C165.099041,22.6943392 165.041625,22.6922075 165.016443,22.7295121 C164.991261,22.7678825 165.003348,22.8169114 165.000326,22.8169114 L165.008385,23.9157982 C165.008385,23.9626954 165.04364,24 165.087961,24 L167.919459,24 C167.921474,24 167.922481,24 167.924496,24 L171.736089,24 C171.882147,24 172,23.8752961 172,23.7196826 L172,22.7177878 C172,22.6740881 171.989927,22.633586 171.972803,22.5962814" id="Fill-12" fill="#231F20"></path>
                <path d="M205.000696,22.4309142 C204.753622,22.4267271 204.244755,22.4152128 204.087048,22.3879972 C203.826306,22.34194 203.504585,22.2048151 203.342672,21.9295185 C203.215456,21.7128402 203.280641,20.9790649 203.26487,20.7309839 L203.26487,16.7658758 C203.26487,16.555478 203.75271,16.34194 204.128052,16.2812282 C204.128052,16.2812282 204.189032,16.2833217 204.214265,16.2466853 C204.239498,16.2100488 204.228984,16.1608514 204.231087,16.1608514 L204.222676,15.0816469 C204.222676,15.0366364 204.185878,15 204.139617,15 L200.091811,15 C200.04555,15 200.0077,15.0366364 200.0077,15.0816469 L200.000341,16.1608514 C200.003495,16.1608514 199.990878,16.2100488 200.017163,16.2466853 C200.043447,16.2833217 200.103376,16.2812282 200.103376,16.2812282 C200.477666,16.34194 200.966557,16.555478 200.966557,16.7658758 L200.966557,20.5310537 L200.960249,20.5331472 L200.960249,21.311933 C200.960249,21.311933 200.947633,22.4455687 201.148446,22.7595953 C201.65521,23.5530356 202.422716,24 204.722081,24 L205.167865,24 C207.46723,24 208.346182,23.5530356 208.851895,22.7595953 C209.052708,22.4455687 209.040092,21.311933 209.040092,21.311933 L209.040092,20.5331472 L209.034835,20.5310537 L209.034835,16.7658758 C209.034835,16.555478 209.522674,16.34194 209.896965,16.2812282 C209.896965,16.2812282 209.956893,16.2833217 209.983178,16.2466853 C210.008411,16.2100488 209.996846,16.1608514 210,16.1608514 L209.991589,15.0816469 C209.991589,15.0366364 209.954791,15 209.90853,15 L205.860724,15 C205.814463,15 205.777665,15.0366364 205.777665,15.0816469 L205.769254,16.1608514 C205.772408,16.1608514 205.760843,16.2100488 205.787127,16.2466853 C205.81236,16.2833217 205.872289,16.2812282 205.872289,16.2812282 C206.247631,16.34194 206.734419,16.555478 206.734419,16.7658758 L206.734419,20.7309839 C206.7197,20.9790649 206.784885,21.7128402 206.656617,21.9295185 C206.496807,22.2048151 206.174034,22.34194 205.913292,22.3879972 C205.755586,22.4152128 205.246719,22.4267271 205.000696,22.4309142" id="Fill-14" fill="#231F20"></path>
                <path d="M191.978648,21.3818196 C191.978648,21.2345322 191.858668,21.1156865 191.711235,21.1156865 L191.021861,21.1156865 C190.874428,21.1156865 190.755465,21.2345322 190.755465,21.3818196 L190.755465,21.4732394 C190.73818,21.8572025 190.269446,22.3041436 190.021352,22.4036896 C189.577021,22.5814503 189.420437,22.5814503 188.79817,22.6037974 C188.789019,22.6048132 188.779868,22.6048132 188.770717,22.6048132 L188.767666,22.6037974 C188.144382,22.5814503 187.988815,22.5814503 187.544484,22.4036896 C187.295374,22.3041436 186.802237,21.7982875 186.651754,21.3990878 C186.543976,21.0902921 186.401627,20.6992185 186.401627,19.4162942 C186.401627,18.1333699 186.49212,17.5371098 186.651754,17.2831659 C186.935435,16.8321617 187.385867,16.3659208 188.437214,16.3659208 C189.487544,16.3659208 189.870869,16.7498839 190.054906,16.9997646 C190.054906,16.9997646 190.33757,17.2333929 190.354855,17.5574253 L190.354855,17.6498609 C190.354855,17.7971483 190.473818,17.915994 190.621251,17.915994 L191.310625,17.915994 C191.458058,17.915994 191.578038,17.7971483 191.578038,17.6498609 L191.600407,15.5837737 C191.600407,15.5837737 191.639044,15.433439 191.456024,15.2831042 C191.456024,15.2831042 190.454499,14.9834505 188.786985,15.0007187 C187.403152,15.0139237 186.268429,15.3003724 185.684799,15.6670673 C185.101169,16.0337622 184,17.1003264 184,19.2832277 C184,21.4651132 184.483986,22.2655442 185.067616,22.8150787 C185.547534,23.2670987 186.267412,23.7424816 187.724453,23.9232896 C187.771225,23.9608733 188.159634,23.9862677 188.467717,23.9862677 C188.567361,23.9903308 188.665989,23.9954097 188.7697,23.998457 C189.07575,24.0045516 189.340112,23.9923623 189.57092,23.9659522 C191.323843,23.8999268 191.733604,23.7150557 191.733604,23.7150557 C191.881037,23.7150557 192,23.5951942 192,23.4489225 L191.978648,21.3818196 Z" id="Fill-16" fill="#231F20"></path>
                <path d="M149.973821,21.3584568 L150,21.3157942 L149.976003,19.2486913 C149.976003,19.1014039 149.847291,18.9825582 149.690219,18.9825582 L146.34917,18.9825582 C146.192098,18.9825582 146.064477,19.1014039 146.064477,19.2486913 L146.064477,19.3401111 L146.064477,20.0572485 L146.064477,20.1486683 C146.064477,20.2969715 146.192098,20.4158172 146.34917,20.4158172 L147.638468,20.4158172 L147.638468,22.3082068 C147.573021,22.3518851 147.511938,22.3843899 147.459581,22.4036896 C146.98182,22.5814503 146.814932,22.5814503 146.147376,22.6037974 C146.136468,22.6048132 146.127742,22.6048132 146.116834,22.6048132 L146.113562,22.6037974 C145.447097,22.5814503 145.279118,22.5814503 144.801357,22.4036896 C144.535208,22.3041436 144.00509,21.7982875 143.844746,21.3990878 C143.728033,21.0902921 143.576415,20.6992185 143.576415,19.4162942 C143.576415,18.1333699 143.672403,17.5371098 143.844746,17.2831659 C144.149073,16.8321617 144.632287,16.3659208 145.75906,16.3659208 C146.886923,16.3659208 147.298146,16.7498839 147.495576,16.9997646 C147.495576,16.9997646 147.798812,17.2323772 147.816265,17.5574253 L147.816265,17.6498609 C147.816265,17.7971483 147.946067,17.915994 148.103139,17.915994 L148.842686,17.915994 C149.000848,17.915994 149.12956,17.7971483 149.12956,17.6498609 L149.153557,15.5837737 C149.153557,15.5837737 149.195007,15.433439 148.997576,15.2831042 C148.997576,15.2831042 147.924252,14.9834505 146.135378,15.0007187 C144.65083,15.0139237 143.433523,15.3003724 142.807417,15.6670673 C142.180221,16.0337622 141,17.1003264 141,19.2832277 C141,21.4651132 141.518119,22.2655442 142.145316,22.8150787 C142.660162,23.2670987 143.432432,23.7424816 144.995516,23.9232896 C145.044601,23.9608733 145.461277,23.9862677 145.792874,23.9862677 C145.89977,23.9903308 146.005575,23.9954097 146.116834,23.998457 C146.444067,24.0045516 146.727669,23.9923623 146.976367,23.9659522 C148.856866,23.8999268 149.713126,23.7150557 149.713126,23.7150557 C149.872379,23.7150557 150,23.5951942 150,23.4489225 L149.976003,21.3818196 C149.976003,21.3736934 149.973821,21.366583 149.973821,21.3584568" id="Fill-18" fill="#231F20"></path>
                <path d="M104.200816,21.403592 C104.041966,21.8041342 103.521412,22.3104033 103.258452,22.4100305 C102.79693,22.5848865 102.630568,22.5879363 101.999463,22.609285 C101.370506,22.5879363 101.20307,22.5848865 100.741548,22.4100305 C100.478588,22.3104033 99.9580337,21.8041342 99.7991843,21.403592 C99.6843405,21.0955608 99.5351508,20.7031515 99.5351508,19.4191799 C99.5351508,18.1352084 99.6296018,17.5384615 99.7991843,17.285327 C100.098637,16.8339546 100.574112,16.3673331 101.682838,16.3673331 L102.317162,16.3673331 C103.60191,16.3622501 103.901363,16.8339546 104.200816,17.285327 C104.370398,17.5384615 104.464849,18.1352084 104.464849,19.4191799 C104.464849,20.7031515 104.314586,21.0955608 104.200816,21.403592 M105.222604,15.6668926 C104.631212,15.3151474 103.50424,15.0376144 102.122894,15.0040664 L102.122894,15 L101.877106,15 L101.877106,15.0040664 C100.49576,15.0376144 99.3698615,15.3151474 98.7784695,15.6668926 C98.161318,16.0338868 97,17.1013216 97,19.2860047 C97,21.4696713 97.5108941,22.2717723 98.1269722,22.8217553 C98.633573,23.2741444 99.3934743,23.7488987 100.931523,23.9308709 C100.979822,23.9674687 101.389825,23.9928838 101.71611,23.9928838 C101.769776,23.9959336 102.122894,24 102.122894,24 C102.176559,23.9989834 103.020178,23.9674687 103.068477,23.9308709 C104.606526,23.7488987 105.366427,23.2741444 105.874101,22.8217553 C106.489106,22.2717723 107,21.4696713 107,19.2860047 C107,17.1013216 105.837609,16.0338868 105.222604,15.6668926" id="Fill-20" fill="#231F20"></path>
                <path d="M153.981563,22.7295247 C153.955535,22.6911224 153.892634,22.6943226 153.892634,22.6943226 C153.506551,22.6324523 153.003341,22.4148394 153.003341,22.2004267 L153.003341,20.2525779 L153.003341,18.8178262 L153.003341,16.7995733 C153.003341,16.5862273 153.506551,16.3686144 153.892634,16.3067441 C153.892634,16.3067441 153.955535,16.3078108 153.981563,16.271542 C154.008676,16.2342065 153.996746,16.1840702 154,16.1840702 L153.991324,15.0842717 C153.991324,15.0384023 153.953366,15 153.905648,15 L150.094703,15 C150.046985,15 150.009027,15.0384023 150.009027,15.0842717 L150.000351,16.1840702 C150.003605,16.1840702 149.990591,16.2342065 150.017704,16.271542 C150.044816,16.3078108 150.106633,16.3067441 150.106633,16.3067441 C150.492716,16.3686144 150.995926,16.5862273 150.995926,16.7995733 L150.995926,18.8178262 L150.995926,20.2525779 L150.995926,22.2004267 C150.995926,22.4148394 150.492716,22.6324523 150.106633,22.6943226 C150.106633,22.6943226 150.044816,22.6911224 150.017704,22.7295247 C149.990591,22.7668603 150.003605,22.8169966 150.000351,22.8180633 L150.009027,23.9157283 C150.009027,23.9626645 150.046985,24 150.094703,24 L153.905648,24 C153.953366,24 153.991324,23.9626645 153.991324,23.9157283 L154,22.8180633 C153.996746,22.8169966 154.008676,22.7668603 153.981563,22.7295247" id="Fill-22" fill="#231F20"></path>
                <path d="M164.981516,22.7310288 C164.95542,22.692672 164.892356,22.6958684 164.892356,22.6958684 C164.505273,22.6340713 164.001848,22.416716 164.001848,22.2025571 L163.997499,20.9719427 C163.997499,20.0172842 163.731108,19.2437552 162.158856,19.2437552 L162.106665,19.2437552 L162.106665,19.2288386 L162.095792,19.2288386 C162.037077,19.2288386 161.989236,19.1819581 161.989236,19.1233574 C161.989236,19.0668877 162.037077,19.0200071 162.095792,19.0200071 L162.357834,19.0200071 C163.238556,18.9219841 163.923562,18.1207529 163.923562,17.2321534 L163.923562,16.7281875 C163.923562,15.7735291 163.133087,15 162.158856,15 L158.332608,15.0021309 L158.332608,15.0106547 L155.093509,15.0106547 C155.046754,15.0106547 155.008698,15.0490115 155.008698,15.0948266 L155,16.1933231 C155.003262,16.1933231 154.991302,16.2434 155.017397,16.2806914 C155.04458,16.3169172 155.106556,16.3158518 155.106556,16.3158518 C155.493639,16.3776489 155.998152,16.5950041 155.998152,16.8080975 L155.998152,18.8239612 L155.998152,20.2570143 L155.998152,22.2025571 C155.998152,22.416716 155.493639,22.6340713 155.106556,22.6958684 C155.106556,22.6958684 155.04458,22.692672 155.017397,22.7310288 C154.991302,22.7683201 155.003262,22.8183971 155,22.8194625 L155.008698,23.9158281 C155.008698,23.9627087 155.046754,24 155.093509,24 L158.915407,24 C158.962162,24 159.001305,23.9627087 159.001305,23.9158281 L159.010003,22.8194625 C159.006741,22.8183971 159.018702,22.7683201 158.991519,22.7310288 C158.965424,22.692672 158.902359,22.6958684 158.902359,22.6958684 C158.515277,22.6340713 158.010764,22.416716 158.010764,22.2025571 L158.010764,20.2570143 L158.010764,18.8239612 L158.010764,16.8080975 C158.010764,16.6930271 158.158639,16.5768912 158.354355,16.485261 L160.555072,16.485261 C160.994346,16.485261 161.435794,16.8326033 161.435794,17.263052 L161.435794,17.6562093 C161.44558,17.9012667 161.055235,18.6172606 160.538763,18.5852966 L160.503969,18.5938203 L159.182886,18.5938203 C159.025226,18.5938203 158.896923,18.7195454 158.896923,18.8740381 L158.896923,19.8521369 C158.896923,20.0066296 159.025226,20.1323547 159.182886,20.1323547 L160.647494,20.1323547 C161.620637,20.1888244 161.579319,20.7332781 161.586931,20.9676808 L161.566272,23.4992305 C161.566272,23.4992305 161.569534,23.6878182 161.602153,23.7911685 C161.661955,23.9765597 162.006633,24 162.006633,24 L164.905404,24 C164.953246,24 164.991302,23.9627087 164.991302,23.9158281 L165,22.8194625 C164.996738,22.8183971 165.008698,22.7683201 164.981516,22.7310288" id="Fill-24" fill="#231F20"></path>
                <path d="M116.354885,19.6718585 C117.047022,19.8917337 118.23613,20.2560984 119.061061,20.3932586 C119.885991,20.5304189 120.250168,20.9429466 120.117375,21.6978515 C119.987599,22.4422861 119.160656,22.5920106 118.727064,22.6014338 C118.727064,22.6014338 117.672762,22.6548321 117.243194,22.4873081 C117.066136,22.4182045 116.574196,21.8360587 116.486672,21.6727229 L116.312632,21.2340195 C116.312632,21.1628218 116.222091,21.087436 116.076219,21.087436 L115.322715,21.087436 C115.177849,21.087436 115.12956,21.0832479 115.12956,21.2340195 L115.133584,22.9511401 L115.133584,23.7102331 C115.133584,23.9437196 115.474623,23.9992119 116.420275,23.9992119 L118.939333,23.9992119 C118.939333,23.9992119 120.011743,24.0389988 120.810518,23.5531794 C121.461408,23.157404 122.031818,22.0758274 121.998619,21.2863707 C121.946307,20.0121416 121.866832,19.3273874 121.173689,18.8813549 C120.558008,18.4845325 119.292444,18.297115 118.467513,18.1599548 C117.641576,18.0227945 116.948432,17.8856343 116.948432,17.1296824 C116.948432,16.3737305 117.906157,16.2365703 118.338743,16.2261 C118.338743,16.2261 118.899092,16.1727018 119.32866,16.3412728 C119.504712,16.4093294 119.671711,16.4679628 119.91919,16.7862583 C120.040918,16.9401709 120.231054,17.4396018 120.231054,17.4396018 C120.231054,17.5924674 120.348758,17.7149693 120.495636,17.7149693 L121.176707,17.7149693 C121.387969,17.7421919 121.442294,17.6846055 121.441288,17.4396018 L121.43827,15.1518526 C121.43827,14.9937519 120.579135,15.000034 120.150573,15.000034 L117.366934,15.000034 C117.366934,15.000034 116.409209,15.0084102 115.826728,15.5832268 C115.401184,16.0051778 114.968598,16.8208101 115.001797,17.6102668 C115.033989,18.4007705 115.166783,19.2938826 116.354885,19.6718585" id="Fill-26" fill="#231F20"></path>
                <path d="M174.354888,19.6718585 C175.047025,19.8917337 176.236132,20.2560984 177.061062,20.3932586 C177.885993,20.5304189 178.249163,20.9429466 178.117376,21.6978515 C177.9876,22.4422861 177.160657,22.5920106 176.727066,22.6014338 C176.727066,22.6014338 175.672764,22.6548321 175.242191,22.4873081 C175.066139,22.4182045 174.574198,21.8360587 174.486675,21.6727229 L174.312635,21.2340195 C174.312635,21.1628218 174.222094,21.087436 174.076222,21.087436 L173.322719,21.087436 C173.176847,21.087436 173.13057,21.0832479 173.13057,21.2340195 L173.133588,22.9511401 L173.133588,23.7102331 C173.133588,23.9437196 173.47362,23.9992119 174.420279,23.9992119 L176.939335,23.9992119 C176.939335,23.9992119 178.011744,24.0389988 178.810518,23.5531794 C179.461409,23.157404 180.031818,22.0758274 179.998619,21.2863707 C179.945301,20.0121416 179.866832,19.3273874 179.173689,18.8813549 C178.558009,18.4845325 177.292445,18.297115 176.467515,18.1599548 C175.641578,18.0227945 174.948435,17.8856343 174.948435,17.1296824 C174.948435,16.3737305 175.906159,16.2365703 176.338745,16.2261 C176.338745,16.2261 176.899094,16.1727018 177.328662,16.3412728 C177.504714,16.4093294 177.670706,16.4679628 177.919191,16.7862583 C178.039913,16.9401709 178.231055,17.4396018 178.231055,17.4396018 C178.231055,17.5924674 178.348759,17.7149693 178.495636,17.7149693 L179.176707,17.7149693 C179.386964,17.7421919 179.4433,17.6846055 179.441288,17.4396018 L179.437264,15.1518526 C179.437264,14.9937519 178.579135,15.000034 178.150574,15.000034 L175.366937,15.000034 C175.366937,15.000034 174.409212,15.0084102 173.826731,15.5832268 C173.400182,16.0051778 172.968602,16.8208101 173.0018,17.6102668 C173.033993,18.4007705 173.165781,19.2938826 174.354888,19.6718585" id="Fill-28" fill="#231F20"></path>
                <g id="Group-32" transform="translate(220.000000, 15.000000)">
                    <mask id="mask-2" fill="white">
                        <use xlink:href="#path-1"></use>
                    </mask>
                    <g id="Clip-31"></g>
                    <path d="M1.77998683,4.61195625 C2.48214321,4.82851875 3.68948477,5.18739375 4.5263572,5.3224875 C5.36322963,5.45758125 5.73165761,5.86389375 5.59694156,6.607425 C5.46630782,7.34064375 4.62739424,7.4881125 4.18752593,7.49739375 C4.18752593,7.49739375 3.11694156,7.5499875 2.68115556,7.3849875 C2.50255473,7.316925 2.003493,6.74355 1.91470288,6.582675 L1.73814321,6.15058125 C1.73814321,6.08045625 1.64629136,6.00620625 1.49830782,6.00620625 L0.733896296,6.00620625 C0.585912757,6.00620625 0.538966255,6.00208125 0.538966255,6.15058125 L0.541007407,7.84183125 L0.541007407,8.5894875 C0.541007407,8.81945625 0.886982716,8.8741125 1.84734486,8.8741125 L4.40286749,8.8741125 C4.40286749,8.8741125 5.49080165,8.9133 6.30113909,8.4348 C6.96145185,8.0449875 7.54011852,6.97970625 7.50643951,6.20214375 C7.45234897,4.9471125 7.37172346,4.272675 6.6685465,3.8333625 C6.04497449,3.44251875 4.76108971,3.257925 3.92421728,3.12283125 C3.08632428,2.9877375 2.38314733,2.85264375 2.38314733,2.10808125 C2.38314733,1.36351875 3.35371523,1.228425 3.79358354,1.2181125 C3.79358354,1.2181125 4.36102387,1.16551875 4.79783045,1.33155 C4.97643128,1.39858125 5.14482634,1.45633125 5.39690864,1.76983125 C5.51937778,1.921425 5.71328724,2.41333125 5.71328724,2.41333125 C5.71328724,2.56389375 5.83269465,2.68455 5.98067819,2.68455 L6.67262881,2.68455 C6.88592922,2.7113625 6.94206091,2.65464375 6.94104033,2.41333125 L6.93695802,0.16005 C6.93695802,0.00433125 6.06640658,0.01051875 5.63164115,0.01051875 L2.80668642,0.01051875 C2.80668642,0.01051875 1.83611852,0.01876875 1.24520494,0.584925 C0.812480658,1.00051875 0.374653498,1.8038625 0.407311934,2.581425 C0.440990947,3.36001875 0.57468642,4.239675 1.77998683,4.61195625" id="Fill-30" fill="#231F20" mask="url(#mask-2)"></path>
                </g>
                <path d="M130.609623,23.3666196 C128.640239,23.3301948 128.333773,22.6105284 128.333773,21.4570753 C128.333773,20.9471276 128.571784,20.4592556 128.976193,20.0740354 L132.456843,23.0100978 C132.092454,23.2507224 131.343667,23.3809688 130.609623,23.3666196 M130.160983,16.3410418 C130.988756,16.3774666 131.439503,16.7759322 131.439503,17.2108227 C131.439503,17.717459 130.333699,18.1887743 130.056721,18.1887743 C130.013542,18.1887743 129.951407,18.1755289 129.879793,18.154557 C129.768159,18.0850187 129.616506,18.0254144 129.499607,17.9945085 C129.151015,17.8101768 128.787679,17.5176743 128.787679,17.2108227 C128.787679,16.7759322 129.331103,16.3057207 130.160983,16.3410418 M136.96747,23.8467652 C136.897962,23.7385945 136.794754,23.7750193 136.586231,23.7385945 C136.379814,23.7021696 136.241852,23.5939989 136.241852,23.5939989 L135.159217,22.7882374 C135.307711,22.5023577 135.425663,22.2043363 135.516234,21.9913062 C135.654196,21.6645865 135.722651,20.614889 135.722651,20.2528482 C135.722651,19.8908074 135.800583,19.2572361 135.679472,19.1479616 C135.646824,19.1181594 135.506756,19.0938762 135.506756,19.0938762 L134.030244,19.0938762 C134.030244,19.0938762 133.943886,19.1115367 133.891228,19.1667259 C133.849103,19.211981 133.857528,19.4194922 133.857528,19.4194922 C133.857528,19.4194922 133.839624,19.9272323 133.857528,20.1799985 C133.890175,20.6546252 133.775382,21.0884118 133.621623,21.4493488 L131.43845,19.5486348 C132.639037,19.0740081 133.425738,18.0055463 133.407834,17.2108227 C133.374133,15.6544888 132.049275,15.0341629 130.160983,15.0010494 C128.052583,14.9657283 126.636101,15.8244714 126.636101,17.2108227 C126.636101,17.6092883 126.738256,17.9713291 126.922557,18.2881147 C126.917291,18.3035677 126.912025,18.3190207 126.912025,18.3333698 L126.991011,18.3995968 C127.128973,18.6082118 127.302743,18.7947511 127.506,18.9592147 C126.569752,19.6435601 126,20.6082663 126,21.6281617 C126,23.5520552 126.843571,24.8876324 130.402153,24.9969069 C131.684886,25.0355393 132.893899,24.7099234 133.811189,24.152513 L134.168206,24.3180805 C134.315647,24.4450155 134.435705,24.5984413 134.729533,24.6072716 L136.758947,24.5984413 C136.912706,24.5984413 136.993799,24.5498749 136.993799,24.3898264 L136.995905,24.2728254 C136.995905,24.2728254 137.015915,23.9251338 136.96747,23.8467652" id="Fill-33" fill="#231F20"></path>
                <path d="M88.5007809,31.9952058 C88.5007809,32.8709549 88.6896209,33.5346917 89.066307,33.9864163 C89.4439869,34.4392063 89.9240381,34.6650686 90.5044725,34.6650686 C91.0859009,34.6650686 91.5619764,34.4413371 91.9346869,33.9928086 C92.3064035,33.5432148 92.4932557,32.8709549 92.4932557,31.973898 C92.4932557,31.087495 92.311373,30.4258889 91.9486014,29.9901452 C91.5868238,29.553336 91.1047849,29.3349314 90.5044725,29.3349314 C89.9041602,29.3349314 89.4201335,29.5554668 89.0523924,29.9976029 C88.6846514,30.439739 88.5007809,31.1045412 88.5007809,31.9952058 M87,32.0474098 C87,31.2600879 87.1093284,30.5984818 87.3289791,30.0636569 C87.4929717,29.6694633 87.716598,29.3157544 88.0018458,29.0025303 C88.2851058,28.6893062 88.5961948,28.4581169 88.934119,28.3068318 C89.3833594,28.1022773 89.9021724,28 90.4895641,28 C91.5530314,28 92.4028113,28.3537089 93.0418856,29.0611266 C93.6799659,29.767479 94,30.7518977 94,32.0111866 C94,33.2598215 93.6829476,34.2367825 93.0498367,34.9420695 C92.4157319,35.6473565 91.5689337,36 90.509442,36 C89.4360358,36 88.5832742,35.6494873 87.9491694,34.9473965 C87.3160585,34.2453056 87,33.2789985 87,32.0474098" id="Fill-35" fill="#231F20"></path>
                <polygon id="Fill-37" fill="#231F20" points="96 36 96 28 101 28 101 29.353168 97.4724789 29.353168 97.4724789 31.2473829 100.517879 31.2473829 100.517879 32.600551 97.4724789 32.600551 97.4724789 36"></polygon>
                <polygon id="Fill-39" fill="#231F20" points="105 36 105 28 106.567435 28 106.567435 31.5526171 109.734382 28 111.84176 28 108.918589 31.1162534 112 36 109.971743 36 107.838705 32.24573 106.567435 33.5823691 106.567435 36"></polygon>
                <mask id="mask-4" fill="white">
                    <use xlink:href="#path-3"></use>
                </mask>
                <g id="Clip-42"></g>
                <polygon id="Fill-41" fill="#231F20" mask="url(#mask-4)" points="113 36 115 36 115 28 113 28"></polygon>
                <polygon id="Fill-43" fill="#231F20" mask="url(#mask-4)" points="116 36 116 28 117.485417 28 120.580208 33.3421488 120.580208 28 122 28 122 36 120.467708 36 117.41875 30.7823691 117.41875 36"></polygon>
                <path d="M126.743299,33.0239744 L126.743299,31.7208311 L130,31.7208311 L130,34.8023442 C129.684536,35.1188066 129.224742,35.3979755 128.624742,35.6387853 C128.023711,35.8795951 127.415464,36 126.798969,36 C126.015464,36 125.334021,35.8305807 124.750515,35.4906766 C124.169072,35.151838 123.731959,34.6659563 123.439175,34.034097 C123.146392,33.4022376 123,32.7149707 123,31.9733617 C123,31.167821 123.162887,30.4517848 123.490722,29.8252531 C123.817526,29.1997869 124.294845,28.7192328 124.924742,28.3846564 C125.405155,28.1278636 126.002062,28 126.717526,28 C127.646392,28 128.373196,28.2013852 128.894845,28.6041556 C129.417526,29.0069259 129.753608,29.5631327 129.903093,30.2738412 L128.402062,30.564731 C128.296907,30.1843367 128.097938,29.8838572 127.807216,29.664358 C127.516495,29.4448588 127.152577,29.3351092 126.717526,29.3351092 C126.056701,29.3351092 125.531959,29.5514118 125.142268,29.984017 C124.751546,30.4166223 124.556701,31.0591369 124.556701,31.9104955 C124.556701,32.8279169 124.754639,33.5173149 125.150515,33.9765583 C125.54433,34.4347363 126.061856,34.6648908 126.702062,34.6648908 C127.018557,34.6648908 127.336082,34.5998934 127.653608,34.4720298 C127.972165,34.3441662 128.246392,34.1875333 128.473196,34.0053277 L128.473196,33.0239744 L126.743299,33.0239744 Z" id="Fill-44" fill="#231F20" mask="url(#mask-4)"></path>
                <path d="M140.426245,33.0239744 L142,33.503463 C141.758735,34.3484283 141.358103,34.9760256 140.796996,35.3851891 C140.235889,35.7954182 139.524269,36 138.662134,36 C137.59415,36 136.717628,35.6494406 136.030356,34.9472563 C135.34419,34.2450719 135,33.2860948 135,32.0681939 C135,30.7810336 135.345296,29.7815663 136.035889,29.0687267 C136.726482,28.3558871 137.635099,28 138.760632,28 C139.743399,28 140.541344,28.2791689 141.155573,28.8385722 C141.521897,29.1699521 141.795257,29.6451785 141.977866,30.2631859 L140.372016,30.6329249 C140.276838,30.2322856 140.078735,29.9158231 139.776601,29.682472 C139.47668,29.4501865 139.109249,29.3351092 138.677628,29.3351092 C138.082213,29.3351092 137.598577,29.539691 137.227826,29.9520511 C136.857075,30.3633458 136.672253,31.0303676 136.672253,31.9531167 C136.672253,32.9302078 136.854862,33.6270645 137.220079,34.0426212 C137.585296,34.4571124 138.061186,34.6648908 138.645534,34.6648908 C139.076047,34.6648908 139.446798,34.5327651 139.757787,34.2695791 C140.068775,34.0053277 140.291225,33.5897709 140.426245,33.0239744" id="Fill-45" fill="#231F20" mask="url(#mask-4)"></path>
                <path d="M143.501775,31.9952058 C143.501775,32.8709549 143.689621,33.5346917 144.067301,33.9864163 C144.444981,34.4392063 144.924038,34.6650686 145.504473,34.6650686 C146.085901,34.6650686 146.56297,34.4413371 146.935681,33.9928086 C147.307397,33.5432148 147.49425,32.8709549 147.49425,31.973898 C147.49425,31.087495 147.312367,30.4258889 146.949595,29.9901452 C146.586824,29.553336 146.105779,29.3349314 145.504473,29.3349314 C144.90416,29.3349314 144.420133,29.5554668 144.053386,29.9976029 C143.685645,30.439739 143.501775,31.1045412 143.501775,31.9952058 M142,32.0474098 C142,31.2600879 142.110322,30.5984818 142.329973,30.0636569 C142.493966,29.6694633 142.717592,29.3157544 143.001846,29.0025303 C143.285106,28.6893062 143.596195,28.4581169 143.935113,28.3068318 C144.384353,28.1022773 144.903166,28 145.490558,28 C146.554025,28 147.404799,28.3537089 148.041886,29.0611266 C148.68096,29.767479 149,30.7518977 149,32.0111866 C149,33.2598215 148.682948,34.2367825 148.049837,34.9420695 C147.415732,35.6473565 146.569928,36 145.510436,36 C144.436036,36 143.583274,35.6494873 142.950163,34.9473965 C142.317052,34.2453056 142,33.2789985 142,32.0474098" id="Fill-46" fill="#231F20" mask="url(#mask-4)"></path>
                <path d="M151,28 L152.519171,28 L152.519171,32.2611051 C152.519171,32.9371614 152.536788,33.3748646 152.576166,33.5752979 C152.640415,33.8970748 152.794819,34.156013 153.040415,34.3510293 C153.284974,34.5460455 153.618653,34.6424702 154.043523,34.6424702 C154.474611,34.6424702 154.8,34.5503792 155.018653,34.3661972 C155.237306,34.1820152 155.368912,33.9555796 155.413472,33.687974 C155.459067,33.4192849 155.480829,32.9739978 155.480829,32.3521127 L155.480829,28 L157,28 L157,32.1310943 C157,33.0758397 156.958549,33.7432286 156.876684,34.1332611 C156.793782,34.5232936 156.642487,34.851571 156.421762,35.1213434 C156.202073,35.3889491 155.906736,35.6023835 155.536788,35.7616468 C155.166839,35.9209101 154.684974,36 154.089119,36 C153.370984,36 152.825907,35.9133261 152.454922,35.7399783 C152.082902,35.5666306 151.790674,35.3412784 151.574093,35.063922 C151.359585,34.787649 151.21658,34.4972914 151.149223,34.191766 C151.049741,33.7410618 151,33.0758397 151,32.1960997 L151,28 Z" id="Fill-47" fill="#231F20" mask="url(#mask-4)"></path>
                <polygon id="Fill-48" fill="#231F20" mask="url(#mask-4)" points="159 36 159 28 160.485417 28 163.58125 33.3421488 163.58125 28 165 28 165 36 163.46875 36 160.41875 30.7823691 160.41875 36"></polygon>
                <polygon id="Fill-49" fill="#231F20" mask="url(#mask-4)" points="168.24025 36 168.24025 29.353168 166 29.353168 166 28 172 28 172 29.353168 169.764951 29.353168 169.764951 36"></polygon>
                <polygon id="Fill-50" fill="#231F20" mask="url(#mask-4)" points="174.741237 36 174.741237 32.6325069 172 28 173.772165 28 175.53299 31.1658402 177.258763 28 179 28 176.247423 32.6446281 176.247423 36"></polygon>
            </g>
        </g>
    </g>
</svg>