<svg xmlns="http://www.w3.org/2000/svg" xmlns:xlink="http://www.w3.org/1999/xlink" width="171" height="91">
  <defs>
    <path id="a" d="M9.147.01v11.206H.62V.01h8.527z"/>
    <path id="c" d="M0 91h170V0H0z"/>
  </defs>
  <g fill="none" fill-rule="evenodd">
    <path fill="#231F20" d="M8.148 75.782v-.476c-.01-.286-.297-.945-1.45-1.012H5.473a.338.338 0 0 1-.337-.341v-1.185c0-.187.15-.338.337-.338l1.097-.012c.613.04 1.073-.744 1.063-1.04v-.629c0-.52-.524-.942-1.042-.942H4.182s-.096 0-.138.032c-.042.031-.042.148-.042.148v7.088s0 .051.053.105l.095.021h2.44c.904 0 1.569-.318 1.558-1.419zm.34-2.565c1.858 0 2.512.936 2.512 2.094v1.087C11 77.556 9.967 79 8.488 79H1.27c-.034 0-.067-.002-.098-.004H.106a.102.102 0 0 1-.102-.101s-.004-1.282 0-1.282c0 0-.02-.095.03-.147a.377.377 0 0 1 .117-.074c.459-.075 1.013-.34 1.024-.625v-6.574c0-.26-.612-.577-1.003-.621 0 0-.097-.006-.126-.03-.052-.041-.042-.116-.042-.116-.004 0 0-1.324 0-1.324 0-.056.046-.102.102-.102l8.382.007c1.15 0 2.086.938 2.086 2.094v.764a2.09 2.09 0 0 1-1.852 2.079h-.31a.127.127 0 0 0-.126.129c0 .069.056.125.126.125h.014v.019h.062zm149.66 2.565c.012 1.1-.654 1.419-1.558 1.419h-2.44l-.094-.021c-.054-.054-.054-.105-.054-.105v-7.088s0-.117.042-.148c.043-.032.138-.032.138-.032h2.408c.52 0 1.042.423 1.042.942v.629c.01.296-.45 1.08-1.063 1.04l-1.096.012a.338.338 0 0 0-.338.338v1.185c0 .188.151.34.338.34h1.227c1.151.068 1.44.727 1.448 1.013v.476zm.34-2.565h-.06v-.019h-.016a.127.127 0 0 1 0-.254h.311a2.088 2.088 0 0 0 1.851-2.079v-.764a2.09 2.09 0 0 0-2.086-2.094L150.106 68a.102.102 0 0 0-.102.102s-.003 1.324 0 1.324c0 0-.012.075.042.117.03.023.127.029.127.029.39.044 1.002.362 1.002.621v6.574c-.01.285-.566.55-1.023.625 0 0-.069.026-.116.074-.053.052-.032.147-.032.147-.003 0 0 1.282 0 1.282 0 .056.046.101.102.101h1.067c.032.002.064.004.097.004h7.218c1.479 0 2.512-1.444 2.512-2.602v-1.087c0-1.158-.654-2.094-2.512-2.094zM33.658 68h-3.385c-.298-.003-.333.016-.34.34v.792c.007.17.308.1.308.1s.182.01.277.168a.942.942 0 0 1 .054.129s.006.242-.135.494c-.16.286-.865 1.443-1.165 1.905-.038.145-.229.254-.386.254h-.03c-.153 0-.254-.115-.324-.238l-1.274-1.83s-.207-.404-.021-.734c.074-.132.33-.187.401-.187.143 0 .22-.014.22-.269v-.66c0-.112-.04-.264-.228-.264h-4.288c-.189 0-.342.023-.342.21v.863c.014.316-.04.377.192.387.39.018.78.388.78.388l3.02 4.28v2.89c.011.146-.34.242-.586.284l-.281.057a.1.1 0 0 0-.1.086h-.003v1.47h.004a.1.1 0 0 0 .099.085h4.729a.1.1 0 0 0 .099-.085h.003v-1.47h-.003a.1.1 0 0 0-.1-.086h-.12c-.373-.057-.865-.279-.885-.461v-2.505l2.471-3.797s.433-.58.568-.733c.156-.178.319-.267.461-.311l.374-.057c.284.018.278-.095.278-.282v-.874c.006-.307-.083-.342-.342-.339m103.307 9.287v-2.3a.341.341 0 0 0-.34-.34h-.878a.341.341 0 0 0-.34.34v.44a1.626 1.626 0 0 1-.142.584c-.226.456-.793.854-1.018.938-.556.21-1.275.143-1.275.143v.003h-1.164c-.134-.09-.22-.19-.22-.287v-6.616c0-.258.6-.525 1.06-.6 0 0 .076.004.107-.042.032-.047.018-.106.022-.106l-.011-1.34a.103.103 0 0 0-.102-.104h-4.551a.102.102 0 0 0-.101.104l-.012 1.34c.004 0-.01.059.021.106.033.046.107.042.107.042.46.075 1.062.342 1.062.6v6.616c0 .258-.602.525-1.062.6 0 0-.074-.002-.107.043-.031.046-.017.106-.02.106l.01 1.34c0 .057.046.103.102.103h8.547a.34.34 0 0 0 .34-.34v-1.224a.337.337 0 0 0-.035-.149m-34-.003v-2.305a.342.342 0 0 0-.34-.341h-.879a.341.341 0 0 0-.34.341v.44a1.632 1.632 0 0 1-.141.586c-.227.457-.793.856-1.02.94-.554.21-1.274.143-1.274.143l.002.003h-1.166c-.133-.09-.221-.19-.221-.288v-6.606c0-.261.602-.527 1.063-.602 0 0 .074.003.106-.044.03-.045.018-.105.022-.106l-.012-1.342a.102.102 0 0 0-.101-.103h-4.551a.103.103 0 0 0-.102.103L94 69.445c.004 0-.013.061.02.106.033.047.106.044.106.044.461.075 1.063.34 1.063.602v6.606c0 .259-.602.527-1.063.602 0 0-.073-.002-.106.043-.033.046-.016.106-.02.106l.01 1.343c0 .057.045.103.102.103h8.547a.34.34 0 0 0 .34-.341v-1.226a.338.338 0 0 0-.035-.15M143 77.082c-.296-.005-.907-.019-1.096-.051-.313-.057-.7-.225-.893-.56-.153-.266-.074-1.163-.093-1.466v-4.848c0-.254.585-.517 1.035-.59 0 0 .073.002.104-.043.03-.045.017-.103.02-.103l-.01-1.319a.1.1 0 0 0-.1-.102h-4.858a.1.1 0 0 0-.1.102l-.008 1.319c.003 0-.012.058.02.103.031.045.103.043.103.043.45.073 1.035.336 1.035.59v4.603l-.008.004v.95s-.014 1.386.227 1.771c.608.969 1.528 1.515 4.288 1.515h.535c2.759 0 3.812-.546 4.42-1.515.242-.385.226-1.77.226-1.77v-.95l-.007-.005v-4.603c0-.254.586-.517 1.035-.59 0 0 .074.002.104-.043s.016-.103.021-.103l-.01-1.319a.1.1 0 0 0-.1-.102h-4.858a.1.1 0 0 0-.1.102l-.009 1.319c.003 0-.011.058.02.103.032.045.104.043.104.043.45.073 1.034.336 1.034.59v4.848c-.018.303.06 1.2-.094 1.465-.192.336-.577.504-.892.56-.189.033-.8.047-1.095.052M127.973 75.8a.33.33 0 0 0-.334-.325h-.862a.33.33 0 0 0-.333.326v.111c-.02.469-.607 1.017-.918 1.137-.555.217-.75.217-1.529.244-.011 0-.021 0-.033.002l-.005-.002c-.777-.027-.972-.027-1.529-.244-.31-.12-.928-.74-1.115-1.228-.136-.377-.313-.855-.313-2.423s.113-2.296.313-2.607c.354-.55.918-1.12 2.232-1.12 1.313 0 1.792.468 2.021.773 0 0 .355.285.376.684v.11c0 .181.15.326.333.326h.862a.329.329 0 0 0 .333-.326l.029-2.524s.048-.183-.181-.367c0 0-1.25-.366-3.336-.346-1.73.017-3.149.367-3.878.815-.73.448-2.106 1.752-2.106 4.419s.605 3.644 1.335 4.317c.6.553 1.499 1.134 3.321 1.355.058.045.543.076.929.076.124.005.248.012.378.014.381.01.712-.006 1.001-.039 2.191-.08 2.703-.307 2.703-.307a.33.33 0 0 0 .333-.327l-.027-2.523zm-52.006-.029l.033-.053-.03-2.524c0-.18-.156-.326-.35-.326h-4.08c-.194 0-.35.147-.35.326v1.099c0 .18.156.327.35.327h1.575v2.312c-.08.053-.155.093-.219.118-.584.216-.787.216-1.604.244l-.036.001h-.004c-.816-.029-1.021-.029-1.604-.245-.325-.121-.973-.74-1.17-1.23-.141-.376-.327-.855-.327-2.422 0-1.569.117-2.296.327-2.608.373-.549.964-1.12 2.34-1.12 1.378 0 1.88.469 2.121.775 0 0 .373.285.394.682v.111c0 .182.156.327.35.327h.904c.193 0 .35-.145.35-.327l.028-2.525s.052-.183-.188-.367c0 0-1.313-.366-3.5-.345-1.815.016-3.301.366-4.067.814-.765.449-2.209 1.752-2.209 4.42 0 2.667.635 3.644 1.4 4.317.63.553 1.573 1.134 3.484 1.355.06.045.57.077.974.077.13.004.26.011.397.013.4.01.746-.006 1.05-.039 2.298-.079 3.344-.306 3.344-.306.194 0 .351-.146.351-.327l-.03-2.524a.258.258 0 0 0-.003-.03m-56.327.055c-.19.49-.815 1.109-1.13 1.23-.554.214-.755.217-1.51.244-.756-.027-.958-.03-1.512-.243-.315-.122-.94-.74-1.13-1.23-.137-.378-.317-.857-.317-2.425 0-1.57.114-2.298.317-2.61.36-.55.93-1.121 2.26-1.121h.761c1.542-.007 1.901.57 2.261 1.12.203.313.317 1.04.317 2.611 0 1.568-.179 2.047-.317 2.424m1.225-7.011c-.709-.43-2.061-.769-3.718-.81V68h-.296v.006c-1.657.04-3.01.38-3.718.809-.74.449-2.134 1.754-2.134 4.423 0 2.67.612 3.647 1.352 4.321.609.553 1.52 1.135 3.366 1.357.057.045.55.076.942.076l.488.008c.064-.003 1.077-.04 1.134-.084 1.846-.222 2.757-.804 3.366-1.357.74-.674 1.352-1.651 1.352-4.321s-1.393-3.974-2.134-4.423"/>
    <path fill="#231F20" d="M80.977 77.448c-.033-.046-.11-.043-.11-.043-.483-.077-1.113-.343-1.113-.604v-6.602c0-.262.63-.527 1.113-.604 0 0 .077.003.11-.043.033-.045.02-.106.022-.106l-.01-1.343A.104.104 0 0 0 80.88 68h-4.764a.105.105 0 0 0-.107.103L76 69.446c.004 0-.012.061.023.106.033.046.112.043.112.043.481.077 1.11.342 1.11.604V76.8c0 .262-.629.528-1.11.605 0 0-.08-.003-.112.043-.035.045-.019.106-.022.107l.01 1.343c0 .057.049.102.106.102h4.764c.06 0 .107-.045.107-.102L81 77.555c-.002 0 .011-.062-.022-.107m13 .002c-.032-.046-.107-.043-.107-.043-.465-.077-1.072-.342-1.072-.603l-.002-1.505c0-1.166-.32-2.112-2.206-2.112h-.063v-.018h-.014a.13.13 0 0 1-.13-.128c0-.07.06-.129.13-.129h.315c1.057-.117 1.878-1.097 1.878-2.183v-.618A2.114 2.114 0 0 0 90.591 68l-4.592.002v.012h-3.885a.101.101 0 0 0-.103.103L82 69.458c.003 0-.011.062.02.107.032.046.107.042.107.042.465.077 1.07.341 1.07.603v6.594c0 .26-.605.526-1.07.603 0 0-.075-.003-.107.043-.031.045-.017.106-.02.107l.01 1.341c0 .057.045.102.103.102h4.585a.103.103 0 0 0 .103-.102l.01-1.34c-.004-.002.011-.063-.022-.108-.032-.046-.108-.043-.108-.043-.463-.077-1.07-.342-1.07-.603V70.21c0-.14.178-.282.413-.395h2.641c.527 0 1.056.427 1.056.95v.48c.011.3-.455 1.176-1.077 1.137l-.04.01h-1.587a.343.343 0 0 0-.342.343v1.197c0 .188.154.341.342.341h1.76c1.167.069 1.116.734 1.127 1.022l-.026 3.093s.004.23.042.357c.072.228.485.255.485.255h3.48a.102.102 0 0 0 .102-.102l.012-1.34c-.005-.002.01-.063-.022-.108m-58.234-3.74c.89.268 2.418.713 3.478.881 1.062.167 1.53.672 1.359 1.596-.168.908-1.231 1.09-1.787 1.103 0 0-1.357.065-1.91-.14-.226-.084-.859-.796-.972-.996l-.222-.535c0-.088-.118-.18-.305-.18h-.969c-.186 0-.247-.005-.247.18l.003 2.098.001.928c0 .284.438.354 1.655.354h3.238s1.379.049 2.406-.546c.836-.484 1.57-1.806 1.527-2.77-.068-1.558-.17-2.393-1.06-2.94-.793-.484-2.42-.713-3.48-.882-1.06-.167-1.952-.335-1.952-1.259 0-.923 1.231-1.09 1.786-1.103 0 0 .721-.066 1.274.14.226.084.44.156.758.545.156.188.403.798.403.798 0 .187.15.335.339.335h.877c.27.035.34-.037.339-.335l-.005-2.797c0-.193-1.104-.185-1.655-.185h-3.579s-1.23.01-1.98.714c-.547.515-1.103 1.51-1.06 2.476.041.966.212 2.058 1.74 2.52m69.999 0c.89.268 2.419.713 3.479.881 1.061.167 1.528.672 1.358 1.596-.168.908-1.23 1.09-1.787 1.103 0 0-1.356.065-1.91-.14-.226-.084-.858-.796-.97-.996l-.224-.535c0-.088-.118-.18-.305-.18h-.968c-.189 0-.247-.005-.247.18l.003 2.098.001.928c0 .284.438.354 1.654.354h3.239s1.38.049 2.405-.546c.836-.484 1.57-1.806 1.528-2.77-.069-1.558-.171-2.393-1.061-2.94-.792-.484-2.418-.713-3.48-.882-1.06-.167-1.952-.335-1.952-1.259 0-.923 1.231-1.09 1.787-1.103 0 0 .721-.066 1.273.14.227.084.44.156.76.545.154.188.4.798.4.798 0 .187.152.335.34.335h.877c.27.035.34-.037.34-.335l-.006-2.797c0-.193-1.102-.185-1.655-.185h-3.579s-1.23.01-1.98.714c-.547.515-1.103 1.51-1.06 2.476.041.966.213 2.058 1.74 2.52"/>
    <g transform="translate(161 68)">
      <mask id="b" fill="#fff">
        <use xlink:href="#a"/>
      </mask>
      <path fill="#231F20" d="M2.271 5.827c.842.273 2.292.726 3.297.898 1.005.17 1.447.684 1.286 1.625-.157.925-1.165 1.11-1.693 1.124 0 0-1.286.066-1.809-.142-.214-.086-.814-.812-.92-1.015l-.212-.545c0-.09-.111-.183-.288-.183h-.918c-.177 0-.235-.006-.235.183l.004 2.137v.945c0 .29.415.36 1.568.36h3.068s1.308.05 2.28-.556c.792-.493 1.486-1.839 1.446-2.821-.064-1.587-.16-2.438-1.004-2.995-.75-.493-2.292-.727-3.297-.898-1.005-.17-1.85-.342-1.85-1.282 0-.941 1.167-1.111 1.694-1.124 0 0 .682-.068 1.205.142.216.086.418.16.72.555.147.192.38.813.38.813 0 .19.144.342.321.342h.83c.258.035.324-.038.324-.342L8.462.198c0-.195-1.045-.187-1.568-.187h-3.39S2.337.02 1.627.738C1.108 1.262.582 2.276.622 3.26c.04.984.201 2.096 1.649 2.567" mask="url(#b)"/>
    </g>
    <path fill="#231F20" d="M52.448 78.04c-2.328-.044-2.689-.907-2.689-2.292 0-.612.28-1.197.758-1.66l4.115 3.525c-.431.287-1.316.444-2.184.427m-.531-8.432c.98.045 1.512.523 1.512 1.045 0 .607-1.308 1.172-1.635 1.172a.808.808 0 0 1-.208-.04 1.793 1.793 0 0 0-.45-.191c-.412-.223-.842-.574-.842-.94 0-.523.643-1.089 1.623-1.046m8.043 9.007c-.081-.13-.203-.086-.448-.13a.996.996 0 0 1-.41-.173l-1.277-.967c.175-.342.313-.7.421-.956.163-.391.245-1.651.245-2.086 0-.435.091-1.195-.05-1.326-.041-.036-.206-.065-.206-.065H56.49s-.102.022-.163.087c-.051.054-.041.304-.041.304s-.02.609 0 .913a3.363 3.363 0 0 1-.279 1.524l-2.58-2.281c1.42-.57 2.349-1.853 2.329-2.806-.041-1.869-1.607-2.613-3.84-2.652-2.49-.043-4.163.989-4.163 2.652 0 .478.12.912.337 1.293a.177.177 0 0 0-.011.054l.093.079c.162.25.368.474.609.672-1.107.82-1.781 1.979-1.781 3.204 0 2.308.998 3.91 5.202 4.041 1.516.047 2.945-.343 4.029-1.013l.423.198c.173.152.316.336.662.348l2.4-.012c.18 0 .276-.056.276-.25l.003-.14s.024-.417-.035-.512m-13.673 8.88c0 .767.161 1.348.485 1.744.323.395.734.592 1.232.592s.906-.195 1.226-.587c.319-.393.479-.982.479-1.768 0-.774-.156-1.353-.467-1.735-.31-.38-.724-.572-1.238-.572-.515 0-.93.194-1.244.58-.316.386-.473.968-.473 1.746M45 87.542c0-.69.095-1.268.283-1.736.14-.345.333-.654.575-.929.244-.273.51-.476.8-.609A3.15 3.15 0 0 1 47.992 84c.912 0 1.64.31 2.188.928.547.62.821 1.479.821 2.581 0 1.093-.272 1.949-.815 2.566-.542.617-1.268.925-2.176.925-.92 0-1.652-.307-2.195-.92-.542-.615-.814-1.46-.814-2.538M52 91v-7h5v1.185h-3.527v1.656h3.044v1.185h-3.044V91zm9 0v-7h1.344v3.11L65.057 84h1.807l-2.505 2.727L67 91h-1.738l-1.83-3.284-1.088 1.17V91z"/>
    <mask id="d" fill="#fff">
      <use xlink:href="#c"/>
    </mask>
    <path fill="#231F20" d="M67 91h1v-7h-1zm3 0v-7h1.238l2.58 4.676V84H75v7h-1.277l-2.54-4.565V91zm10.208-2.604v-1.142H83v2.697c-.27.278-.664.522-1.179.732a4.105 4.105 0 0 1-1.565.317c-.67 0-1.256-.148-1.755-.447a2.772 2.772 0 0 1-1.124-1.274A4.285 4.285 0 0 1 77 87.476c0-.705.14-1.332.42-1.88a2.9 2.9 0 0 1 1.23-1.259c.412-.225.923-.337 1.536-.337.797 0 1.419.176 1.867.53.448.352.736.838.865 1.46l-1.288.253a1.444 1.444 0 0 0-.509-.786c-.25-.192-.562-.288-.935-.288-.566 0-1.016.189-1.35.566-.334.38-.5.94-.5 1.686 0 .803.168 1.406.507 1.807.338.402.781.603 1.33.603.272 0 .544-.056.817-.168.272-.113.507-.249.702-.409v-.858h-1.484zm10.444 0l1.348.42c-.207.738-.55 1.287-1.031 1.647-.481.358-1.091.537-1.83.537-.915 0-1.667-.308-2.256-.92-.589-.617-.883-1.456-.883-2.52 0-1.126.296-2.002.888-2.624.592-.626 1.37-.936 2.335-.936.842 0 1.527.245 2.053.734.314.289.548.704.705 1.246l-1.377.324a1.428 1.428 0 0 0-.509-.83 1.477 1.477 0 0 0-.942-.305c-.511 0-.925.178-1.244.54-.317.36-.476.943-.476 1.749 0 .856.157 1.466.47 1.829.313.362.72.544 1.222.544.369 0 .687-.116.954-.345.265-.232.457-.594.573-1.09m3.635-.901c0 .767.161 1.348.486 1.744.323.395.733.592 1.232.592.497 0 .905-.195 1.225-.587.319-.393.479-.982.479-1.768 0-.774-.156-1.353-.468-1.735-.31-.38-.723-.572-1.236-.572-.516 0-.93.194-1.246.58-.315.386-.472.968-.472 1.746M93 87.542c0-.69.095-1.268.283-1.736.14-.345.333-.654.575-.929a2.45 2.45 0 0 1 .8-.609c.385-.177.83-.268 1.333-.268.912 0 1.64.31 2.188.928.547.62.821 1.479.821 2.581 0 1.093-.272 1.949-.815 2.566-.543.617-1.268.925-2.177.925-.92 0-1.651-.307-2.194-.92-.543-.615-.814-1.46-.814-2.538M101 84h1.266v3.728c0 .59.016.976.047 1.15.054.281.183.508.387.678.204.17.483.256.836.256.36 0 .63-.08.813-.242a.97.97 0 0 0 .329-.593c.038-.235.056-.624.056-1.169V84H106v3.616c0 .826-.034 1.41-.102 1.75a2.02 2.02 0 0 1-.38.864 1.94 1.94 0 0 1-.737.562c-.309.139-.71.208-1.206.208-.6 0-1.054-.075-1.363-.228a1.981 1.981 0 0 1-.734-.59 1.997 1.997 0 0 1-.355-.765c-.082-.393-.123-.975-.123-1.745V84zm6 7v-7h1.238l2.58 4.676V84H112v7h-1.277l-2.54-4.565V91zm8.867 0v-5.815H114V84h5v1.185h-1.862V91zm5.483 0v-2.946L119 84h1.519l1.51 2.77 1.48-2.77H125l-2.358 4.064V91z" mask="url(#d)"/>
    <path fill="#0492D0" d="M89.734 55.406a5.26 5.26 0 0 1-3.062-1.279l.025-.023-3.08-3.114-.436-.443-20.574-20.801 2.78-2.821L92.922 54.84a6.833 6.833 0 0 1-3.188.566zm-10.393 0a5.256 5.256 0 0 1-3.061-1.279l.025-.023-3.08-3.114-.437-.443-15.37-15.54 2.52-2.556L82.21 54.97a6.768 6.768 0 0 1-2.869.436zm-10.392 0a5.26 5.26 0 0 1-3.062-1.279l.025-.023-3.08-3.114-.438-.443L52.23 40.27l2.52-2.557L71.818 54.97a6.763 6.763 0 0 1-2.868.436zm9.13-51.247a6.81 6.81 0 0 1 3.187-.565 5.245 5.245 0 0 1 3.062 1.275l-.025.026 3.08 3.114.437.443 20.573 20.801-2.78 2.821L78.079 4.16zm13.58-.565A5.248 5.248 0 0 1 94.72 4.87l-.025.026 3.08 3.114.437.443 15.37 15.54-2.52 2.556L88.791 4.03a6.78 6.78 0 0 1 2.868-.435zm10.392 0a5.239 5.239 0 0 1 3.061 1.275l-.023.026 3.079 3.114.438.443 10.165 10.277-2.52 2.557L99.182 4.03a6.786 6.786 0 0 1 2.868-.435zm29.275 23.361l-26.608 27.149.023.023c-.439.38-.929.68-1.458.899a6.836 6.836 0 0 1-2.157.393 6.844 6.844 0 0 1-2.158-.393 5.37 5.37 0 0 1-1.459-.899l.024-.023-29.475-29.882 1.204-1.216-.024-.025c.44-.378 1.91-1.9 3.6-1.86.822-.033 1.51.215 2.068.545l-.015.014 17.596 17.862.086-.087c1.152 1.16 2.852 2.353 5.464 2.353 2.475 0 5.268-1.807 6.397-3.135l19.42-19.495-16.071-16.961c-1.128-1.33-2.987-2.114-5.566-2.208-1.837-.068-4.22.254-5.877 1.27C95.225.52 93.72.076 91.823.009c-1.836-.068-4.217.254-5.876 1.27C84.833.52 83.327.076 81.43.009c-1.924-.07-4.448.286-6.11 1.42C74.189.58 72.614.082 70.596.009c-.232-.009-.473-.01-.721-.006a13.37 13.37 0 0 0-.72.006c-2.579.094-4.439.878-5.567 2.208L37 29.343l2.674 2.7L66.283 4.895l-.024-.026c.44-.376.93-.68 1.458-.897a6.847 6.847 0 0 1 2.158-.392 6.87 6.87 0 0 1 2.158.392c.529.218 1.02.52 1.458.897l-.024.026 29.474 29.882-1.203 1.217.024.023c-.439.379-1.91 1.901-3.602 1.86-1.979.082-3.19-1.481-3.631-1.86l.024-.023-15.411-15.668c-1.13-1.328-2.962-3.135-6.18-3.135-2.473 0-5.267 1.807-6.395 3.135l-19.42 19.496 16.069 16.961c1.13 1.329 2.988 2.114 5.567 2.209 1.837.066 4.22-.256 5.878-1.273 1.114.759 2.619 1.202 4.516 1.273 1.836.066 4.218-.256 5.876-1.273 1.114.759 2.62 1.202 4.516 1.273 1.925.07 4.448-.286 6.11-1.424 1.132.85 2.707 1.35 4.725 1.424.233.008.474.009.722.004.246.005.487.004.72-.004 2.578-.095 4.438-.88 5.566-2.209L134 29.656l-2.674-2.7z" mask="url(#d)"/>
  </g>
</svg>
