<?xml version="1.0" encoding="UTF-8"?>
<svg width="89px" height="54px" viewBox="0 0 89 54" version="1.1" xmlns="http://www.w3.org/2000/svg" xmlns:xlink="http://www.w3.org/1999/xlink">
    <!-- Generator: Sketch 46.2 (44496) - http://www.bohemiancoding.com/sketch -->
    <title>bg logo mark</title>
    <desc>Created with Sketch.</desc>
    <defs></defs>
    <g id="Mockups" stroke="none" stroke-width="1" fill="none" fill-rule="evenodd">
        <g id="Club-Page" transform="translate(-678.000000, -1079.000000)" fill="#0492D0">
            <g id="Group-19" transform="translate(324.000000, 1036.000000)">
                <path d="M402.384509,93.7099217 C401.32688,93.6349002 400.363826,93.2159343 399.574929,92.5418956 L399.597997,92.518812 L396.77227,89.6691515 L396.372055,89.2640357 L377.49505,70.2247483 L380.046277,67.6440107 L405.309424,93.1916966 C404.384431,93.5968124 403.360249,93.7803264 402.384509,93.7099217 L402.384509,93.7099217 Z M392.848547,93.7099217 C391.789765,93.6349002 390.827865,93.2159343 390.040121,92.5418956 L390.063188,92.518812 L387.237462,89.6691515 L386.836094,89.2640357 L372.733989,75.0411248 L375.046471,72.70161 L395.481663,93.3128851 C394.635098,93.6325919 393.722792,93.7722472 392.848547,93.7099217 L392.848547,93.7099217 Z M383.313739,93.7099217 C382.25611,93.6349002 381.291903,93.2159343 380.50416,92.5418956 L380.527227,92.518812 L377.702654,89.6691515 L377.298979,89.2640357 L367.974082,79.8575012 L370.285411,77.5179865 L385.945701,93.3128851 C385.10029,93.6325919 384.187984,93.7722472 383.313739,93.7099217 L383.313739,93.7099217 Z M391.690576,46.8065171 C392.615569,46.4025555 393.639751,46.2201957 394.615491,46.2894463 C395.67312,46.3644677 396.636174,46.7834336 397.423917,47.4574724 L397.402003,47.4805559 L400.226576,50.3302165 L400.629098,50.7353322 L419.50495,69.7746196 L416.953723,72.3565114 L391.690576,46.8065171 Z M404.150299,46.2894463 C405.209082,46.3644677 406.172135,46.7834336 406.959879,47.4574724 L406.936812,47.4805559 L409.762538,50.3302165 L410.163906,50.7353322 L424.266011,64.9582432 L421.953529,67.2989121 L401.51949,46.687637 C402.363748,46.366776 403.277208,46.2259666 404.150299,46.2894463 L404.150299,46.2894463 Z M413.686261,46.2894463 C414.745043,46.3644677 415.708097,46.7834336 416.494687,47.4574724 L416.472773,47.4805559 L419.297346,50.3302165 L419.699868,50.7353322 L429.027072,60.1418667 L426.713436,62.4813815 L411.054299,46.687637 C411.89971,46.366776 412.813169,46.2259666 413.686261,46.2894463 L413.686261,46.2894463 Z M440.546808,67.671711 L416.131379,92.518812 L416.154446,92.5418956 C415.750771,92.8869942 415.300962,93.1639964 414.816551,93.3636689 C414.175284,93.5887332 413.50057,93.7110758 412.836236,93.7226176 C412.171902,93.7110758 411.496035,93.5887332 410.855921,93.3636689 C410.371511,93.1639964 409.921701,92.8869942 409.518026,92.5418956 L409.541093,92.518812 L382.497162,65.1694574 L383.600925,64.0556775 L383.579011,64.0337482 C383.981533,63.6874954 385.330962,62.2944049 386.883381,62.3313386 C387.636524,62.30133 388.268564,62.5287027 388.779501,62.8310968 L388.765661,62.8437927 L404.910362,79.1915417 L404.989944,79.1119035 C406.045266,80.1737455 407.604606,81.2644418 410.002436,81.2644418 C412.273398,81.2644418 414.836158,79.6116617 415.87072,78.3951602 L433.690097,60.5515992 L418.945572,45.0290861 C417.908703,43.8114304 416.202887,43.0935329 413.837351,43.0081239 C412.152295,42.9457984 409.967836,43.2401132 408.445403,44.1703791 C407.423528,43.4767193 406.041806,43.0704494 404.302543,43.0081239 C402.617487,42.9457984 400.431874,43.2401132 398.909442,44.1703791 C397.887567,43.4767193 396.506998,43.0704494 394.766581,43.0081239 C393.000791,42.94349 390.684848,43.2689676 389.160109,44.3088802 C388.122087,43.5309656 386.67693,43.0739119 384.823484,43.0081239 C384.611267,43.0000446 384.389822,42.9977363 384.163764,43.002353 C383.936552,42.9977363 383.716261,43.0000446 383.50289,43.0081239 C381.137353,43.0935329 379.430384,43.8114304 378.394669,45.0290861 L354,69.8565661 L356.453192,72.327657 L380.867468,47.4805559 L380.845554,47.4574724 C381.249229,47.1112196 381.699038,46.8353715 382.183449,46.6356991 C382.824716,46.4106347 383.498276,46.2882921 384.163764,46.2767503 C384.828098,46.2882921 385.502812,46.4106347 386.144079,46.6356991 C386.628489,46.8353715 387.078299,47.1112196 387.481974,47.4574724 L387.46006,47.4805559 L414.502838,74.8299106 L413.397921,75.9425362 L413.420989,75.9656197 C413.017313,76.3107184 411.667885,77.704963 410.116619,77.6680294 C408.30008,77.7430508 407.188244,76.3107184 406.784568,75.9656197 L406.806482,75.9425362 L392.666317,61.6053619 C391.630602,60.386552 389.949006,58.7349261 386.99641,58.7349261 C384.725449,58.7349261 382.163842,60.386552 381.128126,61.6053619 L363.309903,79.4477688 L378.054428,94.971436 C379.090143,96.1867834 380.795959,96.905835 383.162649,96.9923982 C384.846552,97.0524154 387.032164,96.7592547 388.554597,95.8289888 C389.577625,96.5226486 390.958194,96.9289186 392.698611,96.9923982 C394.382513,97.0524154 396.568126,96.7592547 398.089405,95.8289888 C399.112433,96.5226486 400.493002,96.9289186 402.233419,96.9923982 C403.998056,97.0558779 406.313998,96.7304003 407.839891,95.6904877 C408.877913,96.4684023 410.32307,96.925456 412.175362,96.9923982 C412.388733,96.9993233 412.610178,97.0016316 412.836236,96.9970149 C413.062294,97.0016316 413.283739,96.9993233 413.49711,96.9923982 C415.8638,96.905835 417.569616,96.1867834 418.605331,94.971436 L443,70.1428018 L440.546808,67.671711 Z" id="bg-logo-mark"></path>
            </g>
        </g>
    </g>
</svg>