<?xml version="1.0" encoding="UTF-8"?>
<svg width="1440px" height="27px" viewBox="0 0 1440 27" version="1.1" xmlns="http://www.w3.org/2000/svg" xmlns:xlink="http://www.w3.org/1999/xlink">
    <!-- Generator: Sketch 46.2 (44496) - http://www.bohemiancoding.com/sketch -->
    <title>Wave line</title>
    <desc>Created with Sketch.</desc>
    <defs>
        <rect id="path-1" x="0" y="0" width="1440" height="40"></rect>
    </defs>
    <g id="Page-1" stroke="none" stroke-width="1" fill="none" fill-rule="evenodd">
        <g id="Wave-line" transform="translate(720.000000, 20.000000) rotate(-180.000000) translate(-720.000000, -20.000000) ">
            <mask id="mask-2" fill="white">
                <use xlink:href="#path-1"></use>
            </mask>
            <g id="path-1"></g>
            <g id="Group" mask="url(#mask-2)">
                <g transform="translate(-225.000000, 7.000000)">
                    <path d="M635.090467,16.2983963 C1080.42162,32.5410115 1398.72441,27 1663.33936,7.06924315 C1714.7452,3.19736346 1714.88649,9.84094908 1663.76324,27 L224,27 C233.943928,10.2324499 370.974084,6.66524867 635.090467,16.2983963 Z" id="Path-5" fill="#EEDDFF"></path>
                    <g id="Path-6" stroke-width="1" fill="none">
                        <path d="M224.752353,8.5 C674.257058,34 614.472703,19.707775 1144.62337,8.5 C1289.306,5.44130268 1462.43155,10.0410728 1664,22.2993103 L1664,34 L224.752353,34 C-74.9174509,-1.42108547e-14 -74.9174509,-8.5 224.752353,8.5 Z" id="path-3" fill="#0081C6"></path>
                    </g>
                </g>
            </g>
        </g>
    </g>
</svg>