<?xml version="1.0" encoding="UTF-8"?>
<svg width="20px" height="20px" viewBox="0 0 20 20" version="1.1" xmlns="http://www.w3.org/2000/svg" xmlns:xlink="http://www.w3.org/1999/xlink">
    <!-- Generator: Sketch 46.2 (44496) - http://www.bohemiancoding.com/sketch -->
    <title>Bullet Arrow</title>
    <desc>Created with Sketch.</desc>
    <defs>
        <polygon id="path-1" points="0.00306122449 0.0163265306 0.00306122449 20 19.9836735 20 19.9836735 0.0163265306 0.00306122449 0.0163265306"></polygon>
    </defs>
    <g id="Mockups" stroke="none" stroke-width="1" fill="none" fill-rule="evenodd">
        <g id="Club-Page" transform="translate(-1004.000000, -2047.000000)">
            <g id="Group-15" transform="translate(-99.000000, 1825.000000)">
                <g id="Group-9-Copy" transform="translate(1001.000000, 222.000000)">
                    <g id="Bullet-Arrow" transform="translate(102.000000, 0.000000)">
                        <g id="next-copy-3">
                            <g id="Group-3">
                                <mask id="mask-2" fill="white">
                                    <use xlink:href="#path-1"></use>
                                </mask>
                                <g id="Clip-2"></g>
                                <path d="M9.99183673,20 C15.5020408,20 19.9836735,15.5183673 19.9836735,10.0081633 C19.9836735,4.49795918 15.5020408,0.0163265306 9.99183673,0.0163265306 C4.48163265,0.0163265306 0,4.49795918 0,10.0081633 C0,15.5183673 4.48163265,20 9.99183673,20 Z M9.99183673,0.824489796 C15.0571939,0.824489796 19.1755102,4.94280612 19.1755102,10.0081633 C19.1755102,15.0735204 15.0571939,19.1918367 9.99183673,19.1918367 C4.92647959,19.1918367 0.808163265,15.0735204 0.808163265,10.0081633 C0.808163265,4.94280612 4.92647959,0.824489796 9.99183673,0.824489796 Z" id="Fill-1" fill="#424242" mask="url(#mask-2)"></path>
                                <circle id="Oval-5" fill="#0081C6" mask="url(#mask-2)" cx="10" cy="10" r="10"></circle>
                            </g>
                            <path d="M9.35032667,13.7137038 C9.42796303,13.8004243 9.53430442,13.8461538 9.63645752,13.8461538 C9.73861063,13.8461538 9.84474771,13.8004243 9.92233299,13.7137038 L12.9584255,10.3203564 C13.0360108,10.2336359 13.0769231,10.1194548 13.0769231,10.0005923 C13.0769231,9.88195818 13.0360108,9.7677771 12.9584255,9.68077112 L9.92233299,6.28748083 C9.76292307,6.10930126 9.5097366,6.10930126 9.35032667,6.28748083 C9.19091675,6.4656604 9.19091675,6.74865819 9.35032667,6.92683776 L12.1002883,10.0005923 L9.35032667,13.0743469 C9.19510503,13.2525264 9.19510503,13.5402057 9.35032667,13.7137038 Z" id="Fill-4" fill="#FFFFFF"></path>
                        </g>
                    </g>
                </g>
            </g>
        </g>
    </g>
</svg>