<?xml version="1.0" encoding="UTF-8"?>
<svg width="69px" height="49px" viewBox="0 0 69 49" version="1.1" xmlns="http://www.w3.org/2000/svg" xmlns:xlink="http://www.w3.org/1999/xlink">
    <!-- Generator: Sketch 46.2 (44496) - http://www.bohemiancoding.com/sketch -->
    <title>quotes</title>
    <desc>Created with Sketch.</desc>
    <defs>
        <polygon id="path-1" points="0 0 69 0 69 49 0 49"></polygon>
    </defs>
    <g id="Mockups" stroke="none" stroke-width="1" fill="none" fill-rule="evenodd">
        <g id="Club-Page" transform="translate(-64.000000, -2226.000000)">
            <g id="Group-15" transform="translate(-99.000000, 1825.000000)">
                <g id="quotes" transform="translate(197.500000, 425.500000) rotate(-180.000000) translate(-197.500000, -425.500000) translate(163.000000, 401.000000)">
                    <mask id="mask-2" fill="white">
                        <use xlink:href="#path-1"></use>
                    </mask>
                    <g id="Clip-2"></g>
                    <path d="M69,10.1140514 L66.8016044,0 C50.972576,0.725529473 40,7.31516588 40,26.6940055 L40,49 L67.6538363,49 L67.6538363,20.9645179 L57.1808132,20.9645179 C57.1808132,14.7464455 61.080046,11.0894068 69,10.1140514" id="Fill-1" fill="#0081C6" mask="url(#mask-2)"></path>
                    <path d="M29,10.1140514 L26.8016044,0 C10.972576,0.725529473 0,7.31516588 0,26.6940055 L0,49 L27.6549242,49 L27.6549242,20.9645179 L17.1751921,20.9645179 C17.1751921,14.7464455 21.0744249,11.0894068 29,10.1140514" id="Fill-3" fill="#0081C6" mask="url(#mask-2)"></path>
                </g>
            </g>
        </g>
    </g>
</svg>