<?xml version="1.0" encoding="UTF-8"?>
<svg width="44px" height="68px" viewBox="0 0 44 68" version="1.1" xmlns="http://www.w3.org/2000/svg" xmlns:xlink="http://www.w3.org/1999/xlink">
    <!-- Generator: Sketch 46.2 (44496) - http://www.bohemiancoding.com/sketch -->
    <title>Clubs</title>
    <desc>Created with Sketch.</desc>
    <defs></defs>
    <g id="Mockups" stroke="none" stroke-width="1" fill="none" fill-rule="evenodd">
        <g id="Home" transform="translate(-699.000000, -1823.000000)" fill="#3F3E3E">
            <g id="Group-24" transform="translate(690.000000, 1823.000000)">
                <g id="Clubs" transform="translate(9.000000, 0.000000)">
                    <path d="M30.9992634,62.1582333 C31.0196105,62.5538289 30.614024,62.5376822 30.3305204,62.6009237 C24.8639199,63.8025119 19.3932499,64.99199 13.9252929,66.1895415 C11.7155926,66.6712532 9.50724879,67.1583472 7.30026143,67.652169 C6.36564908,67.8593858 5.47308751,68.0114345 4.55610935,67.9993244 C4.35399435,67.9979788 4.287527,67.8782237 4.29023995,67.7234839 C4.2929529,67.5525973 4.28888347,67.3803652 4.28888347,67.2081331 C4.28888347,48.4644336 4.287527,29.2605513 4.287527,10.5181974 C4.287527,10.3082895 4.27531871,10.0983816 4.2698928,9.8871281 C4.26717985,8.85238977 4.26582337,7.81630587 4.26446689,6.78156755 C4.27124928,6.11416805 4.30651767,5.44542299 4.27667518,4.7780235 C4.26175394,4.40799354 3.74493637,4.20750458 4.16273115,4.11869738 C6.17438589,3.69484488 8.66894627,4.51294749 10.5246062,4.89912421 C13.3216609,5.48175321 16.1024378,6.11551361 18.8899971,6.72370831 C19.0676956,6.76272966 19.2521764,6.77753085 19.4325878,6.801751 C19.4909162,6.83269896 19.5451753,6.87575699 19.6075732,6.89055819 C23.1086392,7.65887495 26.6042793,8.44737515 30.1189101,9.17263388 C30.8310603,9.3193003 30.9992634,9.54939166 30.9992634,10.1252928 C30.9789162,27.2583528 30.9829856,44.394104 30.9843421,61.527164 C30.9843421,61.7370719 30.9938375,61.9483254 30.9992634,62.1582333 M28.3717683,37.359498 C28.3622729,36.8051259 28.2334077,36.3086129 27.8997144,35.8578492 C26.8864264,34.4894111 24.8666328,34.5069034 23.9415158,35.9170539 C23.2985459,36.8979697 23.3365273,37.9044512 24.0513904,38.8503824 C24.915466,39.9914202 26.6639643,40.0667718 27.6718264,39.0279967 C28.1520191,38.5328294 28.3392128,37.9528915 28.3717683,37.359498" id="Fill-1"></path>
                    <polygon id="Fill-3" points="0 0 0 68 3.77868064 68 3.77868064 3.69804865 40.8545111 3.69804865 40.8545111 68 44 68 44 0"></polygon>
                </g>
            </g>
        </g>
    </g>
</svg>