<?xml version="1.0" encoding="UTF-8"?>
<svg width="93px" height="74px" viewBox="0 0 93 74" version="1.1" xmlns="http://www.w3.org/2000/svg" xmlns:xlink="http://www.w3.org/1999/xlink">
    <!-- Generator: Sketch 46.2 (44496) - http://www.bohemiancoding.com/sketch -->
    <title>meals &amp; snacks served</title>
    <desc>Created with Sketch.</desc>
    <defs></defs>
    <g id="Mockups" stroke="none" stroke-width="1" fill="none" fill-rule="evenodd">
        <g id="Home" transform="translate(-371.000000, -1814.000000)" fill="#3F3E3E">
            <g id="Group-11" transform="translate(322.000000, 1814.000000)">
                <g id="meals-&amp;-snacks-served" transform="translate(49.000000, 0.000000)">
                    <path d="M4,43 C4.02968037,41.494709 4.74429224,40.3234512 5.79223744,39.3020802 C8.00684932,37.1565587 10.847032,36.0259846 13.8561644,35.2294436 C18.0022831,34.130988 22.2465753,33.7562712 26.5479452,34.0924457 C27.4200913,34.1609654 28.0570776,33.9811013 28.760274,33.4436503 C31.5639269,31.2959876 34.93379,30.2724753 38.4474886,29.6686459 C45.0753425,28.5337893 51.6187215,28.7693256 58,30.9491069 C60.0342466,31.6450095 61.8949772,32.6149908 63.5228311,33.9639714 C63.7716895,34.1695303 64.2579909,34.23805 64.6164384,34.2037902 C70.6621005,33.6385031 76.5707763,34.0753158 82.2351598,36.2550971 C84.1187215,36.9788359 85.8515982,37.9445347 87.2488584,39.3491875 C88.2579909,40.3619935 88.9497717,41.5118389 89,43 L4,43 Z" id="Fill-1"></path>
                    <path d="M0,45 L93,45 C92.6783418,46.5285453 92.5333691,48.0052755 92.0531469,49.3618889 C89.8468433,55.5891212 85.6630212,59.9769176 79.7078137,62.4993706 C76.0291309,64.0561787 72.2032102,65.2479259 68.5177319,66.7835369 C66.3250195,67.7020772 64.2183846,68.8820482 62.1751754,70.1161896 C60.8319125,70.9310997 59.8352251,72.165241 59.6608048,73.985835 L58.6142829,73.985835 C50.4754238,73.9881903 42.3365647,73.9834798 34.1954404,73.9999664 C33.5657151,74.0023217 33.2757697,73.8822049 33.1262666,73.1685697 C32.8295255,71.7342337 31.8328381,70.7073527 30.6571999,70.0196251 C28.6479686,68.8420093 26.6070246,67.6808801 24.4686769,66.7906026 C20.8964585,65.3068067 17.1951237,64.1480327 13.6229053,62.6642368 C7.22371882,60.0028252 2.77486847,55.3677294 0.661438036,48.5658206 C0.317127825,47.4517961 0.226519875,46.2600489 0,45 L0,45 Z M4.79769096,48.8390275 C4.82713854,49.0180251 4.82713854,49.1169448 4.86111652,49.1993779 C4.99929365,49.5220446 5.13067518,49.8541323 5.29376949,50.1603124 C7.37775234,54.1147462 10.3904667,57.0611409 14.4383769,58.8369855 C15.9356732,59.4940951 17.5031908,59.9863385 19.0186087,60.6034092 C22.7765735,62.127244 26.5617206,63.5969086 30.2653205,65.2573468 C32.3130602,66.1711767 34.1433408,67.5301453 35.4866037,69.4237515 C35.8671571,69.9630995 36.265832,70.1397419 36.8887617,70.1373866 C42.9232512,70.1138343 48.9600058,70.0949925 54.9944953,70.1491628 C56.2607414,70.160939 57.1464341,69.9018635 58.0140053,68.8043256 C59.8306947,66.5079748 62.39943,65.1654928 65.0293258,64.0867967 C69.1927611,62.3792538 73.4264176,60.855419 77.6193005,59.2232435 C82.1587588,57.4568198 85.5407005,54.3502694 87.7719213,49.9365654 C87.939546,49.6021225 88.0709275,49.2535482 88.247613,48.8390275 L4.79769096,48.8390275 Z" id="Fill-3"></path>
                    <path d="M45.5668303,0 C45.5668303,2.10509219 45.4478493,4.27830324 45.6018247,6.43393522 C45.7418023,8.39400019 46.525677,10.2332091 47.6758266,11.887838 C50.3004072,15.6585459 48.6463382,20.1961403 45.9914291,23 C46.6889843,20.9762109 46.8639563,19.0820675 46.3880324,17.2252794 C45.9890961,15.6739276 45.5598314,14.0280883 44.6593086,12.7074615 C43.2525334,10.6551065 42.7836083,8.55660648 43.0892261,6.21639438 C43.3481848,4.23215821 43.9150942,2.34460686 45.0535789,0.632846088 C45.2308839,0.364765453 45.461847,0.12744817 45.5668303,0" id="Fill-5"></path>
                    <path d="M64.675552,0 C64.2112892,2.90107896 64.1207579,5.72968586 65.0376771,8.50778192 C65.4021234,9.61243197 65.8385305,10.7456316 66.4954625,11.714122 C68.5939306,14.8172443 68.3734058,17.8896209 66.5999216,20.9927432 C66.1960129,21.6955027 65.694609,22.3499475 65.1444575,23 C65.9406683,20.3031605 65.738714,17.6656163 64.8264375,15.0676024 C64.5478797,14.276998 64.2228957,13.4512556 63.6959574,12.8012031 C62.1081784,10.8444572 61.7994436,8.66809892 62.1058571,6.33142366 C62.3588803,4.37687387 62.9113532,2.5189535 64.0162988,0.825742385 C64.2066465,0.533657978 64.4550272,0.274515421 64.675552,0" id="Fill-7"></path>
                    <path d="M27.8030806,0.153494137 C26.8576191,4.54781199 27.4542695,8.67899704 29.9143052,12.5865192 C31.6331175,15.3121365 31.1259646,18.1079226 29.6802347,20.8050338 C29.2625794,21.5812756 28.7072355,22.2961197 28.1266487,23 C28.9596645,20.1625512 28.6934666,17.4106207 27.6791609,14.7003528 C27.4588592,14.1104967 27.2247886,13.4921346 26.8300814,13.0031462 C24.390699,9.99685385 24.7578685,6.72742873 25.8157756,3.43169034 C26.1990088,2.23662885 26.9126945,1.13804939 27.4749228,0 C27.5850737,0.0504337878 27.6952245,0.103060349 27.8030806,0.153494137" id="Fill-9"></path>
                </g>
            </g>
        </g>
    </g>
</svg>