<?xml version="1.0" encoding="UTF-8"?>
<svg width="108px" height="89px" viewBox="0 0 108 89" version="1.1" xmlns="http://www.w3.org/2000/svg" xmlns:xlink="http://www.w3.org/1999/xlink">
    <!-- Generator: Sketch 46.2 (44496) - http://www.bohemiancoding.com/sketch -->
    <title>children</title>
    <desc>Created with Sketch.</desc>
    <defs>
        <polygon id="path-1" points="0.0127058824 82.9997888 0.0127058824 0.141593815 53.9241882 0.141593815 53.9241882 82.9997888"></polygon>
    </defs>
    <g id="Mockups" stroke="none" stroke-width="1" fill="none" fill-rule="evenodd">
        <g id="Home" transform="translate(-365.000000, -783.000000)">
            <g id="Program-for-Kids-icons" transform="translate(314.000000, 750.000000)">
                <g id="children" transform="translate(51.000000, 33.000000)">
                    <path d="M57.4036163,32.5050252 C57.4036163,31.370287 58.0795951,30.3930399 59.0469585,29.9537115 L58.5819607,34.7960353 C57.8669347,34.2887282 57.4036163,33.4514497 57.4036163,32.5050252 Z M103.107971,32.5050252 C103.107971,33.4506052 102.645072,34.2870393 101.931096,34.7945575 L101.466518,29.954767 C102.432832,30.3949399 103.107971,31.3711315 103.107971,32.5050252 Z M60.0361548,85.5776295 L65.1276188,85.5776295 L65.1276188,79.5241441 L60.0361548,79.5241441 L60.0361548,85.5776295 Z M95.3858576,85.5776295 L100.477112,85.5776295 L100.477112,79.5241441 L95.3858576,79.5241441 L95.3858576,85.5776295 Z M97.3730674,4.64535442 C96.5879243,4.12643599 95.5325996,4.34620576 95.0165885,5.13619468 C94.5007872,5.92597249 94.7193257,6.9870319 95.5046787,7.50573922 C100.131985,10.562249 103.118467,14.9301995 104.171693,20.0674498 C103.401035,19.4811859 102.514915,18.876133 101.525928,18.3120361 C96.4924055,15.4406734 91.2059154,14.9920559 86.2372613,17.0130511 C79.2639731,19.8500023 75.8164812,18.2921914 73.8294814,16.8728714 C73.2761024,16.4785102 72.7369988,16.0149037 72.1815206,15.4558736 C71.5168781,14.7872753 70.4397206,14.7870642 69.7748681,15.4554514 C69.1104355,16.1234163 69.1102256,17.2068539 69.7744482,17.8752411 C70.0769593,18.1794565 70.3775809,18.4589715 70.6792522,18.7232864 C68.8868587,21.2315329 64.6932709,22.3379818 62.2198603,22.6928646 C61.2791581,20.8401273 59.4695502,16.5435334 60.9313019,13.2355867 C64.1323345,5.99247343 74.0072932,3.4223705 81.4909244,3.4223705 C85.0427521,3.4223705 88.6010878,4.14269178 91.7811272,5.50543322 C92.6466739,5.87593845 93.6453172,5.47123274 94.0137466,4.60207603 C94.3821761,3.7324971 93.9801576,2.72738292 93.1154506,2.35687769 C89.517018,0.814900385 85.4974633,0 81.4909244,0 C67.8993418,0 60.3523114,6.11893077 57.8213796,11.8456116 C55.549503,16.9856063 58.5254892,23.0874368 59.5316899,24.9017513 L59.393975,26.3350049 C56.3556392,26.7283104 54,29.3442251 54,32.5048141 C54,35.2556307 55.7625832,37.5922414 58.2364138,38.413053 C57.7325786,44.1089111 60.2668693,49.7222237 64.8721324,53.0871711 L65.2325844,53.3506415 C60.0955654,55.740453 56.6323286,60.9746046 56.6323286,66.8756657 L56.6323286,87.2887092 C56.6323286,88.233867 57.3939594,89 58.3338219,89 L102.178185,89 C103.118257,89 103.879888,88.233867 103.879888,87.2887092 L103.879888,66.8756657 C103.879888,63.943291 103.033235,61.1052843 101.43062,58.6683943 C100.912509,57.8800943 99.8567646,57.6634913 99.0726712,58.1845208 C98.2887877,58.7059726 98.0733982,59.7676654 98.5919285,60.5559654 C99.825065,62.4312919 100.476692,64.6167449 100.476692,66.8758768 L100.476692,76.1019847 L95.3854378,76.1019847 L95.3854378,69.6912943 C95.3854378,68.7461365 94.623807,67.9800035 93.6837346,67.9800035 C92.7438721,67.9800035 91.9822414,68.7461365 91.9822414,69.6912943 L91.9822414,85.5778406 L68.5308152,85.5778406 L68.5308152,69.6912943 C68.5308152,68.7461365 67.7691844,67.9800035 66.829322,67.9800035 C65.8892496,67.9800035 65.1276188,68.7461365 65.1276188,69.6912943 L65.1276188,76.1019847 L60.0361548,76.1019847 L60.0361548,66.8758768 C60.0361548,62.3827356 62.6409825,58.3916238 66.5203031,56.5219974 C66.77411,58.0561635 67.278365,59.5432511 68.0169034,60.9081037 C68.3257123,61.478534 68.9099511,61.8015385 69.5132937,61.8015385 C69.7880938,61.8015385 70.0668826,61.7346154 70.325308,61.5931689 C71.1507579,61.1413848 71.4553682,60.1020701 71.0063252,59.2719695 C70.5990584,58.5195589 70.2868906,57.7171142 70.0729706,56.8861692 L72.7661793,58.8535414 C75.0061463,60.4915756 77.6307075,61.3104872 80.2563183,61.3104872 C82.8812994,61.3104872 85.5069102,60.4915756 87.7472971,58.8539636 L90.4447045,56.8836358 C89.2674097,61.4348334 85.146878,64.8046364 80.2579978,64.8046364 C77.8471467,64.8046364 75.5794687,64.0074696 73.6999537,62.4992706 C72.9654041,61.9100512 71.8943346,62.0312307 71.3086262,62.7697077 C70.7222881,63.5086071 70.8427887,64.5852889 71.5775482,65.1747194 C74.0308055,67.1431472 77.1136467,68.2270069 80.2582077,68.2270069 C87.1586498,68.2270069 92.8998511,63.1535132 93.9950627,56.5217863 C94.4970085,56.7641452 94.9825796,57.0438714 95.4500966,57.3615981 C95.742321,57.5604676 96.0738025,57.65568 96.4017152,57.65568 C96.9477465,57.65568 97.484121,57.3919985 97.8130834,56.9030583 C98.3393812,56.1202473 98.135118,55.0562323 97.3566927,54.5269692 C96.69268,54.0753962 95.999067,53.684624 95.2817317,53.3504304 L95.641554,53.0875934 C100.247237,49.7222237 102.781318,44.1087 102.277063,38.4126308 C104.750263,37.5907636 106.512007,35.2549974 106.512007,32.5054475 C106.512007,29.3457029 104.157207,26.7306327 101.119711,26.3358493 L100.929094,24.3509546 C100.839033,23.4100191 100.007285,22.7219983 99.0718315,22.8119329 C98.1363776,22.902712 97.4511618,23.7389349 97.5416422,24.6796593 L98.8799543,38.6188893 C99.3161915,43.155731 97.3084085,47.6387387 93.6411185,50.318621 L85.7470717,56.0852023 C82.4620666,58.4857806 78.0501503,58.4857806 74.7672445,56.0849912 L66.8731976,50.318621 C63.2056977,47.6385276 61.1981246,43.155731 61.6341519,38.6186781 L62.8406272,26.054012 C65.4469243,25.6583842 70.8686102,24.4056332 73.4919118,20.6577248 C77.323578,22.6155968 81.9328298,22.4562057 87.5138535,20.1856737 C91.5111555,18.5592507 95.6306375,18.9128668 99.7570473,21.2376552 C102.964798,23.0443695 104.976359,25.4151808 104.993994,25.4362922 C105.323796,25.83192 105.804748,26.0483119 106.298717,26.0483119 C106.493113,26.0483119 106.689819,26.0149559 106.880016,25.9452882 C107.552426,25.6993403 108,25.0564979 108,24.3372322 C107.99958,16.1650058 104.225645,9.17142938 97.3730674,4.64535442 L97.3730674,4.64535442 Z" id="Fill-1" fill="#FFFFFF"></path>
                    <path d="M70,35.788154 L70,38.2120666 C70,39.1994559 70.671396,40 71.5000925,40 C72.328604,40 73,39.1994559 73,38.2120666 L73,35.788154 C73,34.8005441 72.328604,34 71.5000925,34 C70.671396,34 70,34.8005441 70,35.788154" id="Fill-2" fill="#FFFFFF"></path>
                    <path d="M92.2978305,31.9999725 C92.7333137,31.9999725 93.169007,31.8256623 93.5013937,31.4774822 C94.1661671,30.7809018 94.1661671,29.6511871 93.5016037,28.9546067 C92.2990903,27.6941594 90.7003585,27 89,27 C87.2996415,27 85.7009097,27.6941594 84.4983963,28.9546067 C83.8338329,29.6511871 83.8338329,30.7809018 84.4986063,31.4774822 C85.1631697,32.1742826 86.2407494,32.1740626 86.9055228,31.4774822 C87.4648899,30.8911662 88.2086131,30.5682962 88.99979,30.5682962 C89.790757,30.5682962 90.5349001,30.8911662 91.0940572,31.4774822 C91.4266539,31.8256623 91.8621372,31.9999725 92.2978305,31.9999725" id="Fill-3" fill="#FFFFFF"></path>
                    <path d="M75.2979366,32 C75.7334061,32 76.1690856,31.8256889 76.5012519,31.4775068 C77.1662144,30.7809226 77.1662144,29.6512017 76.5014619,28.9546175 C75.2991964,27.6941632 73.7005149,27 72.00021,27 C70.299905,27 68.7012236,27.6941632 67.4987481,28.9546175 C66.8337856,29.6512017 66.8337856,30.7807025 67.4985381,31.4772867 C68.1630806,32.174091 69.2408363,32.174091 69.9051688,31.4772867 C70.4647283,30.8907474 71.208638,30.5676556 72,30.5676556 C72.7909421,30.5676556 73.5350617,30.8907474 74.0942013,31.4770666 C74.4267875,31.8256889 74.862257,32 75.2979366,32" id="Fill-4" fill="#FFFFFF"></path>
                    <path d="M87,35.788154 L87,38.2120666 C87,39.1994559 87.6713546,40 88.5,40 C89.3284604,40 90,39.1994559 90,38.2120666 L90,35.788154 C90,34.8005441 89.3284604,34 88.5,34 C87.6713546,34 87,34.8005441 87,35.788154" id="Fill-5" fill="#FFFFFF"></path>
                    <path d="M79.4998143,52 C81.3093358,52 83.1184329,51.3117053 84.4961054,49.9349036 C85.1679649,49.2633655 85.1679649,48.1748205 84.4961054,47.5034945 C83.824246,46.8321685 82.7351802,46.8321685 82.063533,47.5034945 C80.6502091,48.9163547 78.3496318,48.9163547 76.93652,47.5034945 C76.2644484,46.8321685 75.1755948,46.8321685 74.5037354,47.5034945 C73.8320882,48.1750326 73.8320882,49.2635776 74.5037354,49.9349036 C75.8811957,51.3117053 77.690505,52 79.4998143,52" id="Fill-6" fill="#FFFFFF"></path>
                    <path d="M81.376348,45 C82.2732129,45 83,44.1693942 83,43.144698 L83,36.8550731 C83,35.8306058 82.2732129,35 81.376348,35 C80.4792828,35 79.7524957,35.8306058 79.7524957,36.8550731 L79.7524957,41.2896249 L78.6238523,41.2896249 C77.7267871,41.2896249 77,42.1202307 77,43.144698 C77,44.1693942 77.7267871,45 78.6238523,45 L81.376348,45" id="Fill-7" fill="#FFFFFF"></path>
                    <path d="M35.0001906,38 C33.3069202,38 31.7147276,38.5416573 30.5172611,39.5247976 C29.8275796,40.0911408 29.8275796,41.0091677 30.5172611,41.5753321 C31.2067247,42.1414964 32.3248975,42.1414964 33.0141433,41.5753321 C33.5445837,41.1397522 34.2499496,40.8998703 34.9999728,40.8998703 C35.7502138,40.8998703 36.4555797,41.1397522 36.9858023,41.5753321 C37.330643,41.8583248 37.782661,42 38.2344612,42 C38.6862614,42 39.1382794,41.8585036 39.4829023,41.5753321 C40.1723659,41.0089889 40.1723659,40.0909619 39.4829023,39.5247976 C38.2856536,38.5416573 36.693461,38 35.0001906,38" id="Fill-8" fill="#FFFFFF"></path>
                    <path d="M23.4827502,41.5753321 C24.1724166,41.0089889 24.1724166,40.0909619 23.4827502,39.5247976 C22.2855276,38.5416573 20.6931518,38 19.0001361,38 C17.3066848,38 15.7145269,38.5416573 14.5170865,39.5247976 C13.8276378,40.0911408 13.8276378,41.0091677 14.5170865,41.5753321 C15.2067529,42.1414964 16.3246835,42.1414964 17.0141321,41.5753321 C17.5443431,41.1397522 18.2496937,40.8998703 18.9999183,40.8998703 C19.7499251,40.8998703 20.4552757,41.1397522 20.9857046,41.5753321 C21.3303199,41.8583248 21.7823281,42 22.2341184,42 C22.6859088,42 23.1381348,41.8585036 23.4827502,41.5753321" id="Fill-9" fill="#FFFFFF"></path>
                    <path d="M29.2260283,50.5119206 C27.9985867,51.8328319 26.0011627,51.8326163 24.7737212,50.5119206 C24.1390519,49.8293598 23.1102703,49.8293598 22.4760019,50.5119206 C21.8413327,51.1946969 21.8413327,52.3014589 22.4760019,52.9840197 C23.6843994,54.2840121 25.2911189,55 27.0000752,55 C28.7090314,55 30.3155505,54.2840121 31.5241484,52.9840197 C32.1586172,52.3012433 32.1586172,51.1944813 31.5241484,50.5119206 C30.8894791,49.8293598 29.8606975,49.8293598 29.2260283,50.5119206" id="Fill-10" fill="#FFFFFF"></path>
                    <g id="Group-14" transform="translate(0.000000, 6.000000)">
                        <mask id="mask-2" fill="white">
                            <use xlink:href="#path-1"></use>
                        </mask>
                        <g id="Clip-12"></g>
                        <path d="M25.8016235,40.7365267 L28.1242588,40.7365267 C29.0721176,40.7365267 29.8406118,39.9700967 29.8406118,39.0245725 C29.8406118,38.0792595 29.0721176,37.3128295 28.1242588,37.3128295 L25.8016235,37.3128295 C24.8537647,37.3128295 24.0852706,38.0792595 24.0852706,39.0245725 C24.0852706,39.9700967 24.8537647,40.7365267 25.8016235,40.7365267" id="Fill-11" fill="#FFFFFF" mask="url(#mask-2)"></path>
                        <path d="M49.2285176,32.2766514 L48.7147765,27.6417455 C49.7441647,27.9737455 50.4912706,28.9372214 50.4912706,30.0719771 C50.4912706,31.0109542 49.9868471,31.8327176 49.2285176,32.2766514 Z M40.4900471,48.0198295 L32.6697882,53.6866387 C29.2561412,56.1601654 24.6695294,56.1599542 21.2560941,53.6866387 L13.4356235,48.0198295 C9.42204706,45.1118728 7.26755294,40.2501425 7.81263529,35.3324453 L8.81894118,26.2531323 C8.82275294,26.2197634 8.82804706,26.187028 8.83185882,26.1538702 C11.4744706,26.7439517 13.9336941,27.0109033 16.2122824,27.0109033 C22.6823294,27.0109033 27.7142824,24.9025344 31.4936471,22.2328066 C32.4842824,23.4370458 34.1375294,25.118799 36.4993412,26.4731985 C37.3919294,26.9851374 38.5322824,26.6191349 38.9424706,25.677201 C39.2927294,24.8738117 38.9736,23.9426489 38.2127294,23.5052621 C36.3024,22.407888 34.9570588,21.0344809 34.1690824,20.0828321 C34.4282824,19.8475598 34.6788,19.6114427 34.9216941,19.3746921 C35.7206824,19.8135573 36.6376235,20.0642468 37.6125882,20.0642468 C37.8116471,20.0642468 38.0085882,20.0532646 38.2023529,20.0329898 L40.824,25.929369 C41.5391294,27.5378372 43.0138588,28.6096565 44.7683294,28.7963537 C44.9479059,28.8151501 45.1262118,28.8248651 45.3036706,28.8248651 C45.3333176,28.8248651 45.3629647,28.8227532 45.3926118,28.8223308 L46.1143059,35.3322341 C46.6585412,40.2501425 44.5038353,45.1114504 40.4900471,48.0198295 Z M32.4999529,12.2174733 L26.0678118,11.5340433 C25.3175294,11.4544224 24.9996706,10.9127048 24.8976,10.6835573 C24.7955294,10.4544097 24.6068471,9.85588041 25.0509176,9.24763613 L28.7686588,4.15992621 C29.2131529,3.55189313 29.8425176,3.5480916 30.0921882,3.57470229 C30.3420706,3.60131298 30.9564,3.73732316 31.2624,4.4251883 L33.8859529,10.3245242 C33.2995765,10.8474453 32.8248,11.4918041 32.4999529,12.2174733 Z M37.6117412,12.3268728 C38.8041882,12.3268728 39.7744941,13.2943613 39.7744941,14.4838168 C39.7744941,15.6730611 38.8044,16.6407608 37.6117412,16.6407608 C36.4190824,16.6407608 35.4489882,15.6730611 35.4489882,14.4838168 C35.4489882,13.2943613 36.4190824,12.3268728 37.6117412,12.3268728 Z M4.69715294,32.278341 C3.93797647,31.8346183 3.43291765,31.0122214 3.43291765,30.0719771 C3.43291765,28.935743 4.18087059,27.9716336 5.21131765,27.6406896 L4.69715294,32.278341 Z M50.7201882,24.783631 L52.9471059,21.7367074 C53.9866588,20.3147252 54.1802118,18.5051985 53.4650824,16.8963079 C52.7499529,15.2874173 51.2752235,14.215598 49.5205412,14.029112 C48.5796706,13.9290051 47.7326118,14.6094784 47.6320235,15.5499338 C47.5316471,16.4899669 48.2139529,17.3332723 49.1569412,17.4333791 C49.9072235,17.5132112 50.2250824,18.0549288 50.3269412,18.2840763 C50.4288,18.5132239 50.6179059,19.1119644 50.1734118,19.7199975 L46.4552471,24.8066514 C46.0107529,25.4144733 45.3818118,25.4182748 45.1317176,25.3918753 C44.8818353,25.3654758 44.2675059,25.2292545 43.9617176,24.5416005 L41.3388,18.641631 C41.9249647,18.1184987 42.3993176,17.4745623 42.7237412,16.7491043 L44.4735529,16.9351679 C44.5356,16.941715 44.5968,16.944883 44.6577882,16.944883 C45.5239059,16.944883 46.2684706,16.2929211 46.3622824,15.4145573 C46.4628706,14.474313 45.7803529,13.6310076 44.8375765,13.5306896 L43.0903059,13.3450483 C42.5615294,10.8119644 40.3062353,8.90275318 37.6119529,8.90275318 C37.4131059,8.90275318 37.2170118,8.91352417 37.0232471,8.93379898 L34.4005412,3.03678626 C33.6849882,1.42831807 32.2104706,0.356498728 30.456,0.170223919 C28.7008941,-0.0168956743 27.0336706,0.721445293 25.9943294,2.14363868 L22.2765882,7.2311374 C21.2374588,8.65333079 21.0439059,10.4628575 21.7594588,12.0715369 C22.4745882,13.6802163 23.9495294,14.7522468 25.7042118,14.9387328 L32.1333882,15.6217405 C32.2259294,16.0650407 32.3712,16.4893333 32.5624235,16.8874377 C28.2049412,21.1483155 20.8177412,25.3211247 9.54741176,22.8043028 C11.1356471,17.7622112 14.8743529,13.5822214 19.8590824,11.4797659 C20.7319765,11.1116514 21.1406824,10.1069924 20.7711529,9.23623155 C20.4018353,8.36547074 19.3948941,7.9578626 18.5217882,8.32639949 C11.8503529,11.140374 7.05832941,17.0874402 5.68185882,24.1018906 C2.52105882,24.2645115 0,26.880173 0,30.0719771 C0,32.796827 1.81503529,35.0994962 4.32910588,35.8177735 C3.97948235,41.656285 6.64348235,47.330486 11.4177176,50.7896641 L12.7740706,51.7723588 C7.74656471,54.0091349 4.34392941,59.044257 4.34392941,64.728173 L4.34392941,68.4403639 C4.34392941,69.385888 5.11242353,70.1523181 6.06028235,70.1523181 C7.00835294,70.1523181 7.77684706,69.385888 7.77684706,68.4403639 L7.77684706,64.728173 C7.77684706,60.5585318 10.1890588,56.8486641 13.7949882,55.0741959 C14.8968,61.3298193 20.3804471,66.0994682 26.9637882,66.0994682 C32.3504471,66.0994682 37.1871529,62.9019618 39.2863765,57.9532188 C39.6556941,57.0826692 39.2474118,56.0782214 38.3743059,55.7098957 C37.5016235,55.3413588 36.4938353,55.7483333 36.1247294,56.6193053 C34.5642353,60.2985496 30.9682588,62.675771 26.9637882,62.675771 C22.2734118,62.675771 18.3343765,59.4189186 17.2937647,55.0469517 L19.2388235,56.4562621 C21.5489647,58.130201 24.2561647,58.9671705 26.9633647,58.9671705 C29.6705647,58.9671705 32.3777647,58.130201 34.6879059,56.4562621 L37.7510824,54.2368041 C42.6358588,55.3354453 46.1496706,59.6962188 46.1496706,64.7279618 L46.1496706,79.5760916 L41.4830118,79.5760916 L41.4830118,67.3900865 C41.4830118,66.4445623 40.7143059,65.6781323 39.7664471,65.6781323 C38.8185882,65.6781323 38.0498824,66.4445623 38.0498824,67.3900865 L38.0498824,79.5760916 L15.8762118,79.5760916 L15.8762118,67.3900865 C15.8762118,66.4445623 15.1077176,65.6781323 14.1598588,65.6781323 C13.2117882,65.6781323 12.4432941,66.4445623 12.4432941,67.3900865 L12.4432941,79.5760916 L7.77663529,79.5760916 L7.77663529,74.7014784 C7.77663529,73.7561654 7.00792941,72.9897354 6.06007059,72.9897354 C5.11221176,72.9897354 4.34350588,73.7561654 4.34350588,74.7014784 L4.34350588,81.2878346 C4.34350588,82.2333588 5.11221176,82.9997888 6.06007059,82.9997888 L47.8658118,82.9997888 C48.8136706,82.9997888 49.5821647,82.2333588 49.5821647,81.2878346 L49.5821647,64.7279618 C49.5821647,59.0440458 46.1795294,54.0089237 41.1520235,51.7721476 L42.5079529,50.7894529 C47.2826118,47.3298524 49.9468235,41.6554402 49.5965647,35.8165064 C52.11,35.097173 53.9241882,32.7953486 53.9241882,30.0717659 C53.9241882,27.7802901 52.6235294,25.7868117 50.7201882,24.783631 L50.7201882,24.783631 Z" id="Fill-13" fill="#FFFFFF" mask="url(#mask-2)"></path>
                    </g>
                </g>
            </g>
        </g>
    </g>
</svg>