<?xml version="1.0" encoding="UTF-8"?>
<svg width="114px" height="87px" viewBox="0 0 114 87" version="1.1" xmlns="http://www.w3.org/2000/svg" xmlns:xlink="http://www.w3.org/1999/xlink">
    <!-- Generator: Sketch 46.2 (44496) - http://www.bohemiancoding.com/sketch -->
    <title>Summer</title>
    <desc>Created with Sketch.</desc>
    <defs>
        <polygon id="path-1" points="0.0133333333 87 0.0133333333 0.0537091837 113.778 0.0537091837 113.778 87"></polygon>
    </defs>
    <g id="Mockups" stroke="none" stroke-width="1" fill="none" fill-rule="evenodd">
        <g id="Home" transform="translate(-663.000000, -784.000000)">
            <g id="Program-for-Kids-icons" transform="translate(314.000000, 750.000000)">
                <g id="Summer" transform="translate(349.000000, 34.000000)">
                    <path d="M39.5,76 C38.6716,76 38,76.7848462 38,77.7529322 L38,85.2470678 C38,86.2151538 38.6716,87 39.5,87 C40.3284,87 41,86.2151538 41,85.2470678 L41,77.7529322 C41,76.7848462 40.3284,76 39.5,76" id="Fill-1" fill="#FFFFFF"></path>
                    <path d="M74.5,76 C73.6716,76 73,76.7848462 73,77.7529322 L73,85.2470678 C73,86.2151538 73.6716,87 74.5,87 C75.3284,87 76,86.2151538 76,85.2470678 L76,77.7529322 C76,76.7848462 75.3284,76 74.5,76" id="Fill-2" fill="#FFFFFF"></path>
                    <path d="M23.5913495,44.827736 C23.8303121,44.9448234 24.0841405,45 24.334197,45 C24.9445833,45 25.5323381,44.6698093 25.8238858,44.0991441 C26.2350257,43.2943042 25.901765,42.3156797 25.079707,41.9133684 C21.2154801,40.0217231 13.9704984,40 13.663863,40 C12.7450663,40 12.0002219,40.7290264 12,41.6287961 C11.9997782,42.5283486 12.7444007,43.2580267 13.6634193,43.2584611 C15.5356257,43.2595473 20.968308,43.5436851 23.5913495,44.827736" id="Fill-3" fill="#FFFFFF"></path>
                    <g id="Group-7">
                        <mask id="mask-2" fill="white">
                            <use xlink:href="#path-1"></use>
                        </mask>
                        <g id="Clip-5"></g>
                        <path d="M8.792,72.9963291 C7.87155556,72.9963291 7.12533333,73.7415995 7.12533333,74.6608699 L7.12533333,85.3354592 C7.12533333,86.2547296 7.87155556,87 8.792,87 C9.71244444,87 10.4586667,86.2547296 10.4586667,85.3354592 L10.4586667,74.6608699 C10.4586667,73.7415995 9.71266667,72.9963291 8.792,72.9963291" id="Fill-4" fill="#FFFFFF" mask="url(#mask-2)"></path>
                        <path d="M93.5455556,66.4020842 L91.9964444,64.9319617 C92.2577778,64.4428087 92.4013333,63.8879617 92.4013333,63.307148 L92.4013333,61.5358546 C93.5653333,61.8965051 94.8,62.092699 96.0786667,62.092699 C97.3571111,62.092699 98.592,61.8965051 99.7557778,61.5358546 L99.7555556,63.3067041 C99.7555556,63.8879617 99.8991111,64.4428087 100.160667,64.9321837 L98.6117778,66.4020842 C97.1915556,67.7505842 94.9662222,67.7503622 93.5455556,66.4020842 Z M75.9786667,62.5665383 C79.6844444,61.2451148 82.2051111,59.8105026 83.5428889,58.9453852 C84.6922222,58.2021122 85.2873333,56.8496173 85.0586667,55.4991199 C85.0462222,55.4252143 85.0326667,55.3442066 85.0193333,55.2643087 C85.9566667,57.1467934 87.3582222,58.7436429 89.0682222,59.9194745 L89.0682222,63.307148 C89.0682222,63.3508699 89.044,63.3901531 89.0048889,63.4096837 L83.7831111,66.0172423 C83.7211111,65.9881684 83.6615556,65.9555434 83.5988889,65.927801 L75.9786667,62.5665383 Z M56.8888889,71.2172679 C51.4662222,71.2172679 46.5551111,68.190023 44.106,63.4238878 L46.532,62.353699 C48.4253333,61.5185434 49.6486667,59.6433827 49.6486667,57.5762449 L49.6486667,53.5822347 C51.888,54.4808648 54.3315556,54.9764541 56.8888889,54.9764541 C59.4462222,54.9764541 61.8895556,54.4808648 64.1291111,53.5822347 L64.1291111,57.5762449 C64.1291111,59.6433827 65.3524444,61.5187653 67.2457778,62.353699 L69.6713333,63.4236658 C67.224,68.1951276 62.3317778,71.2172679 56.8888889,71.2172679 Z M26.4906667,62.2072194 L26.4911111,59.913926 C27.0508889,59.5266429 27.5846667,59.0931964 28.084,58.609148 C28.42,58.2835638 28.7328889,57.9408903 29.0262222,57.5857883 C29.294,58.1282066 29.7044444,58.6020459 30.2348889,58.9449413 C31.5708889,59.808949 34.092,61.244227 37.7995556,62.5660944 L33.1311111,64.6254643 L27.866,63.1231607 C26.4904444,62.730773 26.4906667,62.5776352 26.4906667,62.2072194 Z M19.1015556,62.0869286 C19.2297778,62.0909235 19.3573333,62.092699 19.4851111,62.092699 C20.7491111,62.092699 21.9831111,61.9020536 23.1573333,61.5382959 L23.1573333,62.2065536 C23.1573333,62.567648 23.1944444,62.8952296 23.2604444,63.1944031 L19.4804444,66.9695816 L15.6826667,63.176648 C15.7611111,62.8641582 15.8031111,62.5390179 15.8031111,62.2072194 L15.8031111,61.5050051 C16.8515556,61.8487883 17.9573333,62.05275 19.1015556,62.0869286 Z M10.4586667,49.3061403 L10.4586667,46.1954464 C10.4586667,45.9371097 10.3984444,45.682102 10.2826667,45.4510638 L9.25355556,43.3954668 C8.87666667,42.6422066 8.67733333,41.7992832 8.67733333,40.9572474 L8.67733333,40.8580408 C8.67733333,36.8709107 11.9253333,33.6270536 15.9175556,33.6270536 L30.2833333,33.6270536 L30.2833333,40.5371173 C30.2833333,41.6536913 30.0191111,42.7720408 29.5188889,43.7707653 L28.6777778,45.4508418 C28.562,45.682102 28.5017778,45.9368878 28.5017778,46.1952245 L28.5017778,49.7533469 C28.5017778,52.2110969 27.5288889,54.5077194 25.7622222,56.2197551 C23.9964444,57.931125 21.6651111,58.83375 19.2015556,58.7589566 C14.3806667,58.6149184 10.4586667,54.3741122 10.4586667,49.3061403 Z M42.0802222,9.10370663 C45.8835556,5.36115306 51.0042222,3.38279082 56.8888889,3.38279082 C62.7735556,3.38279082 67.8942222,5.36115306 71.6975556,9.10370663 C75.588,12.9321505 77.9002222,18.4182551 78.3844444,24.9687781 C79.6966667,42.7218827 81.1904444,52.6219056 81.772,56.0541888 C81.7808889,56.1070102 81.7631111,56.1303138 81.7313333,56.1507321 C80.1462222,57.1754235 76.7066667,59.0867602 71.3408889,60.5207066 L68.5924444,59.3082551 C67.906,59.0055306 67.4624444,58.3255102 67.4624444,57.576023 L67.4624444,51.8533316 C72.8184444,48.382875 76.3693333,42.3583469 76.3693333,35.5208571 L76.3693333,32.3997321 C76.3693333,30.3712117 75.5057778,28.4576556 74,27.1499923 C70.6513333,24.2412628 63.0711111,19.165301 49.9293333,17.8527551 C49.0157778,17.7613163 48.1966667,18.4284643 48.1051111,19.3435179 C48.0135556,20.2583495 48.6817778,21.0739745 49.5977778,21.1654133 C61.8211111,22.3860765 68.7626667,27.0128342 71.8126667,29.6621173 C72.5902222,30.3372551 73.036,31.3353138 73.036,32.3997321 L73.036,35.5208571 C73.036,44.4128342 65.7924444,51.6471505 56.8891111,51.6471505 C47.9857778,51.6471505 40.7422222,44.4128342 40.7422222,35.5208571 L40.7422222,34.1284133 C40.7422222,33.4887857 41.0973333,32.9028673 41.692,32.5608597 C43.7757778,31.3626122 46.5237778,29.1427806 47.7822222,25.3727066 C48.0733333,24.5007092 47.6013333,23.5579133 46.728,23.2671735 C45.8551111,22.9764337 44.9108889,23.4478316 44.6197778,24.320051 C43.6926667,27.0978367 41.6113333,28.7657066 40.0286667,29.6758776 C38.4126667,30.6051352 37.4086667,32.3114005 37.4086667,34.1286352 L37.4086667,35.5210791 C37.4086667,42.3587908 40.9593333,48.3830969 46.3155556,51.8535536 L46.3155556,57.5762449 C46.3155556,58.3257321 45.872,59.0055306 45.1855556,59.308477 L42.4368889,60.5209286 C37.0688889,59.0865383 33.6293333,57.1740918 32.0464444,56.1507321 C32.0148889,56.1303138 31.9971111,56.1070102 32.006,56.0544107 C32.5873333,52.6223495 34.0811111,42.7227704 35.3935556,24.969 C35.8775556,18.418477 38.1897778,12.9321505 42.0802222,9.10370663 Z M96.0788889,33.6272755 C102.035556,33.6272755 106.881778,38.4673163 106.881778,44.4163852 C106.881778,45.5631429 106.694444,46.6990255 106.333778,47.7834184 C101.601333,42.981773 93.2762222,41.0999541 92.8748889,41.0116224 C92.382,40.9030944 91.866,41.0238291 91.4722222,41.339648 C91.0786667,41.6556888 90.8495556,42.1328571 90.8495556,42.637102 C90.8495556,42.647977 90.7735556,43.8027245 89.5564444,45.0182832 C88.9055556,45.6683418 88.9055556,46.7223291 89.5564444,47.3721658 C90.2073333,48.0222245 91.2626667,48.0222245 91.9133333,47.3721658 C92.8506667,46.4360281 93.4013333,45.4859082 93.7244444,44.6835995 C96.5288889,45.515648 102.349556,47.6169643 104.961778,51.3053648 C104.220444,55.5952194 100.499556,58.7633954 96.0788889,58.7633954 C91.4642222,58.7633954 87.61,55.3122474 87.1137778,50.735648 C87.0871111,50.4904056 87.0064444,50.2542628 86.8771111,50.0438648 C85.8295556,48.3400408 85.276,46.3940816 85.276,44.4161633 C85.276,38.4673163 90.122,33.6272755 96.0788889,33.6272755 Z M90.6202222,31.0732041 C90.6202222,28.5575281 93.0691111,26.5108087 96.0788889,26.5108087 C99.0886667,26.5108087 101.537556,28.5575281 101.537556,31.0732041 C101.537556,31.178625 101.529111,31.2831582 101.520667,31.3874694 C99.8446667,30.6865867 98.0064444,30.2981939 96.0788889,30.2981939 C94.1515556,30.2981939 92.3135556,30.6865867 90.638,31.3872474 C90.6293333,31.2829362 90.6202222,31.178625 90.6202222,31.0732041 Z M109.902222,66.779824 L103.152889,63.4099056 C103.113778,63.390375 103.089333,63.3508699 103.089333,63.3073699 L103.089778,59.9194745 C105.860444,58.0141301 107.821556,55.001977 108.312222,51.4669362 C109.558444,49.3161276 110.215111,46.8867857 110.215111,44.4166071 C110.215111,39.8102679 107.994222,35.7128342 104.566444,33.1343495 C104.767333,32.4660918 104.871111,31.77675 104.871111,31.073426 C104.871111,26.7220944 100.926889,23.181949 96.0791111,23.181949 C91.2313333,23.181949 87.2871111,26.7220944 87.2871111,31.073426 C87.2871111,31.7776378 87.3897778,32.4672015 87.5906667,33.1350153 C85.5468889,34.6726071 83.9353333,36.7517296 82.9651111,39.1553265 C82.552,35.100727 82.1217778,30.3075153 81.7091111,24.7239796 C81.1646667,17.3569439 78.5117778,11.1355561 74.0375556,6.73273469 C69.5973333,2.36320408 63.6673333,0.0537091837 56.8888889,0.0537091837 C50.1104444,0.0537091837 44.1804444,2.36320408 39.7406667,6.73251276 C35.2664444,11.1355561 32.6135556,17.3569439 32.0691111,24.7237577 C31.9244444,26.6797041 31.7777778,28.5335587 31.6304444,30.2981939 L15.9175556,30.2981939 C10.0873333,30.2981939 5.344,35.035477 5.344,40.8582628 L5.344,40.9574694 C5.344,42.3135153 5.66488889,43.6715587 6.27222222,44.8844541 L7.12533333,46.5887219 L7.12533333,49.3063622 C7.12533333,53.6133061 9.25044444,57.477926 12.4693333,59.8036224 L12.4693333,62.2076633 C12.4693333,62.5159362 12.262,62.7902526 11.9653333,62.8750332 L5.08466667,64.8385255 C2.09088889,65.6925459 0,68.4610102 0,71.5705944 L0,85.3354592 C0,86.2547296 0.746222222,87 1.66666667,87 C2.58711111,87 3.33333333,86.2547296 3.33333333,85.3354592 L3.33333333,71.5705944 C3.33333333,69.9393444 4.43022222,68.487199 6.00044444,68.0391046 L12.8813333,66.0756122 C13.1295556,66.0048138 13.3653333,65.9087143 13.5897778,65.7946378 L17.8135556,70.0130281 L17.8135556,85.3354592 C17.8135556,86.2547296 18.5597778,87 19.4802222,87 C20.4006667,87 21.1468889,86.2547296 21.1468889,85.3354592 L21.1468889,70.0130281 L25.4002222,65.7651199 C25.9686667,66.0436531 26.5351111,66.2056684 26.9502222,66.3241837 L28.6397778,66.8062347 C26.3502222,68.4321582 24.9391111,71.0841046 24.9391111,73.9597653 L24.9391111,85.3350153 C24.9391111,86.2542857 25.6853333,86.9995561 26.6057778,86.9995561 C27.5262222,86.9995561 28.2724444,86.2542857 28.2724444,85.3350153 L28.2724444,73.9597653 C28.2724444,71.8020765 29.5495556,69.8445765 31.526,68.972801 L41.0548889,64.7695026 C44.0408889,70.7416531 50.1426667,74.5461276 56.8891111,74.5461276 C63.6606667,74.5461276 69.742,70.7500867 72.7262222,64.7708342 L82.2522222,68.972801 C84.2286667,69.8445765 85.5057778,71.8020765 85.5057778,73.9597653 L85.5057778,85.3350153 C85.5057778,86.2542857 86.252,86.9995561 87.1724444,86.9995561 C88.0928889,86.9995561 88.8391111,86.2542857 88.8391111,85.3350153 L88.8391111,73.9597653 C88.8391111,71.8304847 88.0642222,69.824602 86.7342222,68.2652602 L89.3135556,66.9773495 L91.2497778,68.8150026 C92.604,70.1004719 94.3413333,70.7427628 96.0793333,70.7427628 C97.8166667,70.7427628 99.5548889,70.1000281 100.908667,68.8150026 L102.844667,66.9775714 L108.411778,69.7573546 C109.665778,70.3834439 110.444667,71.6422806 110.444667,73.0424923 L110.444667,85.3352372 C110.444667,86.2545077 111.190889,86.9997781 112.111333,86.9997781 C113.031778,86.9997781 113.778,86.2545077 113.778,85.3352372 L113.778,73.0424923 C113.777778,70.3734566 112.292667,67.9736327 109.902222,66.779824 L109.902222,66.779824 Z" id="Fill-6" fill="#FFFFFF" mask="url(#mask-2)"></path>
                    </g>
                    <path d="M104.5,75 C103.6716,75 103,75.7576287 103,76.6921428 L103,85.3078572 C103,86.2423713 103.6716,87 104.5,87 C105.3284,87 106,86.2423713 106,85.3078572 L106,76.6921428 C106,75.7576287 105.3284,75 104.5,75" id="Fill-8" fill="#FFFFFF"></path>
                </g>
            </g>
        </g>
    </g>
</svg>