<?xml version="1.0" encoding="UTF-8"?>
<svg width="101px" height="67px" viewBox="0 0 101 67" version="1.1" xmlns="http://www.w3.org/2000/svg" xmlns:xlink="http://www.w3.org/1999/xlink">
    <!-- Generator: Sketch 46.2 (44496) - http://www.bohemiancoding.com/sketch -->
    <title>Youth served</title>
    <desc>Created with Sketch.</desc>
    <defs></defs>
    <g id="Mockups" stroke="none" stroke-width="1" fill="none" fill-rule="evenodd" stroke-linejoin="round">
        <g id="Home" transform="translate(-971.000000, -1826.000000)" stroke="#3F3E3E" stroke-width="4">
            <path d="M1046.74702,1883.38189 C1046.74702,1876.76602 1051.95218,1871.40205 1058.37261,1871.40205 C1064.79484,1871.40205 1070,1876.76602 1070,1883.38189 L1046.74702,1883.38189 Z M1070,1859.4204 C1070,1866.03808 1064.79484,1871.40205 1058.37261,1871.40205 C1051.95218,1871.40205 1046.74702,1866.03808 1046.74702,1859.4204 C1046.74702,1852.80453 1051.95218,1847.44237 1058.37261,1847.44237 C1064.79484,1847.44237 1070,1852.80453 1070,1859.4204 Z M973,1881.48777 C973,1874.90627 978.177994,1869.57124 984.565816,1869.57124 C990.951828,1869.57124 996.131633,1874.90627 996.131633,1881.48777 L973,1881.48777 Z M996.131633,1857.65291 C996.131633,1864.23622 990.951828,1869.57124 984.565816,1869.57124 C978.177994,1869.57124 973,1864.23622 973,1857.65291 C973,1851.07142 978.177994,1845.73639 984.565816,1845.73639 C990.951828,1845.73639 996.131633,1851.07142 996.131633,1857.65291 Z M1000.11972,1891 C1000.11972,1879.40188 1009.24596,1870 1020.50207,1870 C1031.75819,1870 1040.8808,1879.40188 1040.8808,1891 L1000.11972,1891 Z M1040.8808,1849 C1040.8808,1860.59812 1031.75819,1870 1020.50207,1870 C1009.24596,1870 1000.11972,1860.59812 1000.11972,1849 C1000.11972,1837.40188 1009.24596,1828 1020.50207,1828 C1031.75819,1828 1040.8808,1837.40188 1040.8808,1849 Z" id="Youth-served"></path>
        </g>
    </g>
</svg>