<?xml version="1.0" encoding="UTF-8"?>
<svg width="99px" height="80px" viewBox="0 0 99 80" version="1.1" xmlns="http://www.w3.org/2000/svg" xmlns:xlink="http://www.w3.org/1999/xlink">
    <!-- Generator: Sketch 46.2 (44496) - http://www.bohemiancoding.com/sketch -->
    <title>Education &amp; stem hero icon</title>
    <desc>Created with Sketch.</desc>
    <defs>
        <polygon id="path-1" points="0.0157978723 0.222792857 0.0157978723 73.9997357 99 73.9997357 99 0.222792857"></polygon>
    </defs>
    <g id="Mockups" stroke="none" stroke-width="1" fill="none" fill-rule="evenodd">
        <g id="Programs-Post" transform="translate(-672.000000, -307.000000)">
            <g id="Education-&amp;-stem-hero-icon" transform="translate(672.000000, 307.000000)">
                <path d="M49.5,20 C50.328,20 51,19.2536111 51,18.3333333 L51,11.6666667 C51,10.7455556 50.328,10 49.5,10 C48.672,10 48,10.7455556 48,11.6666667 L48,18.3333333 C48,19.2536111 48.672,20 49.5,20 Z" id="Fill-1" fill="#FFFFFF"></path>
                <g id="Group-5" transform="translate(0.000000, 6.000000)">
                    <mask id="mask-2" fill="white">
                        <use xlink:href="#path-1"></use>
                    </mask>
                    <g id="Clip-3"></g>
                    <path d="M49.5,60.1144286 C50.3720426,60.1144286 51.0797872,59.4042929 51.0797872,58.5287143 L51.0797872,17.7555071 C51.0797872,16.8791357 50.3720426,16.1697929 49.5,16.1697929 C48.6279574,16.1697929 47.9202128,16.8791357 47.9202128,17.7555071 L47.9202128,58.5287143 C47.9202128,59.4042929 48.6279574,60.1144286 49.5,60.1144286 Z" id="Fill-2" fill="#FFFFFF" mask="url(#mask-2)"></path>
                    <path d="M97.4202128,0.222792857 C96.5481702,0.222792857 95.8404255,0.933192857 95.8404255,1.80850714 L95.8404255,68.2042143 L55.5516383,68.2042143 C54.7433138,68.2042143 53.9905452,68.5903357 53.5142394,69.2418 L52.1598351,70.8283071 L46.8401649,70.8283071 L45.4857606,69.2425929 C45.0084016,68.5903357 44.255633,68.2042143 43.4473085,68.2042143 L3.15957447,68.2042143 L3.15957447,1.80850714 C3.15957447,0.933192857 2.45182979,0.222792857 1.57978723,0.222792857 C0.707744681,0.222792857 0,0.933192857 0,1.80850714 L0,69.7899286 C0,70.6663 0.707744681,71.3756429 1.57978723,71.3756429 L43.1468856,71.3756429 L44.9149309,73.4465857 C45.2153537,73.7975571 45.6534814,73.9997357 46.1142527,73.9997357 L52.8868005,73.9997357 C53.3475718,73.9997357 53.7856995,73.7975571 54.0861223,73.4455286 L55.8531144,71.3756429 L97.4202128,71.3756429 C98.2922553,71.3756429 99,70.6652429 99,69.7899286 L99,1.80850714 C99,0.933192857 98.2922553,0.222792857 97.4202128,0.222792857 Z" id="Fill-4" fill="#FFFFFF" mask="url(#mask-2)"></path>
                </g>
                <path d="M7.57317073,70.75988 L42.9737073,70.75988 C44.8735732,70.75988 46.6360488,71.7084193 47.6900732,73.2966774 C47.9818963,73.7361226 48.4735122,74 49,74 C49.5264878,74 50.0181037,73.7361226 50.3099268,73.2966774 C51.3629024,71.7084193 53.1264268,70.75988 55.0262927,70.75988 L90.4268293,70.75988 C91.2952195,70.75988 92,70.0544547 92,69.1829234 L92,1.57695654 C92,0.706476532 91.2952195,0 90.4268293,0 L55.0262927,0 C52.7577805,0 50.6140732,0.869691535 49,2.39119177 C47.384878,0.869691535 45.2422195,0 42.9737073,0 L7.57317073,0 C6.70478049,0 6,0.706476532 6,1.57695654 L6,69.1829234 C6,70.0544547 6.70478049,70.75988 7.57317073,70.75988 Z M9.14634146,3.15391309 L42.9737073,3.15391309 C44.8725244,3.15391309 46.6360488,4.10271528 47.6900732,5.69281313 C47.9808476,6.13225835 48.4735122,6.39718705 49,6.39718705 C49.5264878,6.39718705 50.0191524,6.13225835 50.3099268,5.69281313 C51.3639512,4.10271528 53.1274756,3.15391309 55.0262927,3.15391309 L88.8536585,3.15391309 L88.8536585,67.6070182 L55.0262927,67.6070182 C52.7577805,67.6070182 50.6140732,68.4753956 49,69.9961073 C47.384878,68.4753956 45.2422195,67.6070182 42.9737073,67.6070182 L9.14634146,67.6070182 L9.14634146,3.15391309 Z" id="Fill-6" fill="#FFFFFF"></path>
                <path d="M40.4150943,9 L15.5849057,9 C14.7100377,9 14,9.672 14,10.5 C14,11.32825 14.7100377,12 15.5849057,12 L40.4150943,12 C41.2899623,12 42,11.32825 42,10.5 C42,9.672 41.2899623,9 40.4150943,9 Z" id="Fill-7" fill="#FFFFFF"></path>
                <path d="M40.4150943,14 L15.5849057,14 C14.7100377,14 14,14.672 14,15.5 C14,16.32825 14.7100377,17 15.5849057,17 L40.4150943,17 C41.2899623,17 42,16.32825 42,15.5 C42,14.672 41.2899623,14 40.4150943,14 Z" id="Fill-8" fill="#FFFFFF"></path>
                <path d="M40.4150943,22 L15.5849057,22 C14.7100377,22 14,22.672 14,23.5 C14,24.32825 14.7100377,25 15.5849057,25 L40.4150943,25 C41.2899623,25 42,24.32825 42,23.5 C42,22.672 41.2899623,22 40.4150943,22 Z" id="Fill-9" fill="#FFFFFF"></path>
                <path d="M40.4150943,27 L15.5849057,27 C14.7100377,27 14,27.672 14,28.5 C14,29.32825 14.7100377,30 15.5849057,30 L40.4150943,30 C41.2899623,30 42,29.32825 42,28.5 C42,27.672 41.2899623,27 40.4150943,27 Z" id="Fill-10" fill="#FFFFFF"></path>
                <path d="M40.4150943,34 L15.5849057,34 C14.7100377,34 14,34.672 14,35.5 C14,36.32825 14.7100377,37 15.5849057,37 L40.4150943,37 C41.2899623,37 42,36.32825 42,35.5 C42,34.672 41.2899623,34 40.4150943,34 Z" id="Fill-11" fill="#FFFFFF"></path>
                <path d="M15.5254237,43 L27.4745763,43 C28.3166102,43 29,42.32825 29,41.5 C29,40.672 28.3166102,40 27.4745763,40 L15.5254237,40 C14.6833898,40 14,40.672 14,41.5 C14,42.32825 14.6833898,43 15.5254237,43 Z" id="Fill-12" fill="#FFFFFF"></path>
                <path d="M40.4150943,47 L15.5849057,47 C14.7100377,47 14,47.7024352 14,48.5679357 L14,61.4320643 C14,62.2986101 14.7100377,63 15.5849057,63 L40.4150943,63 C41.2899623,63 42,62.2986101 42,61.4320643 L42,48.5679357 C42,47.7024352 41.2899623,47 40.4150943,47 Z M17.1698113,59.8641286 L38.8301887,59.8641286 L38.8301887,50.1358714 L17.1698113,50.1358714 L17.1698113,59.8641286 Z" id="Fill-13" fill="#FFFFFF"></path>
                <path d="M55.5849057,37 L80.4150943,37 C81.2899623,37 82,36.329 82,35.5 C82,34.67175 81.2899623,34 80.4150943,34 L55.5849057,34 C54.7100377,34 54,34.67175 54,35.5 C54,36.329 54.7100377,37 55.5849057,37 Z" id="Fill-14" fill="#FFFFFF"></path>
                <path d="M55.5849057,43 L80.4150943,43 C81.2899623,43 82,42.329 82,41.5 C82,40.67175 81.2899623,40 80.4150943,40 L55.5849057,40 C54.7100377,40 54,40.67175 54,41.5 C54,42.329 54.7100377,43 55.5849057,43 Z" id="Fill-15" fill="#FFFFFF"></path>
                <path d="M55.5849057,50 L80.4150943,50 C81.2899623,50 82,49.329 82,48.5 C82,47.67175 81.2899623,47 80.4150943,47 L55.5849057,47 C54.7100377,47 54,47.67175 54,48.5 C54,49.329 54.7100377,50 55.5849057,50 Z" id="Fill-16" fill="#FFFFFF"></path>
                <path d="M55.5849057,56 L80.4150943,56 C81.2899623,56 82,55.329 82,54.5 C82,53.67175 81.2899623,53 80.4150943,53 L55.5849057,53 C54.7100377,53 54,53.67175 54,54.5 C54,55.329 54.7100377,56 55.5849057,56 Z" id="Fill-17" fill="#FFFFFF"></path>
                <path d="M55.5254237,62 L67.4745763,62 C68.3166102,62 69,61.329 69,60.5 C69,59.67175 68.3166102,59 67.4745763,59 L55.5254237,59 C54.6833898,59 54,59.67175 54,60.5 C54,61.329 54.6833898,62 55.5254237,62 Z" id="Fill-18" fill="#FFFFFF"></path>
                <path d="M55.5849057,27.9023901 C54.7100377,27.9023901 54,28.5959966 54,29.451195 C54,30.3071679 54.7100377,31 55.5849057,31 C57.8571321,31 59.7637736,30.4413977 61.4118113,29.5268284 C61.495283,29.4883664 61.5747925,29.4431929 61.6490189,29.3915661 C64.298717,27.8427611 66.2666415,25.368287 68,22.8375397 C69.732566,25.3672545 71.7002264,27.840696 74.3478113,29.389501 C74.4252075,29.4431929 74.5068302,29.4893989 74.5934717,29.5296678 C76.2401887,30.4424302 78.1449811,31 80.4150943,31 C81.2910189,31 82,30.3061354 82,29.451195 C82,28.5959966 81.2910189,27.9023901 80.4150943,27.9023901 C79.0737358,27.9023901 77.901434,27.646321 76.8490566,27.1894235 L76.8490566,12.8105765 C77.901434,12.353679 79.0737358,12.0976099 80.4150943,12.0976099 C81.2910189,12.0976099 82,11.4040034 82,10.548805 C82,9.69386462 81.2910189,9 80.4150943,9 C78.1439245,9 76.2383396,9.55860232 74.5913585,10.4711066 C74.5068302,10.5106011 74.4252075,10.5568071 74.3488679,10.6094665 C71.7002264,12.1582714 69.7333585,14.631713 68,17.1624603 C66.2666415,14.6306804 64.298717,12.1562064 61.6479623,10.6074014 C61.5747925,10.5568071 61.4963396,10.5126662 61.4136604,10.4742042 C59.7658868,9.55963486 57.8579245,9 55.5849057,9 C54.7100377,9 54,9.69386462 54,10.548805 C54,11.4040034 54.7100377,12.0976099 55.5849057,12.0976099 C56.9262642,12.0976099 58.098566,12.353679 59.1509434,12.8105765 L59.1509434,27.1894235 C58.098566,27.6470954 56.9262642,27.9023901 55.5849057,27.9023901 Z M73.6792453,15.0439532 L73.6792453,24.9560468 C72.3151698,23.5946472 71.1183019,21.8674716 69.8841887,19.9998709 C71.1183019,18.1325284 72.3151698,16.4053528 73.6792453,15.0439532 Z M62.3207547,15.0439532 C63.6848302,16.4053528 64.8816981,18.1325284 66.1158113,19.9998709 C64.8806415,21.8674716 63.6848302,23.5946472 62.3207547,24.9560468 L62.3207547,15.0439532 Z" id="Fill-19" fill="#FFFFFF"></path>
            </g>
        </g>
    </g>
</svg>