<?xml version="1.0" encoding="UTF-8"?>
<svg width="109px" height="102px" viewBox="0 0 109 102" version="1.1" xmlns="http://www.w3.org/2000/svg" xmlns:xlink="http://www.w3.org/1999/xlink">
    <!-- Generator: Sketch 46.2 (44496) - http://www.bohemiancoding.com/sketch -->
    <title>education</title>
    <desc>Created with Sketch.</desc>
    <defs>
        <polygon id="path-1" points="0.0159183673 0.0285587189 0.0159183673 74.733363 77.8803665 74.733363 77.8803665 0.0285587189"></polygon>
        <polygon id="path-3" points="0.0159512195 0.188261719 0.0159512195 101.734641 108.89419 101.734641 108.89419 0.188261719"></polygon>
    </defs>
    <g id="Mockups" stroke="none" stroke-width="1" fill="none" fill-rule="evenodd">
        <g id="Programs-Post" transform="translate(-362.000000, -485.000000)">
            <g id="education" transform="translate(362.000000, 485.000000)">
                <g id="Group-4" transform="translate(0.000000, 27.000000)">
                    <mask id="mask-2" fill="white">
                        <use xlink:href="#path-1"></use>
                    </mask>
                    <g id="Clip-2"></g>
                    <path d="M76.5065918,63.8551601 C75.5355714,63.6080071 74.5531429,64.2053381 74.3117143,65.1800712 L72.501,72.4678826 C72.2566531,73.4468861 72.8482857,74.4341637 73.8193061,74.6781139 C73.9654898,74.7168149 74.1145918,74.733363 74.2597143,74.733363 C75.0712857,74.733363 75.8080408,74.1808719 76.014449,73.3540036 L77.8259592,66.0653915 C78.068449,65.0885231 77.4776122,64.1001779 76.5065918,63.8551601 Z" id="Fill-1" fill="#252B33" mask="url(#mask-2)"></path>
                    <path d="M54.3349592,27.3589858 C54.5702857,27.3589858 54.8053469,27.3141459 55.0260816,27.2215302 L74.9489796,18.9274911 C75.8733061,18.5428826 76.3118571,17.4763345 75.9292857,16.547242 C75.5469796,15.6162811 74.4836327,15.1785587 73.5622245,15.5599644 L54.3349592,23.5660142 L3.62195918,2.45578292 L3.62195918,1.85097865 C3.62195918,0.84475089 2.81065306,0.0285587189 1.8115102,0.0285587189 C0.811571429,0.0285587189 0,0.84475089 0,1.85097865 L0,3.67233096 C0,4.41058719 0.441469388,5.07571174 1.11932653,5.35622776 L53.6425102,27.2215302 C53.8632449,27.3141459 54.0996327,27.3589858 54.3349592,27.3589858 Z" id="Fill-3" fill="#252B33" mask="url(#mask-2)"></path>
                </g>
                <path d="M75.8105911,73.2811028 C75.3677364,72.395368 74.2839637,72.0296977 73.3836518,72.4690263 C69.9414389,74.1492749 64.191762,76.1029243 56.0618738,76.3692476 L56.0618738,60.3159274 C56.0618738,59.3287486 55.249708,58.5271574 54.249037,58.5271574 C53.2481004,58.5271574 52.4362002,59.3287486 52.4362002,60.3159274 L52.4362002,76.353782 C29.9307921,75.6452466 22.6688248,62.1846469 21.6246116,59.9442281 L21.6246116,47.7900807 C21.6246116,46.8018534 20.8124459,46 19.8117748,46 C18.8119003,46 18,46.8018534 18,47.7900807 L18,60.3159274 C18,60.5431935 18.0435421,60.7694111 18.1285022,60.9814736 C18.4436512,61.7565899 26.1577657,80 54.249037,80 C64.0672423,80 70.94742,77.6492248 74.9891328,75.6769642 C75.8883827,75.2386841 76.2563663,74.1668376 75.8105911,73.2811028 Z" id="Fill-5" fill="#252B33"></path>
                <g id="Group-9">
                    <mask id="mask-4" fill="white">
                        <use xlink:href="#path-3"></use>
                    </mask>
                    <g id="Clip-7"></g>
                    <polygon id="Path-8" fill="#FF8200" mask="url(#mask-4)" points="3.609375 24.1347656 54.7148438 2.47851562 105.992188 24.1347656 56.1796875 43.8574219"></polygon>
                    <path d="M81.669978,92.6683281 C80.6669122,92.6683281 79.8557927,93.4806094 79.8557927,94.4809531 L79.8557927,99.9209531 C79.8557927,100.922359 80.6669122,101.734641 81.669978,101.734641 C82.6743732,101.734641 83.4852268,100.922359 83.4852268,99.9209531 L83.4852268,94.4809531 C83.4852268,93.4806094 82.6743732,92.6683281 81.669978,92.6683281 Z" id="Fill-6" fill="#252B33" mask="url(#mask-4)"></path>
                    <path d="M107.078676,27.3877969 C106.07561,27.3877969 105.263427,28.2000781 105.263427,29.2014844 L105.263427,29.7991406 L83.4852268,38.75575 L83.4852268,35.479 L107.772554,25.4359844 C108.450746,25.1568125 108.89419,24.494875 108.89419,23.7612188 C108.89419,23.0267656 108.450746,22.3666875 107.77468,22.0856563 L55.1396439,0.325125 C54.6951366,0.142640625 54.1977244,0.142640625 53.7532171,0.325125 L1.12163659,22.0856563 C0.442380488,22.3666875 0,23.0267656 0,23.7612188 C0,24.4959375 0.442380488,25.157875 1.12163659,25.4370469 L53.7532171,47.1965156 C53.9754707,47.2889531 54.2112829,47.3346406 54.4470951,47.3346406 C54.6829073,47.3346406 54.9184537,47.2889531 55.1407073,47.1965156 L74.1710439,39.3284375 C75.0983415,38.9475313 75.5377976,37.8871563 75.1555,36.9606563 C74.7724049,36.0352188 73.7100537,35.5982656 72.7846171,35.9791719 L54.4470951,43.5587813 L6.56126829,23.7612188 L54.4470951,3.96285937 L102.332922,23.7612188 L81.495578,32.3765 L61.5379439,24.9307656 C61.6426902,24.5530469 61.7059634,24.1660313 61.7059634,23.7612188 C61.7059634,20.7107813 58.5178463,18.3212188 54.4470951,18.3212188 C50.376078,18.3212188 47.187961,20.7107813 47.187961,23.7612188 C47.187961,26.8108594 50.376078,29.2014844 54.4470951,29.2014844 C56.2634073,29.2014844 57.8843171,28.7055625 59.1441976,27.9086875 L79.8557927,35.6346563 L79.8557927,80.3082656 C77.7486366,81.0605156 76.2252951,83.0537656 76.2252951,85.414375 C76.2252951,88.4140781 78.6687561,90.854375 81.669978,90.854375 C84.6722634,90.854375 87.1149268,88.4140781 87.1149268,85.414375 C87.1149268,83.0537656 85.5923829,81.0605156 83.4852268,80.3082656 L83.4852268,70.0163594 C88.6954268,66.0859063 90.5635805,60.8533594 90.6446659,60.6209375 C90.7100659,60.4310156 90.744361,60.2296719 90.744361,60.0285938 L90.744361,47.3346406 C90.744361,46.3342969 89.9332415,45.52175 88.9301756,45.52175 C87.9257805,45.52175 87.1149268,46.3342969 87.1149268,47.3346406 L87.1149268,59.693375 C86.8012195,60.4620938 85.7098902,62.832 83.4852268,65.1708281 L83.4852268,42.6777031 L107.770427,32.6920625 C108.450746,32.4128906 108.89419,31.7488281 108.89419,31.0141094 L108.89419,29.2014844 C108.89419,28.2000781 108.082007,27.3877969 107.078676,27.3877969 Z M54.4470951,25.5741094 C52.230939,25.5741094 50.8165976,24.50125 50.8165976,23.7612187 C50.8165976,23.0214531 52.230939,21.9475312 54.4470951,21.9475312 C56.6632512,21.9475312 58.0765293,23.0214531 58.0765293,23.7612187 C58.0765293,24.50125 56.6632512,25.5741094 54.4470951,25.5741094 Z M81.669978,87.2280625 C80.669039,87.2280625 79.8557927,86.4136562 79.8557927,85.414375 C79.8557927,84.4150937 80.669039,83.60175 81.669978,83.60175 C82.6722463,83.60175 83.4852268,84.4150937 83.4852268,85.414375 C83.4852268,86.4136562 82.6722463,87.2280625 81.669978,87.2280625 Z" id="Fill-8" fill="#252B33" mask="url(#mask-4)"></path>
                </g>
                <path d="M88.2829396,92.3887458 C88.0598027,91.4080987 87.1528516,90.8082177 86.2629898,91.0557961 C85.3694659,91.3012264 84.8270042,92.2966423 85.050141,93.2794375 L86.7170756,100.612272 C86.9067664,101.444157 87.5847215,102 88.3315219,102 C88.4650622,102 88.6012879,101.983352 88.7367813,101.944416 C89.6303052,101.698985 90.173011,100.705718 89.9498742,99.7207743 L88.2829396,92.3887458 Z" id="Fill-10" fill="#252B33"></path>
            </g>
        </g>
    </g>
</svg>