<svg xmlns="http://www.w3.org/2000/svg" xmlns:xlink="http://www.w3.org/1999/xlink" width="100" height="106">
  <defs>
    <path id="a" d="M38.996 106H.012V.206H77.98V106z"/>
  </defs>
  <g fill="none" fill-rule="evenodd">
    <path fill="#FF8200" d="M8 14h86v47H8z"/>
    <mask id="b" fill="#fff">
      <use xlink:href="#a"/>
    </mask>
    <path fill="#252B33" d="M47.435 73.512c0-1.14.922-2.068 2.055-2.068 1.132 0 2.054.928 2.054 2.068 0 1.14-.922 2.068-2.054 2.068a2.064 2.064 0 0 1-2.055-2.068zm7.19 0c0-2.85-2.304-5.169-5.135-5.169-2.832 0-5.135 2.319-5.135 5.17 0 2.85 2.303 5.168 5.135 5.168 2.83 0 5.134-2.319 5.134-5.169z" mask="url(#b)"/>
    <path fill="#252B33" d="M68.482 100.102c.766 0 1.389.627 1.389 1.398 0 .772-.623 1.399-1.39 1.399H30.498a1.395 1.395 0 0 1-1.389-1.399c0-.77.623-1.398 1.39-1.398h37.984zM39.785 87.37h19.41c.858 5.523.373 7.4 2.028 9.632H37.756c1.657-2.233 1.171-4.118 2.029-9.632zm36.654-3.101H7.345c-2.351 0-4.265-1.926-4.265-4.293V7.6c0-2.367 1.913-4.293 4.265-4.293h4.277c.851 0 1.54-.694 1.54-1.55 0-.857-.689-1.55-1.54-1.55H7.345C3.295.206 0 3.522 0 7.6v72.375c0 4.077 3.295 7.394 7.345 7.394h29.337l-.74 6.131c-.263 2.19-2.153 2.741-3.035 3.502h-2.41c-2.464 0-4.469 2.018-4.469 4.499 0 2.48 2.005 4.499 4.47 4.499h37.984c2.464 0 4.47-2.018 4.47-4.5 0-2.48-2.006-4.498-4.47-4.498h-2.409c-.845-.729-2.773-1.317-3.036-3.502l-.74-6.131H76.44c.851 0 1.54-.694 1.54-1.55 0-.857-.69-1.551-1.54-1.551z" mask="url(#b)"/>
    <path fill="#252B33" d="M92.63 0H19.545a1.547 1.547 0 0 0 0 3.095h73.083c2.36 0 4.28 1.922 4.28 4.285v72.24a4.287 4.287 0 0 1-4.28 4.285h-8.036a1.546 1.546 0 1 0 0 3.095h8.036c4.064 0 7.371-3.31 7.371-7.38V7.38C100 3.31 96.693 0 92.63 0M23.874 54.126h2.252v-2.252h-2.252v2.252zM23.078 49A2.08 2.08 0 0 0 21 51.078v3.844A2.08 2.08 0 0 0 23.078 57h3.844A2.08 2.08 0 0 0 29 54.922v-3.844A2.08 2.08 0 0 0 26.922 49h-3.844zm19.796 5.126h2.252v-2.252h-2.252v2.252zM42.078 49A2.08 2.08 0 0 0 40 51.078v3.844A2.08 2.08 0 0 0 42.078 57h3.844A2.08 2.08 0 0 0 48 54.922v-3.844A2.08 2.08 0 0 0 45.922 49h-3.844z"/>
    <path fill="#252B33" d="M62.874 54.126h2.252v-2.252h-2.252v2.252zM62.078 49A2.08 2.08 0 0 0 60 51.078v3.844A2.08 2.08 0 0 0 62.078 57h3.844A2.08 2.08 0 0 0 68 54.922v-3.844A2.08 2.08 0 0 0 65.922 49h-3.844zm-28.205 5.126h2.253v-2.252h-2.253v2.252zM33.078 49A2.08 2.08 0 0 0 31 51.078v3.844A2.08 2.08 0 0 0 33.078 57h3.844A2.08 2.08 0 0 0 39 54.922v-3.844A2.08 2.08 0 0 0 36.922 49h-3.844zm20.796 5.126h2.252v-2.252h-2.252v2.252zM53.078 49A2.08 2.08 0 0 0 51 51.078v3.844A2.08 2.08 0 0 0 53.078 57h3.844A2.08 2.08 0 0 0 59 54.922v-3.844A2.08 2.08 0 0 0 56.922 49h-3.844zm18.796 5.126h2.252v-2.252h-2.252v2.252zM71.078 49A2.08 2.08 0 0 0 69 51.078v3.844A2.08 2.08 0 0 0 71.078 57h3.844A2.08 2.08 0 0 0 77 54.922v-3.844A2.08 2.08 0 0 0 74.922 49h-3.844z"/>
    <path fill="#252B33" d="M9.107 11.956h81.772V9.15H9.107v2.807zm84.879 48.457v-6.298c0-.87-.695-1.574-1.553-1.574s-1.554.705-1.554 1.574v5.736H9.107V15.105h81.772v31.662c0 .87.696 1.575 1.554 1.575.858 0 1.553-.705 1.553-1.575 0-41.608.093-38.481-.2-39.186A2.556 2.556 0 0 0 91.433 6H8.552C7.145 6 6 7.16 6 8.587v51.826C6 61.84 7.145 63 8.552 63h82.882c1.407 0 2.552-1.16 2.552-2.587z"/>
  </g>
</svg>
