<?xml version="1.0" encoding="UTF-8"?>
<svg width="102px" height="102px" viewBox="0 0 102 102" version="1.1" xmlns="http://www.w3.org/2000/svg" xmlns:xlink="http://www.w3.org/1999/xlink">
    <!-- Generator: Sketch 46.2 (44496) - http://www.bohemiancoding.com/sketch -->
    <title>STEM</title>
    <desc>Created with Sketch.</desc>
    <defs>
        <polygon id="path-1" points="0 101.987277 87 101.987277 87 0.210361746 43.5 0.210361746 0 0.210361746"></polygon>
    </defs>
    <g id="Mockups" stroke="none" stroke-width="1" fill="none" fill-rule="evenodd">
        <g id="Programs-Post" transform="translate(-658.000000, -485.000000)">
            <g id="STEM" transform="translate(658.000000, 485.000000)">
                <circle id="Oval-2" fill="#FF8200" cx="82.5" cy="86.5" r="2.5"></circle>
                <circle id="Oval-2" fill="#FF8200" cx="82.5" cy="72.5" r="2.5"></circle>
                <circle id="Oval-2" fill="#FF8200" cx="83.5" cy="49.5" r="2.5"></circle>
                <circle id="Oval-2" fill="#FF8200" cx="97.5" cy="45.5" r="2.5"></circle>
                <circle id="Oval-2" fill="#FF8200" cx="97.5" cy="28.5" r="2.5"></circle>
                <circle id="Oval-2" fill="#FF8200" cx="86.5" cy="20.5" r="2.5"></circle>
                <circle id="Oval-2" fill="#FF8200" cx="71.5" cy="5.5" r="2.5"></circle>
                <path d="M39.8166902,34.3333333 C38.8650061,34.3333333 38.0894959,33.512 38.0894959,32.5 C38.0894959,31.488 38.8650061,30.6666667 39.8166902,30.6666667 C40.7683742,30.6666667 41.5438844,31.488 41.5438844,32.5 C41.5438844,33.512 40.7683742,34.3333333 39.8166902,34.3333333 Z M12.1815827,34.3333333 C11.2298986,34.3333333 10.4543884,33.512 10.4543884,32.5 C10.4543884,31.488 11.2298986,30.6666667 12.1815827,30.6666667 C13.1332667,30.6666667 13.9087769,31.488 13.9087769,32.5 C13.9087769,33.512 13.1332667,34.3333333 12.1815827,34.3333333 Z M39.8166902,27 C37.5678833,27 35.6679696,28.5381667 34.9529112,30.6666667 L17.0453616,30.6666667 C16.3303032,28.5381667 14.4303895,27 12.1815827,27 C9.32480342,27 7,29.4676667 7,32.5 C7,35.5323333 9.32480342,38 12.1815827,38 C14.4303895,38 16.3303032,36.4618333 17.0453616,34.3333333 L34.9546384,34.3333333 C35.6696968,36.4618333 37.5696105,38 39.8184173,38 C42.6751966,38 45,35.5323333 45,32.5 C45,29.4676667 42.6734694,27 39.8166902,27 L39.8166902,27 Z" id="Fill-1" fill="#252B33"></path>
                <path d="M50.9375,44.5263158 C50.0076875,44.5263158 49.25,43.7482105 49.25,42.7894737 C49.25,41.8307368 50.0076875,41.0526316 50.9375,41.0526316 C51.8673125,41.0526316 52.625,41.8307368 52.625,42.7894737 C52.625,43.7482105 51.8673125,44.5263158 50.9375,44.5263158 Z M34.0625,21.9473684 C33.1326875,21.9473684 32.375,21.1692632 32.375,20.2105263 C32.375,19.2517895 33.1326875,18.4736842 34.0625,18.4736842 C34.9923125,18.4736842 35.75,19.2517895 35.75,20.2105263 C35.75,21.1692632 34.9923125,21.9473684 34.0625,21.9473684 Z M45.875,42.7894737 C45.875,45.6622105 48.146375,48 50.9375,48 C53.728625,48 56,45.6622105 56,42.7894737 C56,40.5281053 54.5841875,38.6175789 52.625,37.8985263 L52.625,27.1578947 C52.625,26.6958947 52.4478125,26.2547368 52.1305625,25.9299474 L45.3805625,18.9825789 C45.065,18.6560526 44.6346875,18.4736842 44.1875,18.4736842 L38.8145,18.4736842 C38.115875,16.4572105 36.259625,15 34.0625,15 C31.271375,15 29,17.3377895 29,20.2105263 C29,23.0832632 31.271375,25.4210526 34.0625,25.4210526 C36.259625,25.4210526 38.115875,23.9638421 38.8145,21.9473684 L43.488875,21.9473684 L49.25,27.8769474 L49.25,37.8985263 C47.2908125,38.6175789 45.875,40.5281053 45.875,42.7894737 L45.875,42.7894737 Z" id="Fill-2" fill="#252B33"></path>
                <path d="M56.1818182,6.875 C55.2300909,6.875 54.4545455,6.105 54.4545455,5.15625 C54.4545455,4.2075 55.2300909,3.4375 56.1818182,3.4375 C57.1335455,3.4375 57.9090909,4.2075 57.9090909,5.15625 C57.9090909,6.105 57.1335455,6.875 56.1818182,6.875 Z M85.5454545,49.84375 C85.5454545,50.7925 84.7699091,51.5625 83.8181818,51.5625 C82.8664545,51.5625 82.0909091,50.7925 82.0909091,49.84375 C82.0909091,48.895 82.8664545,48.125 83.8181818,48.125 C84.7699091,48.125 85.5454545,48.895 85.5454545,49.84375 Z M56.1818182,0 C53.3249091,0 51,2.3134375 51,5.15625 C51,7.9990625 53.3249091,10.3125 56.1818182,10.3125 C56.9798182,10.3125 57.726,10.1182812 58.4013636,9.79515625 L75.1818182,26.4928125 L75.1818182,42.96875 C75.1818182,43.4259375 75.3631818,43.8625 75.6879091,44.1839062 L79.1562727,47.6351562 C78.8315455,48.3071875 78.6363636,49.0496875 78.6363636,49.84375 C78.6363636,52.6865625 80.9612727,55 83.8181818,55 C86.6750909,55 89,52.6865625 89,49.84375 C89,47.0009375 86.6750909,44.6875 83.8181818,44.6875 C83.0201818,44.6875 82.274,44.8817187 81.5986364,45.2048437 L78.6363636,42.2571875 L78.6363636,25.78125 C78.6363636,25.3240625 78.455,24.8875 78.1302727,24.5660937 L60.8437273,7.36484375 C61.1684545,6.6928125 61.3636364,5.9503125 61.3636364,5.15625 C61.3636364,2.3134375 59.0387273,0 56.1818182,0 L56.1818182,0 Z" id="Fill-3" fill="#252B33"></path>
                <g id="Group-7" transform="translate(15.000000, 0.000000)">
                    <mask id="mask-2" fill="white">
                        <use xlink:href="#path-1"></use>
                    </mask>
                    <g id="Clip-5"></g>
                    <path d="M81.8823529,30.7467443 C80.9424118,30.7467443 80.1764706,29.9867277 80.1764706,29.0502786 C80.1764706,28.1138295 80.9424118,27.3538129 81.8823529,27.3538129 C82.8222941,27.3538129 83.5882353,28.1138295 83.5882353,29.0502786 C83.5882353,29.9867277 82.8222941,30.7467443 81.8823529,30.7467443 Z M56.2941176,6.99622453 C55.3541765,6.99622453 54.5882353,6.2362079 54.5882353,5.29975884 C54.5882353,4.36330977 55.3541765,3.60329314 56.2941176,3.60329314 C57.2340588,3.60329314 58,4.36330977 58,5.29975884 C58,6.2362079 57.2340588,6.99622453 56.2941176,6.99622453 Z M83.5882353,24.2730312 L83.5882353,17.1750187 C83.5882353,16.7237588 83.4091176,16.2928565 83.0884118,15.9756175 L71.1472353,4.10035759 C70.8282353,3.78142204 70.3932353,3.60329314 69.9411765,3.60329314 L61.0978824,3.60329314 C60.3916471,1.63369647 58.5151765,0.210361746 56.2941176,0.210361746 C53.4725882,0.210361746 51.1764706,2.49380457 51.1764706,5.29975884 C51.1764706,8.1057131 53.4725882,10.3891559 56.2941176,10.3891559 C58.5151765,10.3891559 60.3916471,8.96582121 61.0978824,6.99622453 L69.2349412,6.99622453 L80.1764706,17.8773555 L80.1764706,24.2730312 C78.1959412,24.975368 76.7647059,26.8414802 76.7647059,29.0502786 C76.7647059,31.8562328 79.0608235,34.1396757 81.8823529,34.1396757 C84.7038824,34.1396757 87,31.8562328 87,29.0502786 C87,26.8414802 85.5687647,24.975368 83.5882353,24.2730312 L83.5882353,24.2730312 Z" id="Fill-4" fill="#252B33" mask="url(#mask-2)"></path>
                    <path d="M58,98.6053721 C57.0600588,98.6053721 56.2941176,97.8453555 56.2941176,96.9089064 C56.2941176,95.9724574 57.0600588,95.2124407 58,95.2124407 C58.9399412,95.2124407 59.7058824,95.9724574 59.7058824,96.9089064 C59.7058824,97.8453555 58.9399412,98.6053721 58,98.6053721 Z M30.7058824,64.6760582 C29.7659412,64.6760582 29,63.9160416 29,62.9795925 C29,62.0431435 29.7659412,61.2831268 30.7058824,61.2831268 C31.6458235,61.2831268 32.4117647,62.0431435 32.4117647,62.9795925 C32.4117647,63.9160416 31.6458235,64.6760582 30.7058824,64.6760582 Z M58,61.2831268 C58.9399412,61.2831268 59.7058824,62.0431435 59.7058824,62.9795925 C59.7058824,63.9160416 58.9399412,64.6760582 58,64.6760582 C57.0600588,64.6760582 56.2941176,63.9160416 56.2941176,62.9795925 C56.2941176,62.0431435 57.0600588,61.2831268 58,61.2831268 Z M3.41176471,52.8007983 C3.41176471,51.8643493 4.17770588,51.1043326 5.11764706,51.1043326 C6.05758824,51.1043326 6.82352941,51.8643493 6.82352941,52.8007983 C6.82352941,53.7372474 6.05758824,54.497264 5.11764706,54.497264 C4.17770588,54.497264 3.41176471,53.7372474 3.41176471,52.8007983 Z M63.1176471,62.9795925 C63.1176471,60.1736383 60.8215294,57.8901954 58,57.8901954 C55.7789412,57.8901954 53.9024706,59.3135301 53.1962353,61.2831268 L35.5096471,61.2831268 C34.8034118,59.3135301 32.9269412,57.8901954 30.7058824,57.8901954 C28.4848235,57.8901954 26.6083529,59.3135301 25.9021176,61.2831268 L16.0591765,61.2831268 L9.72182353,54.9807568 C10.0425294,54.3174387 10.2352941,53.5845655 10.2352941,52.8007983 C10.2352941,49.9948441 7.93917647,47.7114012 5.11764706,47.7114012 C2.29611765,47.7114012 0,49.9948441 0,52.8007983 C0,55.6067526 2.29611765,57.8901954 5.11764706,57.8901954 C5.90576471,57.8901954 6.64270588,57.6984948 7.30970588,57.3795593 L14.1468824,64.1789938 C14.4658824,64.4979293 14.9008824,64.6760582 15.3529412,64.6760582 L25.9021176,64.6760582 C26.6083529,66.6456549 28.4848235,68.0689896 30.7058824,68.0689896 C32.9269412,68.0689896 34.8034118,66.6456549 35.5096471,64.6760582 L53.1979412,64.6760582 C53.7131176,66.1129647 54.8509412,67.2445073 56.2958235,67.7568399 L56.2958235,92.1333555 C54.3152941,92.8356923 52.8840588,94.7018046 52.8840588,96.9106029 C52.8840588,99.7165572 55.1801765,102 58.0017059,102 C60.8232353,102 63.1193529,99.7165572 63.1193529,96.9106029 C63.1193529,94.7018046 61.6881176,92.8356923 59.7075882,92.1333555 L59.7075882,67.7568399 C61.6864118,67.0545031 63.1176471,65.1883909 63.1176471,62.9795925 L63.1176471,62.9795925 Z" id="Fill-6" fill="#252B33" mask="url(#mask-2)"></path>
                </g>
                <path d="M63.9090909,40.6153846 C62.9740606,40.6153846 62.2121212,39.8572308 62.2121212,38.9230769 C62.2121212,37.9889231 62.9740606,37.2307692 63.9090909,37.2307692 C64.8441212,37.2307692 65.6060606,37.9889231 65.6060606,38.9230769 C65.6060606,39.8572308 64.8441212,40.6153846 63.9090909,40.6153846 Z M40.1515152,6.76923077 C39.2164848,6.76923077 38.4545455,6.01107692 38.4545455,5.07692308 C38.4545455,4.14276923 39.2164848,3.38461538 40.1515152,3.38461538 C41.0865455,3.38461538 41.8484848,4.14276923 41.8484848,5.07692308 C41.8484848,6.01107692 41.0865455,6.76923077 40.1515152,6.76923077 Z M18.0909091,22 C17.1558788,22 16.3939394,21.2418462 16.3939394,20.3076923 C16.3939394,19.3735385 17.1558788,18.6153846 18.0909091,18.6153846 C19.0259394,18.6153846 19.7878788,19.3735385 19.7878788,20.3076923 C19.7878788,21.2418462 19.0259394,22 18.0909091,22 Z M58.8181818,38.9230769 C58.8181818,41.7221538 61.102303,44 63.9090909,44 C66.7158788,44 69,41.7221538 69,38.9230769 C69,36.7196923 67.5762424,34.8581538 65.6060606,34.1575385 L65.6060606,28.7692308 C65.6060606,28.3190769 65.4278788,27.8892308 65.1088485,27.5727692 L44.7316364,7.25153846 C45.0506667,6.58984615 45.2424242,5.85876923 45.2424242,5.07692308 C45.2424242,2.27784615 42.958303,0 40.1515152,0 C37.9420606,0 36.0753939,1.41984615 35.3728485,3.38461538 L28.2727273,3.38461538 C27.336,3.38461538 26.5757576,4.14107692 26.5757576,5.07692308 L26.5757576,9.45323077 L20.2715152,15.7401538 C19.608,15.422 18.8749091,15.2307692 18.0909091,15.2307692 C15.2841212,15.2307692 13,17.5086154 13,20.3076923 C13,23.1067692 15.2841212,25.3846154 18.0909091,25.3846154 C20.897697,25.3846154 23.1818182,23.1067692 23.1818182,20.3076923 C23.1818182,19.5258462 22.9900606,18.7947692 22.6710303,18.1330769 L29.4724848,11.3503077 C29.7915152,11.0338462 29.969697,10.604 29.969697,10.1538462 L29.969697,6.76923077 L35.3728485,6.76923077 C36.0753939,8.734 37.9420606,10.1538462 40.1515152,10.1538462 C40.9355152,10.1538462 41.6686061,9.96261538 42.3321212,9.64446154 L62.2121212,29.4698462 L62.2121212,34.1575385 C60.2419394,34.8581538 58.8181818,36.7196923 58.8181818,38.9230769 L58.8181818,38.9230769 Z" id="Fill-8" fill="#252B33"></path>
                <path d="M18.6153846,3.41176471 C19.5478462,3.41176471 20.3076923,4.176 20.3076923,5.11764706 C20.3076923,6.05929412 19.5478462,6.82352941 18.6153846,6.82352941 C17.6829231,6.82352941 16.9230769,6.05929412 16.9230769,5.11764706 C16.9230769,4.176 17.6829231,3.41176471 18.6153846,3.41176471 Z M60.9230769,51.1764706 C61.8555385,51.1764706 62.6153846,51.9407059 62.6153846,52.8823529 C62.6153846,53.824 61.8555385,54.5882353 60.9230769,54.5882353 C59.9906154,54.5882353 59.2307692,53.824 59.2307692,52.8823529 C59.2307692,51.9407059 59.9906154,51.1764706 60.9230769,51.1764706 Z M5.57276923,43.8531176 C5.88923077,44.1738235 6.32076923,44.3529412 6.76923077,44.3529412 L24.684,44.3529412 L34.342,54.0884118 C34.6584615,54.4091176 35.09,54.5882353 35.5384615,54.5882353 L56.1575385,54.5882353 C56.8581538,56.5687647 58.7196923,58 60.9230769,58 C63.7221538,58 66,55.7038824 66,52.8823529 C66,50.0608235 63.7221538,47.7647059 60.9230769,47.7647059 C58.7196923,47.7647059 56.8581538,49.1959412 56.1575385,51.1764706 L36.2390769,51.1764706 L26.5810769,41.441 C26.2646154,41.1202941 25.8330769,40.9411765 25.3846154,40.9411765 L7.46984615,40.9411765 L3.38461538,36.8231765 L3.38461538,22.8827059 L16.4407692,9.72182353 C17.1024615,10.0425294 17.8335385,10.2352941 18.6153846,10.2352941 C21.4144615,10.2352941 23.6923077,7.93917647 23.6923077,5.11764706 C23.6923077,2.29611765 21.4144615,0 18.6153846,0 C15.8163077,0 13.5384615,2.29611765 13.5384615,5.11764706 C13.5384615,5.90576471 13.7296923,6.64270588 14.0478462,7.30970588 L0.495846154,20.9704118 C0.177692308,21.2894118 0,21.7227059 0,22.1764706 L0,37.5294118 C0,37.9831765 0.177692308,38.4164706 0.495846154,38.7354706 L5.57276923,43.8531176 L5.57276923,43.8531176 Z" id="Fill-9" fill="#252B33"></path>
                <path d="M83.1428571,74.1097976 C82.1982857,74.1097976 81.4285714,73.3531922 81.4285714,72.4209462 C81.4285714,71.4887003 82.1982857,70.7320948 83.1428571,70.7320948 C84.0874286,70.7320948 84.8571429,71.4887003 84.8571429,72.4209462 C84.8571429,73.3531922 84.0874286,74.1097976 83.1428571,74.1097976 Z M83.1428571,87.6206084 C82.1982857,87.6206084 81.4285714,86.864003 81.4285714,85.9317571 C81.4285714,84.9995111 82.1982857,84.2429057 83.1428571,84.2429057 C84.0874286,84.2429057 84.8571429,84.9995111 84.8571429,85.9317571 C84.8571429,86.864003 84.0874286,87.6206084 83.1428571,87.6206084 Z M98.5714286,45.3993245 C98.5714286,46.3315704 97.8017143,47.0881758 96.8571429,47.0881758 C95.9125714,47.0881758 95.1428571,46.3315704 95.1428571,45.3993245 C95.1428571,44.4670785 95.9125714,43.7104731 96.8571429,43.7104731 C97.8017143,43.7104731 98.5714286,44.4670785 98.5714286,45.3993245 Z M86.5714286,18.3777027 C87.516,18.3777027 88.2857143,19.1343081 88.2857143,20.0665541 C88.2857143,20.9988 87.516,21.7554054 86.5714286,21.7554054 C85.6268571,21.7554054 84.8571429,20.9988 84.8571429,20.0665541 C84.8571429,19.1343081 85.6268571,18.3777027 86.5714286,18.3777027 Z M98.0691429,53.3487478 C98.3914286,53.0329326 98.5714286,52.6039644 98.5714286,52.1547299 L98.5714286,50.1551299 C100.561714,49.4559454 102,47.5982089 102,45.3993245 C102,42.6059643 99.6925714,40.3327704 96.8571429,40.3327704 C96.0651429,40.3327704 95.3245714,40.5236106 94.6542857,40.8411146 L88.2857143,34.5670318 L88.2857143,24.8223595 C90.276,24.123175 91.7142857,22.2654385 91.7142857,20.0665541 C91.7142857,17.2731939 89.4068571,15 86.5714286,15 C83.736,15 81.4285714,17.2731939 81.4285714,20.0665541 C81.4285714,22.2654385 82.8668571,24.123175 84.8571429,24.8223595 L84.8571429,35.2662163 C84.8571429,35.7154508 85.0371429,36.144419 85.3594286,36.4602342 L92.2302857,43.2291505 C91.908,43.8894913 91.7142857,44.6190751 91.7142857,45.3993245 C91.7142857,47.5982089 93.1525714,49.4559454 95.1428571,50.1551299 L95.1428571,51.4555454 L81.9308571,64.4715229 C81.6085714,64.7873381 81.4285714,65.2163063 81.4285714,65.6655408 L81.4285714,67.6651408 C79.4382857,68.3643252 78,70.2220617 78,72.4209462 C78,74.6198307 79.4382857,76.4775672 81.4285714,77.1767516 L81.4285714,81.1776405 C79.4382857,81.876825 78,83.7345615 78,85.9334459 C78,88.7268061 80.3074286,91 83.1428571,91 C85.9782857,91 88.2857143,88.7268061 88.2857143,85.9334459 C88.2857143,83.7345615 86.8474286,81.876825 84.8571429,81.1776405 L84.8571429,77.1767516 C86.8474286,76.4775672 88.2857143,74.6198307 88.2857143,72.4209462 C88.2857143,70.2220617 86.8474286,68.3643252 84.8571429,67.6651408 L84.8571429,66.3647252 L98.0691429,53.3487478 L98.0691429,53.3487478 Z" id="Fill-10" fill="#252B33"></path>
            </g>
        </g>
    </g>
</svg>